<mxfile host="app.diagrams.net" modified="2022-05-31T09:40:13.264Z" agent="5.0 (Windows NT 10.0; Win64; x64) AppleWebKit/537.36 (KHTML, like Gecko) Chrome/101.0.4951.67 Safari/537.36" etag="xp_Xd3xGuYheZgre8aL8" version="17.4.5" type="github" pages="2">
  <diagram id="wFE0QG_FPsp0jaGvCLVb" name="Q3">
    <mxGraphModel dx="1422" dy="794" grid="1" gridSize="10" guides="1" tooltips="1" connect="1" arrows="1" fold="1" page="1" pageScale="1" pageWidth="850" pageHeight="1100" math="0" shadow="0">
      <root>
        <mxCell id="0" />
        <mxCell id="1" parent="0" />
        <mxCell id="lCTsMt4DWsGQYDhc63Y_-8" style="edgeStyle=orthogonalEdgeStyle;rounded=0;orthogonalLoop=1;jettySize=auto;html=1;fillColor=#e1d5e7;strokeColor=#9673a6;" edge="1" parent="1" source="lCTsMt4DWsGQYDhc63Y_-1">
          <mxGeometry relative="1" as="geometry">
            <mxPoint x="200" y="330" as="targetPoint" />
          </mxGeometry>
        </mxCell>
        <mxCell id="lCTsMt4DWsGQYDhc63Y_-10" style="edgeStyle=orthogonalEdgeStyle;rounded=0;orthogonalLoop=1;jettySize=auto;html=1;fillColor=#e1d5e7;strokeColor=#9673a6;" edge="1" parent="1" source="lCTsMt4DWsGQYDhc63Y_-1">
          <mxGeometry relative="1" as="geometry">
            <mxPoint x="640" y="330" as="targetPoint" />
          </mxGeometry>
        </mxCell>
        <mxCell id="lCTsMt4DWsGQYDhc63Y_-1" value="Q3" style="swimlane;fillColor=#e1d5e7;strokeColor=#9673a6;" vertex="1" parent="1">
          <mxGeometry x="80" y="40" width="680" height="240" as="geometry" />
        </mxCell>
        <mxCell id="lCTsMt4DWsGQYDhc63Y_-3" value="&lt;p class=&quot;MsoNormal&quot;&gt;&lt;u&gt;&lt;span lang=&quot;EN-US&quot;&gt;Question.html&lt;/span&gt;&lt;/u&gt;&lt;u&gt;&lt;span style=&quot;font-family: &amp;#34;맑은 고딕&amp;#34;&quot;&gt;를&lt;/span&gt;&lt;/u&gt;&lt;u&gt; &lt;/u&gt;&lt;u&gt;&lt;span style=&quot;font-family: &amp;#34;맑은 고딕&amp;#34;&quot;&gt;보고&lt;/span&gt;&lt;/u&gt;&lt;u&gt; &lt;/u&gt;&lt;u&gt;&lt;span style=&quot;font-family: &amp;#34;맑은 고딕&amp;#34;&quot;&gt;검은&lt;/span&gt;&lt;/u&gt;&lt;u&gt; &lt;/u&gt;&lt;u&gt;&lt;span style=&quot;font-family: &amp;#34;맑은 고딕&amp;#34;&quot;&gt;테두리의&lt;/span&gt;&lt;/u&gt;&lt;u&gt; &lt;/u&gt;&lt;u&gt;&lt;span style=&quot;font-family: &amp;#34;맑은 고딕&amp;#34;&quot;&gt;상자가&lt;/span&gt;&lt;/u&gt;&lt;u&gt; &lt;/u&gt;&lt;u&gt;&lt;span style=&quot;font-family: &amp;#34;맑은 고딕&amp;#34;&quot;&gt;실제&lt;/span&gt;&lt;/u&gt;&lt;u&gt; &lt;/u&gt;&lt;u&gt;&lt;span style=&quot;font-family: &amp;#34;맑은 고딕&amp;#34;&quot;&gt;화면에서&lt;/span&gt;&lt;/u&gt;&lt;u&gt; &lt;/u&gt;&lt;u&gt;&lt;span style=&quot;font-family: &amp;#34;맑은 고딕&amp;#34;&quot;&gt;가로&lt;/span&gt;&lt;/u&gt;&lt;u&gt;&lt;span lang=&quot;EN-US&quot;&gt;, &lt;/span&gt;&lt;/u&gt;&lt;u&gt;&lt;span style=&quot;font-family: &amp;#34;맑은 고딕&amp;#34;&quot;&gt;세로를&lt;/span&gt;&lt;/u&gt;&lt;u&gt; &lt;/u&gt;&lt;u&gt;&lt;span style=&quot;font-family: &amp;#34;맑은 고딕&amp;#34;&quot;&gt;몇&lt;/span&gt;&lt;/u&gt;&lt;u&gt; &lt;/u&gt;&lt;u&gt;&lt;span style=&quot;font-family: &amp;#34;맑은 고딕&amp;#34;&quot;&gt;픽셀&lt;/span&gt;&lt;/u&gt;&lt;u&gt; &lt;/u&gt;&lt;u&gt;&lt;span style=&quot;font-family: &amp;#34;맑은 고딕&amp;#34;&quot;&gt;차지하고&lt;/span&gt;&lt;/u&gt;&lt;u&gt; &lt;/u&gt;&lt;u&gt;&lt;span style=&quot;font-family: &amp;#34;맑은 고딕&amp;#34;&quot;&gt;있는지&lt;/span&gt;&lt;/u&gt;&lt;/p&gt;&lt;p class=&quot;MsoNormal&quot;&gt;&lt;u&gt;&lt;span style=&quot;font-family: &amp;#34;맑은 고딕&amp;#34;&quot;&gt;맞혀봅시다&lt;/span&gt;&lt;/u&gt;&lt;u&gt;&lt;span lang=&quot;EN-US&quot;&gt;.(&lt;/span&gt;&lt;/u&gt;&lt;u&gt;&lt;span style=&quot;font-family: &amp;#34;맑은 고딕&amp;#34;&quot;&gt;객관식&lt;/span&gt;&lt;/u&gt;&lt;u&gt;&lt;span lang=&quot;EN-US&quot;&gt;).&lt;b&gt;&lt;/b&gt;&lt;/span&gt;&lt;/u&gt;&lt;/p&gt;&lt;span&gt;&amp;nbsp;- 200px x 300px&lt;/span&gt;&lt;br&gt;&lt;br&gt;&lt;span&gt;&amp;nbsp;- 220px x 320px&lt;/span&gt;&lt;br&gt;&lt;br&gt;&lt;span&gt;&amp;nbsp;- 210px x 310px&lt;/span&gt;&lt;br&gt;&lt;br&gt;&lt;span&gt;- 220px x 220px&lt;/span&gt;&lt;br&gt;&lt;br&gt;&lt;u&gt;&lt;span style=&quot;font-family: &amp;#34;맑은 고딕&amp;#34;&quot;&gt;그리고&lt;/span&gt;&lt;/u&gt;&lt;u&gt; &lt;/u&gt;&lt;u&gt;&lt;span style=&quot;font-family: &amp;#34;맑은 고딕&amp;#34;&quot;&gt;박스모델에서&lt;/span&gt;&lt;/u&gt;&lt;u&gt; &lt;/u&gt;&lt;u&gt;&lt;span style=&quot;font-family: &amp;#34;맑은 고딕&amp;#34;&quot;&gt;배운&lt;/span&gt;&lt;/u&gt;&lt;u&gt; &lt;/u&gt;&lt;u&gt;&lt;span style=&quot;font-family: &amp;#34;맑은 고딕&amp;#34;&quot;&gt;개념을&lt;/span&gt;&lt;/u&gt;&lt;u&gt; &lt;/u&gt;&lt;u&gt;&lt;span style=&quot;font-family: &amp;#34;맑은 고딕&amp;#34;&quot;&gt;사용해&lt;/span&gt;&lt;/u&gt;&lt;u&gt; &lt;/u&gt;&lt;u&gt;&lt;span style=&quot;font-family: &amp;#34;맑은 고딕&amp;#34;&quot;&gt;그&lt;/span&gt;&lt;/u&gt;&lt;u&gt; &lt;/u&gt;&lt;u&gt;&lt;span style=&quot;font-family: &amp;#34;맑은 고딕&amp;#34;&quot;&gt;이유를&lt;/span&gt;&lt;/u&gt;&lt;u&gt; &lt;/u&gt;&lt;u&gt;&lt;span style=&quot;font-family: &amp;#34;맑은 고딕&amp;#34;&quot;&gt;적어봅시다&lt;/span&gt;&lt;/u&gt;&lt;u&gt;&lt;span lang=&quot;EN-US&quot;&gt;. (&lt;/span&gt;&lt;/u&gt;&lt;u&gt;&lt;span style=&quot;font-family: &amp;#34;맑은 고딕&amp;#34;&quot;&gt;주관식&lt;/span&gt;&lt;/u&gt;&lt;u&gt;&lt;span lang=&quot;EN-US&quot;&gt;).&lt;/span&gt;&lt;/u&gt;" style="text;html=1;align=center;verticalAlign=middle;resizable=0;points=[];autosize=1;strokeColor=none;fillColor=none;" vertex="1" parent="lCTsMt4DWsGQYDhc63Y_-1">
          <mxGeometry x="75" y="30" width="530" height="200" as="geometry" />
        </mxCell>
        <mxCell id="lCTsMt4DWsGQYDhc63Y_-24" style="edgeStyle=orthogonalEdgeStyle;rounded=0;orthogonalLoop=1;jettySize=auto;html=1;fontSize=10;fontColor=#050505;endArrow=classic;endFill=1;fillColor=#e1d5e7;strokeColor=#9673a6;entryX=0.543;entryY=0;entryDx=0;entryDy=0;entryPerimeter=0;" edge="1" parent="1" source="lCTsMt4DWsGQYDhc63Y_-9" target="lCTsMt4DWsGQYDhc63Y_-20">
          <mxGeometry relative="1" as="geometry">
            <mxPoint x="200" y="520" as="targetPoint" />
          </mxGeometry>
        </mxCell>
        <mxCell id="lCTsMt4DWsGQYDhc63Y_-9" value="220px x 320px" style="rounded=0;whiteSpace=wrap;html=1;strokeColor=#A680B8;" vertex="1" parent="1">
          <mxGeometry x="140" y="330" width="120" height="60" as="geometry" />
        </mxCell>
        <mxCell id="lCTsMt4DWsGQYDhc63Y_-11" value="부모 요소 section에 width: 400px과 height: 400px이 주어지고&lt;br&gt;자식 요소 class box에는 width: 50%, height: 75%가 주어졌습니다.&lt;br&gt;&lt;div&gt;&lt;span&gt;자식요소에 쓰인 %는 상대길이로 다른 요소나 부모요소 또는 창 크기에 비례하기 때문에&amp;nbsp;&lt;/span&gt;&lt;/div&gt;&lt;div&gt;&lt;span&gt;&lt;br&gt;&lt;/span&gt;&lt;/div&gt;&lt;div&gt;&lt;span&gt;부모요소 width: 400px의 50% → 200px&lt;/span&gt;&lt;/div&gt;&lt;div&gt;부모요소 height: 400px의 75% → 300px 로 적용됩니다.&lt;/div&gt;" style="rounded=0;whiteSpace=wrap;html=1;align=left;strokeColor=#A680B8;" vertex="1" parent="1">
          <mxGeometry x="400" y="330" width="440" height="180" as="geometry" />
        </mxCell>
        <mxCell id="lCTsMt4DWsGQYDhc63Y_-22" style="edgeStyle=orthogonalEdgeStyle;rounded=0;orthogonalLoop=1;jettySize=auto;html=1;fontSize=10;fontColor=#050505;endArrow=none;endFill=0;entryX=0.559;entryY=1;entryDx=0;entryDy=0;entryPerimeter=0;fillColor=#e1d5e7;strokeColor=#9673a6;" edge="1" parent="1" source="lCTsMt4DWsGQYDhc63Y_-12" target="lCTsMt4DWsGQYDhc63Y_-11">
          <mxGeometry relative="1" as="geometry">
            <mxPoint x="640" y="520" as="targetPoint" />
            <Array as="points">
              <mxPoint x="640" y="510" />
            </Array>
          </mxGeometry>
        </mxCell>
        <mxCell id="lCTsMt4DWsGQYDhc63Y_-12" value="&lt;b&gt;200px x 300px이 아닌 320px인 이유?&lt;/b&gt;&lt;br&gt;&lt;br&gt;= 아래와 같이 박스크기의 기준을 어떻게 하냐에 따른 다른데,&amp;nbsp;&lt;br&gt;&amp;nbsp; &amp;nbsp;기본설정이 콘텐츠 영역을 기준으로 하기 때문입니다." style="rounded=0;whiteSpace=wrap;html=1;align=left;strokeColor=#A680B8;" vertex="1" parent="1">
          <mxGeometry x="400" y="530" width="440" height="120" as="geometry" />
        </mxCell>
        <mxCell id="lCTsMt4DWsGQYDhc63Y_-19" style="edgeStyle=orthogonalEdgeStyle;rounded=0;orthogonalLoop=1;jettySize=auto;html=1;fontSize=10;fontColor=#050505;endArrow=classic;endFill=1;fillColor=#e1d5e7;strokeColor=#9673a6;" edge="1" parent="1" source="lCTsMt4DWsGQYDhc63Y_-16">
          <mxGeometry relative="1" as="geometry">
            <mxPoint x="360" y="795" as="targetPoint" />
            <Array as="points">
              <mxPoint x="360" y="795" />
            </Array>
          </mxGeometry>
        </mxCell>
        <mxCell id="lCTsMt4DWsGQYDhc63Y_-16" value="" style="shape=image;verticalLabelPosition=bottom;labelBackgroundColor=default;verticalAlign=top;aspect=fixed;imageAspect=0;image=data:image/png,iVBORw0KGgoAAAANSUhEUgAAAj0AAAF5CAYAAAB0sJvmAAAgAElEQVR4nOzdeXRU9f3/8eedNZkkk32BJCwhJAQCBEgQCLIrgigKlqL94m5bW0/tt2q1omjFWq11o6JVFAEREWRHNkkBEWUJgQBJWLNAEpJAyD77zP39QXO/xARE6g+1eT/OyVHufO6dO3fuzH3dz+d97yiqqqoIIYQQQvyX0/3QKyCEEEIIcTVI6BFCCCFEuyChRwghhBDtgoQeIYQQQrQLEnqEEEII0S4YLvVgSb2Pv+104fWBy6eSHq1nWm8jbi/IJV9CCCGE+LEKMiuYvtG1c8nQc86msjjPjdsHdq9Ko1NlSooBu0dCjxBCCCF+fFRAASxGpdV41iVDj14HoX4Kbh/4eyHQpKAooFMk9AghhBDix6c59ChtPPatNT3qBX9CCCGEED9VUsgshBBCiHZBQo8QQggh2gUJPUIIIYRoFyT0CCGEEKJdkNAjhBBCiHZBQo8QQggh2gUJPUIIIYRoFyT0CCGEEKJd+FGFHkW52D0UhRBCCCH+Mz946FEUHQaDDkXRoTcoBAQo6PUXXy1F0f07HAkhhBBCXL5L/vbW901RFBRFOf+TFqqKTgdOpxOX04PJ7MeS+R/idNmZMGkqoWEheDz/9+MXRpMOkwl8PtDpFLweBYfDdzVXXwghhBA/YVc19KiqCoqCTgF0Cn5+UHTiJO/Pfo3ho28grnMnXv3LM/To1Zchw4doocds1lFVeZYvNm+ktKQEa0gw146+jqSUJBx2+WUwIYQQQny7qxZ6jCYdp4qKmT/nLTxuD35+/ni9HpJSUgkJCefAvmz+98kZxHXqgsfj1uYzmXWUnSrjhacfx8/sR98BAyguLOT5Jx7hd3+awYBrMnA6JPQIIYQQ4tKuWujxeVVCwiLo0y8dW1MjAQGBvP/W64SGhdE5IYEzVZWo/84uzTU7iqKg18Pa5UvQKQozX5tFWIgFjwov//l5Fr3/Dr3T0tDrjXi9MtQlhBBCiIu7aoXMXq+KJSCQyXdM4be/upfuPXpiCQhk7M23oKo+Kk+Xk5u9G7vNhk7XcrXOVZ+hY3xnokIsuLwQoEBC9yTq62pxuz0oP3g5thBCCCF+7K5qXPB6ffh8UHK2jtdeeJZho66nX+9kfD6VowWHWLJwLjXVZzEYjMC/a4CAoSOvJy93H58sWUFJYSGbtmxn7fJPGXztSAIC/fF6ZHhLCCGEEJd29QqZVfDz1+F0uPn7c89iCQzizl8+iBtw2O1kDBrKnb96kD//8Q+4XS5tNqcTho4cQdb6tbz96kv06juAU8UnMBiNTPz5L1DV/wtHQgghhBAXc9V6evRGhXNnz/KXp56g7GQJTzz3V6whAbi950OLyWQiKDgMvV6PT/Wh04F/gA6LBQJNEBQczMjrb+Dvr7zKHff8kpCQUKwhIfibICBQ12pITAghhBDiQletp8dkUji4/wAup4NnXn6duPgYbDYf/pbzYcXn8+Fxu1FVFaPBSEOdg39tXI/BaMRkNnPiSAGWAAvZOTkcP3qY0+WlbFi9DIPBiMftZtC1IwkLD8PjkYJmIYQQQrR21UKPw66SPiiTazKH4ednwGa7eDhRUdHrfRzIyeZI/iE6xsYTFR2NqqosX/IJigI9e/dlz45t2Gw2DEYTfQcMRBcVBp6r9YqEEEII8VNy1ULP+SEsM4oCTmfLwOP1egEFBQVV9eH1egkIsvCHp56jqakJi8WMXq8HFXyqT7uzs893fjmKooCqx+WUXh4hhBBCtO2q3pG5OaRcSPWBNTiY4JDQ8/9WlX/fuBB0ej3BoVZU778bK6C/YF79Bf/w+lSQgmYhhBBCXMRVDT1tcTpVxk/8GXqDHkXRMe3+X9O5WyIup4rPq+LzfvsyhBBCCCG+zQ8eelRVJTA4CNTzvTVDRw7D6UTusCyEEEKI79UPHnoAvBdccWW3yxCVEEIIIb5/cnMbIYQQQrQLEnqEEEII0S5I6BFCCCFEuyChRwghhBDtgoQeIYQQQrQLEnqEEEII0S5I6BFCCCFEuyChRwghhBDtgoQeIYQQQrQL3xp6VBV8//6TeyULIYQQ4qfqkj9D4VPB5lFxe8HuBaf3fPBRJQAJIYQQ4kfoUvlEUVX1oo/XOFS2nvTiU8GrQlyQwoAYHV6fhB4hhBBC/PgonM8ofgYFvfKNxy4VeoQQQggh/ltIIbMQQggh2gUJPUIIIYRoFyT0CCGEEKJdkNAjhBBCiHZBQo8QQggh2gUJPUIIIYRoFyT0CCGEEKJdkNAjhBBCiHZBQo8QQggh2gUJPUIIIYRoFyT0CCGEEKJdkNAjhBBCiHZBQo8QQggh2gUJPUIIIYRoFyT0CCGEEKJdkNAjhBBCiHZBQo8QQggh2gX9s88+++wPvRI/lKamJqqqqjAYDBiNxsuax+v1otPpqK6uZu3atSiKQmRkZKt2qqri8/nQ6S4/VxYUFPCvf/2LiIgIAgMDL3u+y7FlyxYKCgro1KkTBoMBgLq6Ourq6rDb7dhsNpqamnA4HBgMBvR6/WUtV1VVtm3bRl5eHnFxcZfcjllZWRw/fpz4+PjLWn5TUxNr166loaGB2NjYVo8fP36c3NxcPB4P4eHhl7W+zSoqKlizZg0mk4mIiAhtutfrRVEU7d8X/v8PQVVVXC4XZWVlbNy4kZCQEKxWa5ttfT4fGzdu5NSpU3Tq1KnFvldXV8f27duJi4vDYDBQXFzMhg0bCAsLIygo6KLPX1NTw5o1a/D5fERHRwPnt1F1dTU2m63Fn9frxWg0XvY2q62tZfXq1Xi9Xm3ZAHa7HYfDgdlsBuDQoUNs27aN6OhoLBaL9lqbP4tXorGxkaqqKvz9/dvcF1VVbfE6vF4vmzZtori4+JL7b21tLWvWrMHj8RATE3PR5y8pKWH9+vUEBgYSGhp60XaHDx8mKyvr/8t3ghDtkeFSD7pcLubNm4fH4+GXv/yldrD8/+ns2bN8/vnnjBgxgg4dOrR6vKGhgXXr1jFkyBDi4+Ov+Hl27NjBihUrMBgMeDwebrvtNgYNGtSqXX19PUeOHKFHjx4EBQWRnZ3NwYMHmTRpEkVFRRQUFPDMM8+0ms/n87Fs2TK8Xi+TJ0/GZDK1apOTk0NeXh4xMTEMGzaMwMBANm/ejNfr5Y477mjVPj8/n/r6ei1YqKoKQEhICF27dkWv12O326mrq9PeK51Opx08FixYQEJCAj169ADgwIEDbNmyBavVik6nQ6fTcfz4cQYMGMC0adMuuu2qqqrQ6/WEh4ejKAp6vZ558+YRHx9PSkoK+fn5eDwevF4v/v7+2O12FEXBZrOxZMkSunfvTteuXVsss6KigoaGBvR6PQaDAUVRCA8Pp7q6ms2bN9O7d2/8/f2B8wegjz/+mD179hAfH8/KlSsZPHgwU6ZMafMgWF1drR0gm9fXaDSSm5tLUVERTz75pNZ206ZN7Nmzh+DgYEwmE/X19bjdbu699146duzYYrlnz54lKyuLs2fPEhcXx3XXXacdlJvt2LGDkpISLBaL9n6pqkqfPn1ITExsta4ulwtAW8/6+nrmzp1LfHw8u3fvxmazcc8992jtv/76a6qqqhg9ejSBgYE4nU4++ugjUlJSiImJ4fjx45SUlFBXV8f8+fO1QGSxWNi2bRsej4f/+Z//abWddDoder0ePz8/CgsL2bt3Ly+99BIAbreb1atXU1VVRUBAAIqi4HQ6KS4u5uGHH6Z79+4tXpPX62Xfvn3U1dVhNBoxGo0EBQWRmJhIaWkpOTk5pKamau9dSUkJH3zwAY888ghRUVFYrVbWrl2L2Wzm5ptvBsDpdDJ//nyioqKYNGlSm/vppdhsNp566il+9rOfceONN7Z63OfzsXbtWvz8/BgzZgx6vR5VVZk/fz5JSUl06tQJn8/Hzp07yc/PJyoqijFjxmjbKzs7m759++L1egFahSSLxcLu3buprKzk97//PQ6HA5fLhU6nQ1VVPB4POp0Oi8XC5s2bcbvd2vskhLhyl0wxzR+6L7744orPqL4rp9NJUVERAwcObPNxt9tNYWEhffr0ueLnKC8vZ/78+UyZMoX09HS+/vpr5s2bR0JCAlFRUS3aqqrKBx98wKBBgxg/fjwul4svvviCW2+9lczMTLKysnC73SiK0iIU6vV6Dh06RH19PT//+c9brcPq1atZt24dAwcOZMOGDRQUFPC73/2OAQMG4HQ621zvY8eOsWPHDq1XQ6/XU1paisfj4a9//StBQUGcOnWKd999F6PRiL+/PyUlJQwdOpSpU6eydu1a7aAKYDabCQ8Px9/fH0VRMJlMOBwOzpw50+bzNzY2MnfuXIqLi/H5fKSlpXH33XczePBgli1bhtvtBmDevHm4XC66d+/O3r176dKlC8nJyYwZM4Zt27Zp7S60d+9eNmzYQFRUFDU1NVRXVzNr1ixGjRpFQUEBHo9Ha3vq1Ck2btzI008/TVJSEocPH+bFF18kMzOzzSC8Zs0acnJyCAsL00LhjBkzGDZsGPv372/RtlevXoSGhuLz+fjyyy/ZunUrEyZMaHU2XlVVxcsvv0xkZCTJycns2rWLw4cP8/vf/14LmQAmk4mmpiYtyOn1ejZs2EBVVVWboWfFihXk5OQQHBxMXV0dkydPpkOHDlRXV9O/f3/sdnuL9nq9ng8++ICePXvSvXt3Bg4cSFZWlrYv1tfXs3fvXnQ6HZ07d6akpITGxkaGDx9OWlqaFk4VRWHDhg3s2bOH0NBQzp07h8lk4sUXX2TYsGGsWrVK6/1QVRWr1YrL5cLPzw+dTofNZqOqqgqbzdbqNSmKQklJCQUFBXTo0IE1a9bQr18/nnnmGUaMGMHy5cu1YHTu3Dm8Xi8nT55kw4YNdOjQga5du9K3b98W+42fn58WHL5r6FFVlaysLMrKyjh16lSbPbJ6vZ7a2lq2bdvGyJEj0ev1DB48mE2bNmnrsWTJErZu3cqwYcP46quvyM/P54knniAzM5P169cDUFhYyMKFC5k6dSopKSna8iMjI8nIyKC8vByAoqIiZs+ejcViwd/fn4aGBvr168e0adNIS0tr8bkVQly5S4Yeg8FAz5492b9/PwcOHOD06dP06NFDO0uvra0lOzsbn89HRkYGoaGh7Nu3D5vNRkJCAjabjdLSUhITE9scnoDzXwp5eXlERETQr18/TCYTkyZNonPnztTW1pKXl4fH48FkMhETE4PVauWWW24hMTGRmpoaDh06RExMDGfPnsXtdjN48GCtJ+Tw4cMcP36cyMhIbDYbnTt3JiEhgcbGRjweD7179yYkJIQ+ffqwePFiGhsbW4We4OBgEhMTycrKorq6WjsYNPcaHD16lJkzZ5KZmcnYsWO1+VatWsXu3bvJzMykvr6ekJAQ7TGXy8WGDRuYMmUKo0aNorKykieffJKysjIURblowJw4cSITJ05sMW3Lli0sW7ZMO5Ps2rUrDz30EBaLhcbGRp544gliY2O1g9WFXfZnz55l8+bNjBs3DovFgsfjISMjg5SUlDYPBCtWrODEiRM88sgjNDU18fLLLxMbG8vgwYNRVRVVVTEajXTq1Ino6GimTp3K448/ztSpU6mtrWXx4sVUV1e3OQQ2ZswYhgwZgp+fHy+88IJ2IC0pKWm1TUJCQoiIiGDXrl14PB6ys7OJiIggODi4ze120003MXz4cGJiYpg/fz7Z2dmEhYXhcDhavcZOnTpRU1PDv/71LwoKCujcuTODBg1q1W7r1q3o9Xr++Mc/AjBixAgeffRRCgoKSEtL09rpdDo6dOigbX+j0YhOp9N6AL6pObiZzWaee+459uzZA4C/vz9ut7vVeuzZsweDwaANsXo8HjweDzk5OXTs2JH+/fsTHh7OvHnziIqKwmazMWjQIPr27cuXX37Jrl27OHv2LDfddBM333wz1157LWFhYbz44ovaujqdzhbPq9fr2bNnD42NjQwbNgyn04m/vz833nhji6HCC7fB5MmTAfj888+JjIzkuuuu49NPPyU3N1c7YaisrCQ3N5ewsDDS0tJoaGigpqZG6+G7MEwqikJsbCx79uwhPz9fWz+n04nVam3Vk9is+YSnurqaxx9/nK+++oqnn36aKVOm0KdPH+3zYbfb2bFjB0lJSdTV1fHpp59y7tw5ampqsFgsuFwutmzZwl133cWQIUMYO3Ysjz32GMXFxS3CYZcuXaivr+fo0aMtQg/Q4v2Mj4/H5XJx/fXX079/f1wul7Y/u93uFt8fQogrd1njVYWFhSxduhSTycSnn37KE088QVhYGC+88AIBAQEArFu3jscee4yCggLef/99/va3v1FQUMDy5cuZOXMmoaGheDwe7UvF39+f48eP8+abb9KrVy8tVOj1ej7++GNeeOEFjh07xqJFi7j++utZvnw5I0aMoEePHsyZM4cZM2YQFBTEvHnzqK+vp0+fPlpX/rRp0/jyyy9ZunQpqamprF27FqfTqQ1jJCUlMXjwYF5++WUSExM5duwYI0aMICEhoc3X73A4GDp0KBMnTqSyspJ//vOf2hlyZGQkN998c4tQ9/HHH5OVlcXMmTPZt28f06dP595776Vfv37asIHVauXkyZM4HA6KiopQVRWTyaQNgXyTx+Nh69at2O12zGYzqqqi1+vZtWsXYWFh2oHBaDTSpUsXABYuXEhqaiqjR4+mqamp1bKHDh3Kzp07tZ6l5vqRY8eOMXDgwBYHOlVVycvLY9y4cXTq1AmA4cOHM2fOHL7++msqKipaDLsZDAbcbrf2njf/XawWwmw2YzabWbhwIU1NTUyePJm5c+dSUlKi9SY096iFhITwm9/8hjVr1rBs2TICAwN58MEHCQwMxOVyodfrWzxPeHg44eHhHD9+nN27d/Pggw/i5+fXKngUFxezaNEifD4fw4cP5+677+bQoUMsW7aML7/8kocfflhra7FYcDqdOJ1OzGYzDQ0NuN3uVoEuPz+f9evXc9ttt6HX63G73dxwww307du3ze0QFxdHXFwcn332GVFRUZjNZvbt20d6enqrWpl169aRl5dH3759eeutt/jDH/6A2WzG4XCwefNmUlJSSE1N5bPPPkNRFJ566ilWrVrFokWLGDhwID6fjy5dujBq1ChiYmIICgoiKCiILVu2kJ+fzxtvvIGiKK22k8lk4vrrr2fr1q00NDTg8/mA8zVYJ06cuOgJzqZNm1i0aBEWi4XKykoCAgK0/URVVcaPH8/gwYNZvHgxdrsdnU7HnXfeSXR0NDt27ODgwYNYLBb69++vnazk5OTw2Wefae+3zWYjPT29zdDT1NTEBx98QFJSElOmTOGzzz7jvvvu48svv2T9+vUt3pO33nqLoKAgGhoaWLFiBX369KGsrIzi4mK8Xi96vZ6QkBAOHz5MWloahw8fRlVVAgIC8Pl82mfNaDQSFhbW5n5/4ZC30WjEarXSqVMn4uLiWrTz8/Nj//79mEymi742IcTl+dbQ4/F4CA4O5pe//CWdO3fmr3/9K1u2bCEoKAiTycQzzzyDTqfjqaeeYt26dTzwwANaMZ/RaOSJJ56gV69ezJ8/n+LiYgwGA6qq8vOf/5zKykrOnj3Ltddey5gxY1AUhdDQUFauXEltbS1JSUk89dRTVFZWEhkZyU033UR4eDiLFy+mrq6OpKQkUlNTaWxsZPr06WzcuJH169czbdo0tm7dSlJSEg888ACBgYEcO3aMDh06cOrUKUwmE+PHjyc8PJzy8nKGDx/OwIEDOX36NC6Xi4iICC3MAURERJCfn49er6e6uhqTyURQUJBWgJmeng6c78F57733yMvL45FHHiElJYWMjAwWLVrEG2+8weOPP06vXr3Q6/XcddddvP/++7z00kvU19czdepUIiMjLxp6dDodtbW1HD16VDsDNBgMHDt2jH79+rU6IM6bN48jR47w3HPPodfrtQOT0WikvLycdevWERAQQLdu3WhsbNS67HU6HY2NjbzzzjsMHDiQjIwM4PyZdXBwMPn5+dxwww14PB6OHj1KZmYmmZmZlJaWagdHi8XCli1bqKyspKamhk8++YSoqCjS0tIoKytrs5ejsbGRBQsWcODAAR599FESExPJyMjg66+/ZtWqVej1eg4cOMCnn35KZGQk4eHhBAcHYzQasVgsbN++ndWrV1NfX8+UKVNanVWXlpby0ksvMWrUKO01Xbitjx49yu7duwkICCA9PZ3g4GCqqqoIDg5m5MiRlJSUsGXLFtLS0ggNDWX48OHk5uby5z//mYSEBPLz8xk8eDDJycktnjchIQGj0YjBYCAgIAC3243dbqekpIT4+Pg26+Ryc3NZunQpI0eOJD4+ntOnT2s9ac3v86ZNm1i6dClPPPEEiYmJPP3007zyyivcfvvtWK1WfvOb32jhNDk5mePHj7N27VoOHjxI//79tfe0Z8+e2r/hfI3Qxx9/THR0NFu3bmXatGna0BzAtm3bOHr0KFarlc6dO+N0OrXHzGYzhw4d4vjx49xyyy2EhYUB58PGsmXL2LVrF48//jh6vZ5Zs2Zx//33c9NNN7F8+XLt+efPn099fT233347W7Zs4e233+aZZ57BYDBw5MgRIiIi8Pf3p7GxkcDAQIYMGdJiOLg5XG/cuJGUlBRtGxw5coTs7Gw6dOhAhw4dOHHiBF9++SVBQUEkJydjMBhYuXIlaWlp/Otf/6K0tJQ///nP1NTU8MILL5Cens6tt97Kjh07cDqd6PV6pk2bxrx583jttdc4d+4ct912G5GRkVowb94uHo9HCz0+n4/6+nqqq6s5duyYVpSuqmqL4Tufz0dDQwNnz56lrKwMu91OQ0NDq31FCPHdXFboiYqK0molEhISKC8vp76+npSUFO3D3LdvXw4fPgzAL37xC2655RYGDx6s1eZcd911WkErQHR0NJ07d6a8vJz33nuPkJAQ7r77bvz8/DCZTPh8PmJjYyktLeX999/n17/+NR07dtTOrJuXoygKCQkJ6HQ6rFardqadkZHB+vXr2bBhA/v27WPQoEEcO3aMOXPmEBUVRVBQkDaEc+TIEXJzc3G5XDgcDu666y5SU1O1bTB16lQOHz5MfX093bp1IyQkhKamJjweD926ddPamUwmMjIyuOuuu1qEpjvuuIORI0dqtTgej4eUlBSefPJJCgsLsVgsREVFkZeXR1FRUZv1Sjqdjttuu63VdKfT2eLMsK6ujgULFpCfn8+TTz7Z4qoYOP/lGhgYiMFg4MSJE9rZ9oUBwGq1ajUTF5o8eTKzZs1i5syZ2O12vF4v9957LwEBAQQEBGhhZuLEiXTv3p3w8HBuvvlmampqiIiIwGQytTjANautrWX27Nl4vV7+8pe/EB4ezpo1a+jRo4cW8Hw+H4mJiYwYMYLi4mLq6uowm82YTCZcLheqqtKtWzdiYmJaFMD7fD727dvHO++8Q2ZmJr/4xS9aPT+cH+rLzc2la9eu5OXlUVZWxrFjx+jVq5e2r+zYsYOePXsCEBQUxPTp09m9ezfV1dUMGTJEe+xCffv25dZbb+XMmTN8+OGHZGRkEB0dTXBwcKvAo6oqe/fuZfbs2Vp42blzJ2VlZcTFxWn7vKqqnDx5kl/96lckJCSg1+t59NFH2b9/v3bgbB6CBRg9ejQNDQ2sXr2arl27kpyczN69ezGZTHTu3Bk4H9jXr1/PypUruf/++0lNTeXJJ5/EbDYTHR2tDeeGhYXR0NBAdXV1q/3DYDAQHByMv79/ix6v0tJSzpw5w1NPPUWHDh1wu90MGjSIgoICYmJiCA0N1db19OnTZGRkkJycTENDA3PmzNF6Tm666SZuuukmCgsLWb16NRaLhdjYWGw2W4v91+Px0NDQQFRUlBZ63G43BQUFBAcHk5eXh8/nY/To0djtdg4dOoSqqthsNm0o+I9//CNWqxWr1crYsWM5cuQI/v7+Wg0cQGpqKg8//DBbtmzhzjvv1L4jjxw50qLo3Wg0snr1ag4fPozD4cDj8WA2mzl58qQ2FKrX69HpdCxatIgtW7bgdDq1q+GKi4uZOHFim59/IcR3862hR1EUzpw5Q01NDWFhYeTl5ZGamorX6yUnJweXy4WiKOzdu1f70l+6dCk33ngjVVVVZGVlMXr06FZXvgBkZ2fTtWtXJk6cyHPPPceSJUv47W9/i9frxWAw0NDQwD/+8Q9uuOEGunXrxtKlSxk9erTWawHnrwxpPtPzer3agbdDhw44nU5KSkq44YYbGDVqFKqq8vvf/559+/YRFxdHSkpKq54Vn8/XqjbEarUSGRnJqlWrMJlM6PV6nE4nZ86cYfTo0cD5K1927txJUFAQe/fubXHW1lwknJubi9VqJTc3l8rKSkJDQ1EUBbvdjs/n07r9v3kwLCsrIycnR7u8tvmM3+v1kpubi9vtZu3atfTo0YNjx45RUVHBjBkz2rz6zePxYLVaufvuu9m/fz9ZWVnaZcY6nU4bcmuuVblQUlISzzzzDPv378dgMJCRkUFgYCB1dXUt3pMOHToQFBTEnDlzGDRoEIMHD9a2kU6na3Ulm9FoZOLEifTs2VO7emX58uXExcXx0EMPMWjQIAwGA35+fowdO5bs7Gx27typLcdgMLBz504A7eqeZrW1taxatYqxY8dqdSVtaQ4tW7dupVu3bvj5+fHaa6/xwAMPaPUyiqJw4MABdu/ejcVi0W51YLVaqampYevWrbhcLtxuN926dUNVVcxmMwMGDKChoYGvvvqKXr160adPH1wuF7m5uXTs2FFbfmNjI+vWrWPixIlafdjgwYNZunQpdXV1KIqCz+dDURTuv/9+vF4vs2bNIiIigmnTpjFq1CiKi4u1IdQL9erVi1OnTuHv709OTg4ej4c9e/ZoQ6GnT59m3759PPzww9qB+KGHHiI/Px+HwwGcD1u9e/emd+/efPrpp5w8ebJFuD9w4ACTJk3SPhPNunfvziOPPAKcL8Z/5513CAkJwYt6bh8AACAASURBVOVysXv3bu69916t7fjx41m8eDGnTp3ixIkT2pVTXq9XK2ZPSEhg5syZbNiwAUVRGDt27LdeWZqamsrMmTP58MMPKSws1HpiVFWlqqqKcePGcc011wBoPYF1dXW89dZbWq/Sli1bmDBhQotL0YODg8nJycFsNmu1bVVVVS16XqdMmUJ+fr52eXpUVBQdOnTg448/1i4aMBqN3HPPPRQVFREUFERoaCiRkZFER0dr6yCE+M99a+ixWCz4fD5eeeUVra5i9OjR6PV69u/fz4wZM7QD5vXXX88HH3zApk2bePXVV1mzZg2vv/46VqtV+yK5UE1NDR9//DHJyck0NjYyduxYcnJyKC8v5/Dhw5SVlXH8+HGSkpJ45ZVXcLvdREREUFFRwcGDB4mOjub48eMEBwdTU1NDQUEBpaWlFBQUaEXHqqpSWFiIv78/gwYNIikpiR07drBmzRoyMzMve0PFxsZyzz33aPUiiqKwbNkyioqKgPM9MQUFBdTW1hIdHa19oV6osbGR9PR0Bg8eTGFhITExMQQHBxMUFERAQAChoaG8/fbb2kHmQvv378fj8WgHyOZlNx+gDh48SGRkJMOGDeO66667rNsL6PV6TCaT1ivQ3ONTW1vbqui5WXMR6rcxm804nU527dqlhZ7w8HAefvjhVjULAQEBWs+ay+Vizpw56PV66urq2Lt3L5MnT25xEG9sbMTpdBIYGKgNZ5hMpjYLpIOCgnjkkUcuWuR8IavVSlFREYcOHeK3v/0t/fr104YrmrlcLnbs2KG9bxcWrcL/3cfJz8+PDRs24PP5CA0N1eq/du3axb59+/B4PDQ1NWlDInD+s/bwww+3WteLDXnq9Xo6duzInj17tFsMdOrUiYcffrhVD9+FoaH58nl/f39tP+nYsSPTp09vsQ1TUlJISUkhKyurxZCkz+fDaDRqdViAdkuC+vr6Vut5YW3YwoUL6dKlC7/+9a9xu90899xzHD58mN69ewPn68SioqI4cuQII0aMoF+/fto2uHA7GAwGdDodK1asuKz9sXkdMzMzSUhI0O55YzAYWLhwIfv379dCT7MvvviCsrIyXnnlFcxmMx999BHZ2dktgrXVaiUiIoJNmzZx+vRp4PzVhc1hEs6fLCQlJbVanwtrfwD69Olz0atSm9s1NjaydetW+vfv3+aJpBDi0r71yJiUlMRLL73E6dOnqa+vJy0tTRuHfvrpp9m/fz+KotC/f3/8/f1JS0ujT58+WK1Wrr/+evr06dPqiqhmo0ePJi4ujrKyMiZOnEiPHj0oLS3l2WefJSQkhKCgIGbOnInL5SItLY2oqCj0ej3Tp0/Xii5/+9vfar0HY8aMYdCgQVitVpYvX86YMWMYMGAAxcXF/POf/yQsLIzk5GTtjH7z5s34+flp4+lms5lrrrmmzcBgMplaXWIcGRlJRUUFAKGhoTz66KOXveEvvMLnQg6Ho9VNyGJjY3n66acve9ltufDeH80URWHz5s2MGjWK6OhorYciOjoap9OJn5/fd1r2hYxGI9HR0Rw6dIhdu3Zpl0U3D0W1VYxZWFjIvHnzAHjxxReprq7mjTfeICcnh/vuu0/rubLZbGzfvp1p06ZhNpu1wuP4+Hg8Hk+L989oNF408Hi93hY9VDqdjt69e/PJJ5+Qm5tLQkKCVsMRFBREenq69nc5+vXrpxW3Nq/Lhc/p8/la9Hrp9fo217V5m/l8vhbrCxAVFcW5c+f48ssvtTDudDpxOBwt6osMBgNffvklw4cPp0uXLrjdbsaOHUtUVJQWYi7mm9tJURROnjzJzp07GT9+vLZuI0aMoGvXrhcNzM3borGxEZvNpv33m5rD1oW+uX8BJCYm4na72bRpEyEhIaiqqu1n11xzTZv7b7du3VoMScP54vG2rpi0WCy43W4qKioIDQ3lzJkzLXpam9ntdlJTUxk3bhxwfiitqamp1fK+yev1XjTQXujCXuO6ujpWrFhBTEyMhB4hrsC3hh5/f3/8/f1bnTkCBAYGMnTo0BbTms/M4PxZ0De/YC6k0+lafcE1X73SrK077V74Yb/wUs7m52r+orJarYSFhXH27FksFot2Vtq9e3eGDBnC3r17MRqN2lVL0dHRF70/UFusVmuLy2i/D6GhoZe8k+uVUhSFjh07trj7brdu3Rg6dCg2m42zZ8/i8/nweDzU1taSlpZ22V+qOp2OuLi4VpfVZmRkUFVVxRdffKFNczgcjB07tlXo8Xq9bN++neTkZKZMmYLRaCQiIoLnnnuOhQsXcu7cOS309O7dmz59+lBUVKQdrJ1Op3ZLhcu9iWZgYGCr19g8/LRnzx5MJhMejwen00lCQsJlh51mzYW8F7rcO11fqPlmf6dOnWq1vzUX8+/YsUM7IDscDq699toWoSc+Pp6RI0dSX1/PyZMnAbTgkZycfMn7cPn7+9OpU6cWdXRDhw6lvLycs2fPatNtNhsWi+WiV6YpisKdd97Je++9xwsvvIDX6yU5OZkJEyZ86zaIiIhodefz2NhYRowYQV5envY59ng8BAUFMWDAgG9dZrPOnTu3eUn4sGHDKC0tZdasWVqv1t13390q0A0YMIDs7GxWrlyJoijU1NRc1r7SXP/0bUJCQrR9v0OHDrz66qsthhWFEJdPUS/nVOMn6MSJE3z22WfU19drd1W9WO/KlXI4HCiK8r0Gn8bGRq1+5fvUfDVIYGBgiwNv8zBLs+ZL4QMCAi77hpQ+n4/GxkYCAgKu6KDe/Lxut7vNO1e3xeFwtBoGbL5C6nJ/BqG5APancgD5T/cNVVWx2+0t7gzdPEx1Kc3Ft9/sgbTZbFpNX/PyzGbztx7IfT4fZWVlGI3Gyw74DQ0NWuH69+1iPVPNKisrcTqdxMbGXnT/drlc2hDghXdBv5SmpiYURWlVEP5NDQ0NGI3G7/07QYj26L829DRzOBzyZSGEEEKI//7QI4QQQggBcHV+UEsIIYQQ4gcmoUcIIYQQ7YKEHiGEEEK0CxJ6hBBCCNEuSOgRQgghRLsgoUcIIYQQ7YKEHiGEEEK0CxJ6hBBCCNEuSOgRQgghRLsgoUcIIYQQ7YKEHiGEEEK0CxJ6hBBCCNEuSOgRQgghRLsgoUcIIYQQ7cIPHnqcTid1dXXf2/Lq6+ux2+3f2/KEEEII8d/hBw89586d4y9/+QuffPKJNq2hoYGsrCzOnTunTdu/fz9LlizRAo2qqtjtdlwuF263G4/Hg9frZc+ePfzpT38iPz//qr+Wq8HhcLB//36Kiop+6FURQgghflIMV+uJvF4vWVlZlJaW4ufnh16vx2AwMGbMGNLS0lqEFJ1Ox9q1a8nPz+fmm2/G5/Nx8uRJVq5cyeDBg4mPj8ftdjNnzhzKy8sJDg6mvr4eq9XKAw88wKZNmygvL6dnz55X6+UBUFpaitvtpmvXrlc0v8fj4ciRI3Tp0oWAgIA22zidTj788ENCQ0N56qmn/pPVFUIIIdqVq9bTo9Odf6r6+no8Hg/5+fm8//77eDweQkNDMZlMWtuAgAB69OjB7t27WbJkCUuXLmX37t34+/tryzEajYwdO5apU6cyceJECgsLURSF8PBwgoKC2LVrF2vXrqWiokJbblNTE8XFxbjd7jbXsa1hMafTic/n0/594f+7XK4WbTdv3sy6deu+dblerxc431vV/P8ANpuN999/v8U6f1NwcDBDhw7VtkNbr8XpdLZY7oXP1/x34esQQggh2oP/qKdn7969lJWVkZ6eTseOHS/ZVlEUrr/+eq6//noAZs6cyfjx4wkPD8fpdLZqX19fT69evbjjjjvQ6/UcPXqUBQsW4PF4tOUlJyfjcrl49dVX6d27Nw899BCKouB2u2lsbKS6uhpVVbVl5uTkMH/+fJ5//nliYmK06UeOHGHp0qXYbDZCQkL4xS9+QXR0NIsWLaKgoABFUbjxxhvJzMzko48+4ujRo8TExHDixAn69u3LnXfeSXZ2Njt27MDn8zF37lzGjx9PcHAwCxYsoLCwkJCQEO655x48Hg/vvvsuISEhuFwuqquruffee+nSpQuffPIJxcXFfPjhhwwaNIixY8eiKEqrbWM2myktLeX111+nvLyc/v37M3XqVDweD4sXL+bQoUPodDpuuOEGrr32WhYvXkxOTg533HEHNTU1rFu3jttvv52MjIwret+FEEKIn6Ir7unZtm0b06dP5/nnn+eFF16gpqbmsud97733OHPmDHfeeSdAi2DSbODAgdjtdt58801mzJjBtm3b6NmzJ1FRUcD5Hpf9+/czffp09Ho9f/zjHwkMDNSWN378eO666y46dOigLTMlJYXf/OY3hIWFadPq6up48803CQsLY9q0aVRUVJCXl8fq1av5+uuv+dnPfkZGRgZvv/02x48fJykpid27dwMwbtw4Pv/8c/bt20dERASRkZGEhYVpw1Mffvgh5eXl3HvvvQQEBDB79mwiIiLQ6/Xs3LmT9PR0IiMjWbBgAYqiEBcXR1BQEF26dCEmJob6+no2btzIqlWrWLVqFRs3bsThcGAwGKioqCApKYkJEyawbt06Dh48yPr169m2bRu33XYbgwcP5p133uHw4cNkZGRQXl5OcXExhYWFBAQEkJiY+N3fdCGEEOIn7Ip7evbu3cuZM2cICAjg4MGDlJaWEhoaesl5VFVl/vz57N69m+nTp2O1WrXHmodrcnJyqK+vJzAwkAkTJrB9+3ZOnjzJsGHDMJvN7Ny5Ez8/P3w+H8uWLWPcuHEMHz4cm82G0WikoaGBuLi4NnueIiIiiIiIaDHt6NGjuFwu7rnnHvz9/Zk+fTper5eXX36ZiRMn0r9/f/r3709ubi579uxh6NChpKSkMG3aNKxWK59//rnW25KUlITNZmPUqFHY7XZ2795Nx44d2b9/P263m4qKChRFITY2ltjYWMaMGUNISAjz5s3DbDYzfPhwNm/ezIgRI+jSpQs1NTVUVVVpw2PNdT5Op5P+/fszfvx4AHbv3s2+ffsoLi7m5ptvJj09HYDc3Fx27NjB/fffz4wZM3jyySfp3r07zz//fIvhRCGEEKI9uOLQk5aWxrp166ipqWHgwIHExsZesn1TUxNvvfUWJSUlTJ8+nc6dO7fZrry8nI0bNxIbG6uForS0NPbt24eqqjQ2NhIeHs4tt9xCv379sNvt2O12Xn/9dSZPnozT6dQO/t9UVFTEzp07ufHGG7VlK4rSosYlPDwcQLsarJnP58NgOL+59Hq91jtlNBq1AOFwOLTl6HQ69Ho98fHxJCcn0717d2655RbMZjMejwc/Pz9t2WazGUVRcDqduN1ubRmhoaFMmzat1etwu91aSGz+d3MQbB7+g/O1PHq9Xltns9mMw+HA5XJJ6BFCCNHuXHHoGTFiBAEBAZSXl5Oent5iyKgtHo+HpKQk7r77biIjI1s93nygnzBhAmlpaXzyyScMHDhQ67VoS1JSEq+//joVFRWcOnUKm81GWFgYBw4caLMoubKykr179zJmzJgWyzCbzbz77ruMHj2a3bt3k5GRQWZmJitXriQ8PJzi4mJKSkq47777OHnyJKWlpVRWVqLT6SgrK+PUqVOoqkpYWBjbtm1j1apVhIeHk5GRQWFhIUOGDKGoqIjy8nJiY2M5deoUfn5+OJ1OysvLKSsro6KiguDgYFRV5fPPP8dqtXLttdcSFxfX6nXo9Xr27t3Lli1bsNvtnDhxgjvuuAOLxcKKFSuIjo6mvLycwsJCpk6dyqFDh3jjjTf41a9+xa5du5gxYwZ/+tOf2nwfhBBCiP9W+mefffbZK5mxuQYlJSWF4ODgb23v5+dHjx492rwU+/Dhw5w5c4Zhw4YBYLVaycrKoqKigsGDB+Pz+VBVFY/Hg8/n03ovzpw5Q15eHhkZGVRWVhIfH88XX3xBdXU1iqKQmpqqtQW0IaXm2h8438uSlJTEwYMHycnJwd/fn2uuuYaMjAxsNhvbtm2jrq6Ou+66ix49epCTk4PH46Fjx474fD5Onz6N1WolNTWV2NhYjh8/TmFhIf3792f06NGUlZWxbds2zp07x8CBAzEYDBw9epTAwEASEhIoLi7G5/MRGRlJly5dsFgsfPXVVwQEBJCent6iR6iZqqqYzWby8/M5efIkt912G7179yYxMRGPx8PWrVupqalh2rRp9OzZk88++wyPx8MNN9yA1+uluLiY0NBQunTp8p3fdyGEEOKnSlHbqiK+ypYsWcKJEyf405/+pE1bvXo1K1eupHv37lovUFNTEwMHDuSWW24B4ODBg8yaNYtrrrmGgwcPYrPZ6Nu3L5MmTeKFF17g5ptv1q4Wuxxutxuj0dhimsfj0Ya1rlRby72UC4elLkVV1Tav7vrmOnu9Xm04rHmeC8OjEEII0R78KEJPQUEBTU1NLYay7HY7JSUl2O127YDt9XqJjo7W6oecTie5ubnU1NRgsVjwer3069eP4OBgiouLtZoaIYQQQogfRegRQgghhPj/7Qf/7S0hhBBCiKtBQo8QQggh2gUJPUIIIYRoFyT0CCGEEKJdkNAjhBBCiHZBQo8QQggh2gUJPUIIIYRoFyT0CCGEEKJd+MFDz7lz5zh69CgOh6PNx71eL263+yqvlRBCCCH+21z10FNfX8/XX3/NmTNnAKitreW1115j1apVbbZvamrib3/7G5s2bfpOz+Pz+aivr2/xa+vN0+rr63E6nVf+IoQQQgjxk3PVQ4/ZbGb58uXMnz8fgISEBPr160dtbW2b7U+fPk1WVhYFBQXf6XlcLhdz587loYce4sCBAwA0NjYye/ZsnnzySY4fP/6fvRAhhBBC/KRc9dDjcrk4ffo0VqtVm2Y2mzlx4gTr16+nqKhIm56VlcWbb77JlClTqKio4P333+fcuXOtltnY2MiOHTtaPGY2m0lLS+Pw4cO8++67NDU1ERQURJcuXfDz86N79+7A+V8kLy4ubnO5QgghhPjvccWhx+VysWrVKmbNmqX1pHwbn8/HW2+9RXBwMMeOHWPPnj0AKIrCuXPnOHHihFa/M3fuXDZv3sz48eOJjY1lypQpnD59mpdffpn6+voWy62oqGDu3LkUFxdr0xRFwWQyMWLECKxWKx999BGKohAcHExISAgmk4nS0lJmzpzJ7NmzeeaZZ1i3bt2Vbg4hhBBC/Mjpn3322WevZMY1a9bw97//nezsbA4fPsyQIUMICgq6aPvGxkbefPNNzp07x/PPP09gYCBvv/02ycnJVFZWEhUVxYMPPojRaOTo0aNUVlYybtw44uLi+Oc//0nnzp258cYbMZvNAJhMJvz8/AAICgpi6NChdO7cGb1erz3niRMnqKys5N5772XBggX07NkTu93OqVOnyMzM5M0338RoNPLII48QFhbGggULSElJITIy8ko2iRBCCCF+xAxXOmNRURF2ux2LxUJZWRnnzp2jQ4cOF21fUFBAU1MTjz32GBaLheHDh1NXV4fP50NRFIxGIwAnT55kzpw5xMTE0NjYiMfjIT4+npycHE6cOIHX6yUrK4spU6YwcOBAAIxGY5tBRVEUHA4HnTp14sYbb+SDDz4gIyMDPz8/amtrOX36NA8++CAhISGMGDGCtWvXcvToUVJSUq50swghhBDiR+qKQ8+wYcP46quvqKioYNiwYXTu3PmS7fv27Uv//v3R6/VUVVXx4YcfUldXx549ewgODmby5MkA9OrVi8cff5wdO3Zw5swZgoODCQ8Px+fz4XA46NWrF//zP//ToleprKyMBQsWMGnSJJKTk//vxRkMKIoCwMSJEzl06BAfffQRQ4cOxWw2o6oqVVVVANjtdhoaGi7ZWyWEEEKIn64rDj0DBgzg1Vdfpbq6msTERAIDAy/Z3mQyAefreubOnYvP5+O+++6jvLychQsX0tDQAJzvnYmNjaVr165UVVXh5+eHoijo9Xr27duHzWYjMzOz9QsxGFoMbbndbnJycjh27BhlZWXExsZyzz33cN9993H27FkCAwMZOXIkixYtorq6mvz8fIKDg0lPT7/STSKEEEKIH7ErDj0A8fHxxMfHf6d5vF4vVVVVWg1OfHw8CxcupKSkhD59+mjtMjIyyMjIaDGv0+nk1KlTrZYZGxvLY4891mKa2+2mU6dOhIaGasXRXbp04S9/+QsejweAn/3sZ4SEhJCXl0dCQgLjxo1rcVWZEEIIIf57KKqqqlf7Sbdv386iRYtITEykuroag8HAH/7wB0JCQi4536effkpjYyN33333VVpTIYQQQvy3+EFCD5y/sqqgoACr1Up6ejoWi+Vb56mpqUGn0xEcHHwV1lAIIYQQ/01+sNAjhBBCCHE1/eA/OCqEEEIIcTVI6BFCCCFEuyChRwghhBDtgoQeIYQQQrQLEnqEEEII0S5I6BFCCCFEuyChRwghhBDtgoQeIYQQQrQLP2joaf5NrLy8PL766itcLtdF29psNrZs2cKxY8cu2sbr9QJQUFDAjh07cDgcF23r8/n46quv2LdvnzZfWzweD9u3b+fAgQPIfRyFEEKIn64fJPQ0h52tW7cyb948KisrmT179iUDjU6nY//+/fzjH//A6XS22ebUqVPMmjWLnJwc3n33XQ4ePNjicZvNps2r0+morKzk1Vdfpby8XGtjt9vZsGED+fn5wPlfb6+oqOCNN96gurr6W1+bw+EgPz+f0tJSbVpTUxP5+fnk5+djt9u/dRlCCCGE+P79R7+y/l3l5eWxZMkSmpqaGDVqFElJSSxbtozhw4eTkJCA2+3GZrMxZ84c0tLSGD58uDavn58fo0eP5v3330dRFIqLi5k7dy5GoxFFUdDpdNx+++1UVFQQGxtLYmKiFjA8Hg+LFy8mNzcXRVEYNGgQt956K9dddx2bN29u0cNkNpvJzs4mKyuLp59+msrKSqKiojAajVpYuxSbzcYHH3zAsWPH+Otf/0pKSgp1dXXMnj0bgBkzZuDv7/89b1khhBBCfJur1tNTU1PD22+/Tffu3Zk0aRKrVq3ixIkTxMbGnl8R3flV8ff3x+l0sn379lbLcDqdWrvw8HDKyspITEzkhhtuoLi4GJvNRnx8PD6fD1VVtbarVq1i+/btTJs2jcmTJ7NmzRq2b9+uhSVFUVo8R3FxMampqSiKwrp169i4cSMejweDoWVGrK6uZuHChZSUlGjTwsLCGDJkCDU1NcydOxebzUbHjh1JTU2ld+/eREdHA1BVVcWWLVvIzc39HreyEEIIIS7mikNPbW0ts2bN4n//93/ZuHEjPp/vku2LiopQVZWpU6cyZMgQ+vfvT05ODnV1daxYsYLS0lIMBgOKotChQwfMZnOrZZhMJhRFQVVV/Pz8iIyMZMCAAaSnp2O1Wvnggw/Izs7W5m0OPTk5OYwbN44+ffpwzTXXkJmZyb59+7THL7Rw4UIaGxspLCzUfgXeZDIBtKrpaWpqIicnh9ra2hbTVVVlwoQJGAwGlixZApwfJjMajQAcOnSI5557jqysLN5++23eeeedS9YVCSGEEOI/d8WhZ/Xq1Xz44Yds376dN998k5MnT16yvZ+fHw6Hg5qaGgDOnj2L1WpFURT0ej3wf6HC7XZr0+B80XFDQwOFhYV4vV4t+Hi9Xm0evV5PamoqkZGRWoBofsxisbSosSkvLyc4OFhr07y8Tz/9lOzsbN544w369u3L3//+d4KCgujduzcGg6FVsOvUqROvvvoqffv2bTHd7XYTGBjIL3/5S7Zt28aJEyewWCxaj9KiRYtITU3l+eef57HHHmP79u3s3bv3O2x9IYQQQnxXV1zT09jYiNfrxWw209TUdNHi4maJiYkkJibyyiuvEBUVxdmzZ5kwYQJnzpxh0qRJ1NTUaDUzZrOZgwcPMm/ePJqamrDZbHg8HsrKytDpdFoPjdvtZv369eTn51NVVcUDDzyA3W7XltMcem666Sb+8Y9/8MYbb+B0OqmsrOT+++/XanmMRiNnzpxhz549PPjgg0RHRzNp0iTq6+vp27cvERERbNu2rc3eLIfDgclkatFrpCgKdrudrl27anVI8fHxWK1W7HY7tbW13H777QB069aNuLg4Tp06xcCBA6/07RBCCCHEt7jinp7x48dz7bXXEhMTw89//nO6dOlyyfYmk4nf/e53ZGZm8v/Yu+/4qMq8//+vM30y6Z0E0kmAhCYEEKSjqOiigKCiru6u67rqbUXvta0/v+uq3GtfXV0bRQVFEKQpWOggoUMCoadBeq8zc+b8/sg9505IQlFA3Xyej0ce4pkz17nONae8z3WuMxMZGckjjzxCXFwcDQ0NeqjxGjlyJGPGjMFsNpOQkMDo0aP5wx/+wPTp0zGZTLhcLkwmE1OmTMHhcFBeXs7VV19NZGQkjY2NrcboAPTp04fHH3+cLl26kJiYyFNPPUVUVJQejlwuF8HBwTz55JPExcXx8ssvs3HjRm6//Xa6d+9OSUkJHo9Hv83llZOTw4wZM9i1a1eb9fUGrilTpgCwcOFCDAYDFosFq9XKvn37gOaxPUVFRfpYHyGEEEJcGD+6pycuLo4XXniBuro6QkNDz+o9DoeDa6+9Vv//kpKSdufr2rUrt956a5vpubm5aJqmB4rLLruMyy67rNU8LcNTS/Hx8cTHx7f7mqZpmEwm/Pz8cLlcVFdXs23bNoYNGwZAdHQ0t956K0FBQa3e5+fnx6WXXkpYWJg+raKigi1btlBfX095eTnBwcH89re/5YcffsDpdGI0Grn++uuZPXs2RUVF5OXlkZycTHp6ert1E0IIIcT58ZMeWbfb7T/p8WuPx4PL5UJRlA7DSktut/uMA36dTmeb8T4d0TStzS0rs9lMVFQUx48f58CBA/ryLBYLJSUlREZG6vMGBwdz8803t3q/wWDg+uuvx2w26097paSk8Oabb+Lr6wvAiBEjCA8PJzMzk379+jF06NA2vUhCCCGEKMZwKgAAIABJREFUOL8u6vf0nMpisdCvXz/8/Pzw9/c/Y4AymUyEhoa2GuR8quTkZGJiYsjJydFDxukEBwfj4+PTatoll1xCbm4uCxYsQFEUPB4PTqeTyZMntwo97QkICGD48OFtpvfo0aPN/586TQghhBAXjqL9An5bwePxUFRURHBwcLuPqnvV1dVRU1NDREREm3E7LWmaRmFhIUFBQdhstg7nc7lclJSUEBER0W6Qatk0p1ueEEIIIX75fhGhRwghhBDiQpNfWRdCCCFEpyChRwghhBCdgoQeIYQQQnQKEnqEEEII0SlI6BFCCCFEpyChRwghhBCdgoQeIYQQQnQKEnqEEEII0Sn87KGnvLycOXPmkJGRcdr5cnNzmTNnDgcPHrxINbv4nE7nWf0GmRBCCCHO3UX77a3a2lqcTifBwcEAbNu2jZKSEkaOHElFRQXz588nPT2dhoYGNm7ciMvl0n9CIjw8nOjoaPbv309xcTGPPPLIWS/3wIED7Nq1C2j+vat+/foBkJ+fzw8//ABA7969SU5OBmDfvn1kZmbi4+PDgAEDiIqK0suqrKxk586dOJ1O4uPj9fecDwUFBfzzn/+kf//+TJ06tc3rGRkZHD16lPj4eAYNGnTeliuEEEJ0FhetpycvL48nnniCo0ePAs0/Hjpv3jxUVWXYsGFYrVY0TUNRFI4dO0ZWVhbZ2dk8//zzbN++ncDAQAYNGnTGX05vaenSpcycOZOjR49SUFDAq6++yqJFi8jPz2fmzJkcOHCA7Oxsnn32WfLz89m4cSNvvPEGeXl5rFu3jpkzZ9LQ0KCX5/F4WLp0KXPnzqW2tva8tk9wcDB2u53Dhw+3ee3TTz/lrbfeIj8/nw8//JDPP//8vC5bCCGE6Ax+Uk+P0+mkvr6ewMDAM84bFxeHyWTi66+/5pJLLuHEiRPYbDYqKiooKyvTf83cZrNx5513AjBr1iz69etHr169mDNnDjt37iQhIaFN2XPmzMFqtTJt2jR92v79+5k3bx7/9V//xZAhQ4DmEFRQUMC6deswm8088cQTACxevBiLxcLy5cvp27cvf/7zn6mtrWXVqlWtfmg0ODiY/v37U1hYyCWXXNKmHhs2bODo0aOkpaXRv39/tmzZQmlpKX379iUoKIhNmzZhs9kYOXIkx44dY9OmTQQGBjJ27FjsdjsxMTGUlpa2KbexsZFbbrmFsWPHMn/+fDZs2MDkyZPlR1CFEEKIc/CjQ09OTg6vv/46ubm5XHnlldx2222YzeYO5zcYDNhsNg4dOgRAWVkZZWVlvPvuuxQVFREaGtrqJD5//nyWLFlCamoqiqLg4+ODpmnt9vRYLJY2v6a+fv16kpOT9cADMH78eFRVZd++fSxdupTZs2dzxRVXcN111wHNt7mWL19OQkICQ4cOZdKkSW2WpWkaHo+nzbS5c+eyb98+unfvzqxZs6iqqqK6upp3332X5557jrCwMD777DMGDx5MSEgIH3zwASkpKRw4cICDBw9y//33tynXa/r06bhcLjZu3MgPP/zAuHHjJPAIIYQQ5+hH395auXIla9asIS8vj3nz5nHs2LHTzq+qKh6Ph1tvvZW7776bP/7xj0RGRnL99ddz+eWXoygKiqJQXV3Na6+9xo4dO3jjjTdITU3lww8/5LLLLmPEiBE4nc42Zd94441MnDix1bTKykqCgoJaTbNYLNjtdtLT03n44YfJzMzk8ccfZ/bs2TQ1NXHjjTdy0003sWzZMh5++GFWrVp1Vm1RVlbGt99+yyWXXMLYsWOJjIxk+fLlTJgwgaSkJBobG2lqaiI4OJipU6eyevVqbDYb48aNY+jQoWzcuJETJ05gMrWfQU0mE06nk2+++Ybc3FzCwsLOql5CCCGE+D8/uqfHZrOhKAputxuLxXLaXh4Ao9GI2+3myy+/JCcnh7y8PKqrq+nZsydOp5Ndu3ahKAqZmZlomsZ9991HWFgYN910E2azmdLSUpxOZ7s9HCUlJQCtwkB0dDTbtm1rty4ul4uBAwcycOBAdu/ezcyZMwkODmbChAlMmDCB8ePHs2rVKmbNmkVsbCwpKSn6ew0GQ6s6NDY2UlJSgqZp5OfnU1dXR2BgIP369cNkMtGvXz82bdpEWVkZUVFRBAYGUlZWRl1dHWvXrsXpdHLttdficDj0MU0teXu3AgICePrpp/nqq6/45JNPSEtLw+FwnPmDEkIIIQTwE0LPtddeS0lJCcePH+fKK68kJibmtPNbrVZuvvlmsrKyqK6uxs/Pj5tuugmLxaIPFvZ4PKSnp3PppZeyefNmXn75Ze6//36mTJkCND/x5e/v36bsd999F7vdzoMPPqhPGzlyJCtWrGDevHlMmjQJg8HAvn37qK+vp6ioiPr6eqZPn05qairh4eFUV1cza9Ys4uLiGDNmDP379+fTTz9tNWBZ0zQaGhpoamqisbERTdP46KOP6NKlC2FhYfTp04fLL7+c3Nxc/VbV8OHDee6559i/fz933XUXAF26dMHHx4fbb7+duro6cnNzCQoKoqGhAafT2Sr8qKrKO++8w4gRI0hLS8PtdtPU1PRjPzYhhBCi0/rRoSckJIQZM2agqipGo/Gs3jN48GAGDx7cZro3IGiapt/i6d69OzU1NVRUVBAXFwfAxIkT2+3puf7669v0NHXt2pX77ruPDz74gG3btmGz2SgpKWHatGn4+Pjw6aefkp2dTXV1NT4+Plx++eUsWLCA9957j7Vr11JYWEjfvn1JTU3Vy8zPz2fv3r1UV1fz6quv4na7yczM5N5772XSpEnMnTuXNWvWUFNTw6RJk4iPjychIYHo6GhKSkpIS0sD4LrrruPVV1/lscceQ1VVUlJSCA8P58iRI1RVVZGXl6eHSKPRSENDA6+++irR0dEUFhYydepU6eURQgghzpGincsz4BfIqlWr+Pbbb3n++ecxGJqHGdXV1fHII4/Qs2dPevbsiaqqqKqKyWRixIgR2O32syq7rKyMAwcO4Ha7iY+PJyYmBrfbzbFjxygoKMBqtZKWloafnx/19fUcOXKE0tJSAgMDSUtLaxWmamtrOXnyJIqi6D0yVquV6Oho7HY7eXl5nDhxgsjISGJjY1vVweVyERkZqU+rrq7m4MGDWK1Wff3y8/PxeDxERkbi5+enz+t0Ojlw4ABVVVXExMS0KlsIIYQQZ+cXEXq2bt1KZmYmd9xxR6vpq1at4sCBA3rwcLlchIaGcv3115916BFCCCGEgF9I6HG73Xg8HiwWy89dFSGEEEL8h/pFhB4hhBBCiAvtZ//BUSGEEEKIi0FCjxBCCCE6BQk9QgghhOgUJPQIIYQQolOQ0COEEEKITkFCjxBCCCE6BQk9QgghhOgUJPQIIYQQolOQ0COEEEKITkFCjxBCCCE6BQk9QgghhOgUJPQIIYQQolOQ0COEEEKITkFCjxBCCCE6BQk9QgghhOgUJPQIIYQQolOQ0COEEEKITkFCjxBCCCE6BQk9QgghhOgUJPQIIYQQolOQ0COEEEKITkFCjxBCCCE6BQk9QgghhOgUJPQIIYQQolMwne7FojqN+VkuPIDbA8lBBi6PN6J6QLtIFRRCCCGEOBca4DArmE7p2jlt6DlR6+Fvm5pweaBRheu7mxja1UCjW0KPEEIIIX55NEABrMZzDD1GBfzMCi4PmA0aNhMYlOY/CT1CCCGE+KXxhp72nHFMj6K0+Du/9RJCCCGEuGhkILMQQgghOgUJPUIIIYToFCT0CCGEEKJTkNAjhBBCiE5BQo8QQgghOgUJPUIIIYToFCT0CCGEEKJTkNAjhBBCiE5BQo8QQgghOoWfJfQoioKieL/fWQGUU6Z1/D4vq9WAj8OAwWCQ38QQQgghxBmd9re3LhSzRcFsBk07JeRo0NiooKoeFIOCxaLg8YDb5QHAYmmeVlXl4puVq7Da7PQdMAi73YrH8zOsiBBCCCF+NS5q6DEaDTQ2NrD40wWUFhdiMJrQtOZuGlVV8fHx4aqJk+kSHUl9vYuC3HwCg0LwDwzAo3pYNG8+BqOB8ddcR21NFa8+/wxPPPcSl40eRn2dpB4hhBBCdOyi3t7SNA0fh5WykmJWL1+CxWLG19eBn78vqupi2aLPOFmQi9WqoGluZv3rdd566XksZgj1NYACn815H03TmHbLNLpERVNXV8sZ7ooJIYQQQlzcnh6PR8NuMRCflERSj1T+/OB92GlOXrnldRzYuxePR0VVISDQh8HDRvLv1//B//x/z2J32Ck6cQKAb1Z+idVmo7a6BrPZfDFXQQghhBC/Uhd3TM//dsmoqocTebl8tWwVNpsPikGhuPAEFeWlKIoBRQFNA6PJiK9/ALGJ8fjZ7aDBvl072LppA2azhfqGWowGI5oMZBZCCCHEGVzE0KNgsynYFOg7YCA7M7aw9ptVGI1GANxuN5cMupS4xCSsBlCBxoYGzGYzffpfQqB/AI1uDR+Hg/v/+2n8AwO5+5YpuN0uub0lhBBCiDO6KKHHYFRwOV0sW7SCyvJyfP386N0/Hbfbhc1qw4OGs8mJyWTi+6+/pra2mhFjLicltQ8BASuY+957WKxWyoqLSO6Zht3uQNMgPDwCf/9AVBnDLIQQQogzuCihR9PAZDZQX1vL+m9XEZeUhJ+fP40NdezM2IrFaiWtT1/cqoempkbqamtJ7dOfS0cM4e9vvMnOjO2gQe/+fXE4HNh9zKz88issNjvhXaJQ3RdjLYQQQgjxa3ZxQo9HQ1GMTL3tFsZeeTVbN20iMqoLAwZdwjOPPUZAYBCPPvkXGpzN3zOoKOB2azTUawQG+VJaXMSiT2bz5PMv0S22G43ldRhNJg5m7aO8rISY+ChczouxJkIIIYT4tbpoY3o0TcPlUggI9Ofg/j3Mm/0u//roE3z9/AgODUdT0Acwu13N/9U0DbdLoe+AwXzy4Tu8/NwzBAaHgqbhbGpEVd1n/BZnIYQQQgi4yE9vuV0e/PxNDBp2GVvWr6OirIyrrrsBq9VGRWUDTY1ONI+Gj6/f/4UZBZoaG7FabUy++TYSuqegaRrFJ0/yr1dewO1yXcxVEEIIIcSv1EUNPYrS3IsTHBKOzWZj5l+fxj8wCFV143K6qKutoWdab+78r4cxGs2o/ztC2WqzoLrdfLdyOXt3bkPToLqykoa6OkzyPT1CCCGEOAuKpnX8LTd7ilWuX9iAywONqsY1iSb+Z4yVRvdP+Y3P5h6ck/nHKS0p+t/HzZuneTwqgUGhxCQkoaCgaRoGg4LL5WTPjq0UnyxAUZq/RFpDIyAwmL4DL8XX14Gqypf1CCGEEJ2dRnOqCLUbsJ3StfMz/OCohqIoxCXGk5Ac3+ZVVQVnkwftf2OVx6NhMlm4bPRwjErrsKUB9fWguj3e3CSEEEII0a6f5VfWNU2jqense2Y0TaOu9jTzS+ARQgghxBlc1B8cFUIIIYT4uUjoEUIIIUSnIKFHCCGEEJ2ChB4hhBBCdAoSeoQQQgjRKUjoEUIIIUSnIKFHCCGEEJ2ChB4hhBBCdAoSeoQQQgjRKUjoEUIIIUSncNqfoVA1qGrScHmgwa1R59LQNPBoP+UHR4UQQgghLgzvD462l1NOG3oiHQYeGmzB4wG3B3qFGvAxK5iNF6SeQgghhBA/mQaY2rmXpWiaJp02QgghhPiPJ2N6hBBCCNEpSOgRQgghRKcgoUcIIYQQnYKEHiGEEEJ0ChJ6hBBCCNEpSOgRQgghRKcgoUcIIYQQnYKEHiGEEEJ0ChJ6hBBCCNEpSOgRQgghRKcgoUcIIYQQnYKEHiGEEEJ0ChJ6hBBCCNEpmE73oqZpeDyei1UXIYQQQoifRNM0AIxGI4qitHrttKHH5XJRUFBw4WomhBBCCHEeaZqGoihERETg4+PT6rXThh6DwYCfn98FrZwQQgghxPlmMrWNOIrm7Qdqh9zeEkIIIcSvkcFgOLfbW4CEHiGEEEL86iiK0ib0yNNbQgghhOgUJPQIIYQQolOQ0COEEEKITkFCjxBCCCE6BQk9QgghhOgUzkvoMRgMmM3mNqOkL5ZzXb6iKJjNZoxG4wWu2YXR3oj0C12O2WzGbDb/5GWezXLa+26Fi1Efk8n0qyjzfCznXOfvaB8zGNo/hHjn7+j1lryf5fmoz5mWc6Z9/kIcG9or73ztw0KIc/OTQ4/BYKCuro69e/fS1NR00Xdk7/J37dpFY2PjGQ+yiqLgcrnYtWsXVVVVv8rg0953D/wYZ3vgNRgMHD58mNzc3AvWXt667Nu3j8LCwtMux1ufnJyc81Yfo9FISUkJmZmZ+rd5nq8y9+/ff97K7Gg5BQUFZGVlndVnajAYKCoqYu/evQBnNX9VVRU7d+7E5XLp+1hHyzIYDNTX17Nr1y7q6+s7LF9RFDRNY9OmTaxcuZJDhw6d1bZtMBiorKxk165duFyuM86vKAqqqrJnzx7Ky8s73Ga8x4Z9+/adl2ODoih4PB727NlDWVlZq/Ik8Ajx8/jJocdoNHLixAn++c9/0tDQ0OYK0mg06ldxRqMRTdPazHM2V/ctyzm1/Pr6ehYvXkxVVZV+QG45b8srTpPJhKIoLFmyhJMnT+oH2VPn72i5LUOVd9q59pa0vPLzXrGeutz26uOdd+nSpWzbtq1Vu526Dh2V4z1Rmc1mVq9ezdq1a0/b/oqiYDQaWbhwIatXr25zhX3qcr3TW66j9/M+XTt5P4f58+eze/fuDsOrtz4LFixgzZo17V7xt1ef9tqi5bZiMBjIysri3//+N263G6PRqNf71Cv1U8vp6ORoMBjYu3cvH374ISaTCZPJ1GreluWfut22bNszBXmDwcDWrVtZuHBhu781cyqj0UheXh4rVqzQw9ip2+Gp+0BFRQWLFy/WLyzMZjM1NTXMmTOH+vr6Vm1tNBppbGxk8eLFVFZW6uvcsuyW29uJEydYsGCBXv8zMRqN5Obm8uGHH9LY2HjGY4e33ZcvX05eXl6HxwiTyUR9fT1vvfUW+fn5+np6dbSPdXT88H7mK1euJCcnB4PBoB9PlixZwu7du3/VPc5C/Bqd+T7CWfAeNI8ePUp2djYpKSmEhobi8XhwOp3s3bsXt9tNnz59cDgcnDx5EqfTSWxsLAA5OTmYzWYiIiLa/TJEg8GA2+0mMzOT8vJyunXrRnx8PAaDgZKSEvLy8pgwYQKBgYF4PB48Hg9ZWVnU1dVhsViwWq106dIFPz8/ysvLOX78OOPHjycqKgqPx4Pb7aawsBBN08jNzaVbt25069YNTdNwOp3s3r0bHx8fgoKC8PX1xc/PD03TOHHiBPX19XTt2hWTycRpvtwas9lMaWkp+/fvx2w207NnT72cPXv2UFlZSVpaGsHBwTidTv03z/Ly8ggKCiIlJYX6+nqOHDnCN998Q7du3bDZbERGRhIaGorRaOTw4cPk5eWRlJREt27dcLvdnDhxAkVRyM/Px2azkZqaisvl4tChQ3z77bfYbDaCg4MJCwsjMjKywy+jNBqNNDQ0sHPnTkwmE6mpqXg8HkwmEzk5ORw9epTY2FgSEhJoamri4MGDREdH43A4qK2t5cSJE8TExGA2m8/LF14ajUbq6urYsWMHVquVnj176vUpLi5m//79hIaG6tMBTp48iclkoqCggJqaGvr06UNAQADHjh2juLi41dW4oijU1NSwd+9ezGYzffv2xWQy4fF4KCoq0ntLysrKSEtL07e9U3l7M/bu3UtDQwNpaWk4HA4URaGyspJ9+/bh4+NDnz59MJlMHD9+XP9cPR4Phw4dIjg4uMPyz5XBYCAnJwdVVbnqqqv0ANDQ0EBlZSUul4v8/HxSUlIIDw/Xt6HS0lImTpyI3W5H0zRKSkrIyMhg1apVREREEBsbS2xsLHa7neLiYnJzc7n66qsJDg7G4/GgKAo5OTkcO3ZM3w79/PxwuVxMmTIFt9vNoUOHzmldzraXsrKykmPHjjFq1ChiY2P1Y0RBQYG+z0dGRpKQkAA0b1tlZWVs3bqV8PBwYmNjUVUVo9FIVlYWxcXF9OjRg8jISNxuNy6Xi6KiIkwmEwcPHsTPz4+0tDRqamo4cuQII0aMID4+Hk3TaGho4MiRI6xevZrk5GRMJpO+D8sXwQpx4Z2X0GM2m6moqGDevHlYrVYWLVrEX/7yFwICAnjttdfIz8/HbDbz1Vdf8dhjj1FTU8Mrr7zCI488gsFg4IUXXuCee+4hKiqq3aset9vN+++/z4EDB4iIiGDbtm3cddddBAYGkp+fz6JFi6itreXJJ5/E4XDQ2NjI5s2bKS0tpaamhj179vD3v/+dtLQ0ioqKWLp0Kfn5+cyYMYPAwEDq6+t54YUXsNvtejh58skniY6O5p///CdHjx4lNDSU7Oxs7rnnHkaMGAHAe++9xw8//MCsWbMICwvD5XJ12D779+/njTfeICgoCKfTyahRo5gwYQKzZs1iy5YtBAQEsHjxYmbMmEFERATvvPMOZWVlREREcPjwYR5++GHi4uJYs2YNZWVleDweVq1axejRo4mIiGDZsmV88803REREsHjxYm6//Xb69+/Pxx9/zKFDh4iNjWX//v384Q9/4NJLL2X9+vUUFRVhsVj4+uuvGTJkCNHR0R1edVosFtauXaufQCZOnMhvfvMbtmzZwgcffEBERARFRUXcdtttXHbZZSxduhSTycQ999zDO++8g9Fo5N577z3jtnS2t+4sFgvff/+9HmKvvfZaJk6cyNGjR3nppZcICAigtLSUcePGMXXqVAA+/fRT9u/fT0hICHV1ddhsNqxWK2+88QbdunXj8OHDhIaGYrFYKC8v57XXXkNRFBoaGtiyZQt33XUXFouFZcuWsWXLFkJDQ2loaKCxsZHx48e323Y2m43Dhw8zf/586urqiIiI4LHHHqO6upoXX3wRTdP0AHbXXXdx9OhRlixZwnPPPcf27dtZuHAhf/nLXzAYDKc9KXovPE7HO09WVhbLli2jS5cu9OrVC6PRSFFREX//+9+JioqipqYGk8nEU089RUBAAEeOHOGLL77AZDLxxBNPYLPZOH78OJs2baKpqYlNmzaRk5PD5MmTcTgc5OXlsXDhQqqrq/V9sqKigo8//hhN03C5XHz11Vfcd999BAUFAbS6bXY2zmZ9oXl7qqioYPny5Rw/fpz777+f4OBgVFXllVdewe124+fnR0FBAY8//jjR0dGoqsqSJUtwOBwUFRXxxBNPEBcXx7x588jIyCA0NJQvv/ySu+66i5SUFKqrq5k5cyaKomCxWLBYLERFRaGqKitWrODIkSPcd999hISEUF1dzffff09FRQVHjx7F4/EwevRowsPDJfQIcRGcl9Dj8XjQNI1JkyYxaNAgHn30UdavX098fDz79u3jxRdfxG638+CDD7JhwwauuOIKxo0bp59URo0aRZ8+fcjOzqagoEA/eaiqSlRUFFFRUaxbt45x48Zxyy234Ha7MZlMuN1u+vXrh8Ph4KWXXqKxsRFoDhm33347iqLw3HPPMXDgQBITE1FVlR49enDvvffy+OOPU19fr9e/srKSq6++mrFjx/Loo4+SlZVFfX09O3bsYObMmdhsNu6+++5W74mPj6epqem0vRcGgwFVVfnoo4+Ij4/ngQceoKmpiaamJvLy8li9ejUPP/wwqamp/Pd//zdfffUVd9xxB5WVlfTq1Ys//elPzJw5kzVr1nD//fdzzz33UFVVRWJiIjfeeCOaplFcXMwnn3zCiBEjGD9+PO+88w5z586lX79+VFVVERsby6OPPsoHH3zAhg0bGDVqFHfeeSe1tbXY7XbuuusuNE2joqKCvXv36lfmmqZhNBpJT0/H5XKRkJDAjBkzWLt2LQsWLGDkyJF88cUXDBgwgD/+8Y/MnTuXzz//nCFDhnDLLbfwj3/8g6eeegq3280jjzyC0WjE7Xafj02OhoYGEhMTeeyxx/j2229ZvHgx48aNY9myZYSEhPD000+zYcMGZs+ezZgxYwgNDaWsrAyz2cyjjz6K2WxG0zRefPFF+vfvz1133cXbb79NZmYmJpOJpUuXkpuby4MPPkhRURGvvfYa6enpDBkyhJqaGlwuFw899BC+vr76dtLyVo6qqqSlpenb4913343dbufRRx8lMzOT3Nxcamtr+cc//sHx48d59tlnGTNmDKNGjWLfvn08++yzNDQ0MG3aNLp06dJhoD4Xmqbhdru58sorMRgMrF69GlVVMZlMuFwuampqmDJlCrGxscyYMYPs7GwGDRrEZZddhq+vL2+//bb++aWnpxMaGsrLL7/M7373O703xO12c8kllxAQEMD//M//6Pukr68vt99+Ow0NDRQWFvL666+zZ88eRo8e/ZPX63TcbjexsbHcc889/PWvf6WmpgZo3n/Lysq48sormTRpEk8++SRbtmxh2rRpNDY2csUVV3DVVVfx1FNPsXfvXqxWKwsXLuSGG25gwIABvPTSSyxYsIAnn3wSRVEoKChgwoQJ3HzzzdTX12OxWPDx8eHee+9ttdzw8HDuvfdeKioq6N27N9dff73ebkKIC++8hZ7AwEB69OiB1WolMTGR0tJSrFYrERERREVFAZCQkEB+fj4AkydPZtGiRaiqyrRp0wDIzMxk48aN2Gw2ABobGxk4cCApKSnccsstLF26lF27djFmzBgmTJigj0+xWq36WB1o7p42Go3Mnz+foqIi/t//+3/Y7XZcLlerMTre+T0eD/7+/nTv3h2r1UpoaChNTU0UFxcTGhpK165dAYiLi9PDjaqq3HrrrUDzgVVV1XbbxttTUFpayjXXXKMv29fXl0OHDuHn50diYiJWq5Xk5GSKi4vRNE2/ZWM0GomMjKSkpARoDlEGg0FfX0VRKCoqwuVyUVJSwqJFi7Db7SQlJekntF69emE2m4mMjKSoqKjVOA7vH0BlZSWrVq3Sx7SoqtqqHsnJyVitVrp3747BYOD89X7BAAAgAElEQVTEiRPU1dXRs2dPFEWhd+/ebN68maqqKiIiIhg3bhwPPfQQr732GhEREeflxN2yXVNSUjCbzaSkpABQXl5OcXEx/fr1w2Qy0bNnT8xms/45Go1GhgwZQmBgIABOp5OqqirGjh2L0WgkNTWVgwcP4vF4yM/PR1EUvvvuOxobGxkwYABWqxVoDg+DBw8mLCwMaB67sWXLFo4ePYrVatVvi3qXExcXR9euXTEYDERFRZGfn09RURHJycnY7Xbi4uLw9/fn5MmTpKSkcNNNNzF58mSGDx/OZZdddt57ANp7QklVVcLDw/W6BAQEUFdX12r+lvuYd2wV/N+YKFVV9W3LarW22sdqa2uZN2+e/ll4byt7aZp2Tj0958JgMGCxWFqNj/J4PAQEBNC9e3fMZrO+z6uqqu8/3mOB0+nk5MmTuN1ujh8/Tl5eHuHh4frtMFVVCQ4OZsiQIVitVqxWq75u3uW2bDdvb6bJZNJ78E53a1wIcf6ctzE99fX1VFdXExYWRkVFhT7+pbq6Wj8QlpWV0bNnTwC+/vprfWzDihUruOaaa/jNb37DNddc06Z8VVWZMGECo0ePZv369bz11lvExMQwYMAAAKxWK0ajEYfDATSHnvXr17NmzRqeeuopgoKCWp047HY7iqLg4+Oj1x/QD1Teef38/KiqqqKhoQGr1UpZWZl+0DQYDGzatImTJ09y5ZVXYrPZ2j05aZqG2WzGYrGQl5fHpZdeqk/39/enrq6OhoYGAgICKCsrw8/PT+9l8QYpVVVb3fLxjiNouT52u50bbriBHj166O859YB6ajBzu92tTjzR0dE8/fTTbT5bs9mM0+mkvLwcgJqaGtxuN4GBgfrtA4CysjI0TcPhcFBTU8PatWsZNWoU3333HYMGDcLf3/+8BR+Px9OqPqqq4nA4sNlsFBcX69OdTie+vr76unhP1N7eLJPJpNe/vLwct9uNoijYbDZ69OjBAw88ANDq8wD0wbPe9rvzzjv1dvZ+ft5bgt5yLRYLVVVVBAQEUFVVRU5ODtAc7uvq6vD39wfgyy+/JDU1lYqKCvbs2UOfPn06DNXnyrsdWSwWjEZjqyAH6L0Opz5tZrVaMRgM+j7mbUOn09nqaS5vOTabDUVR9Pk3bdrEnj17+Pe//42madx9991t1qm2tlZv2/MZkKF5HzEYDNjt9lbt4K2Dd3vwvtZyuvf93t6qiIgIoPmWnHe7aBlsvHX3bkctlwvot/i8286FWF8hRPvOW+gpLS1l9uzZJCcnc/jwYaZOnUpkZCSKovDKK6/g4+NDZWUlQ4cOJSsri9mzZzNjxgyMRiPPP/88kZGRDBw4sE1w8J5UFyxYQHh4OLW1tQQHB+sniI0bN7J79259HEH//v1JSkri9ddfJywsjO3bt7NhwwZGjhxJeHg4GRkZZGVlkZ+fz7Jly0hPTyc+Pp7GxkZ92d6TkHdA9osvvkhoaCiFhYX6kxlGo5FFixaxfv16hg8fjsPh6DD0WCwWxo8fz/z581FVlcbGRuLi4hg6dCjR0dH861//Ijk5mQMHDvDAAw+gaRr19fX6QdHpdOq3CaC55+D7779HURTS09OJjY0lLS2Nd999l7Fjx1JQUEBUVBQTJkygqakJp9MJNB+MW5YTHx/PsmXLmDt3Ln379iUtLa3Vicv72ULzwd97y3LTpk307NmTLl26kJ6ezpdffonH4+Hrr78mPT0do9HIP/7xD8xmMy+88AIzZ87kzTff5MEHHzxvA5k1TeO7774jNjaWzZs306NHD4KDgxk2bBjvvfceISEh7Nixg4SEBLp06aJ/rk1NTfr6mM1mhgwZwvLlywH44osv9BAwfvx4Xn31VWbNmkVwcDA5OTlMnTqViIgI/ZZmSx2NRVIUhezsbP1k73Q66d27N2FhYaxYsYI5c+aQl5dHWFgYPXr04Ouvv2bt2rW8+OKLbNu2jVdeeYVnn31WH2vyUxgMBmpra/nhhx/0nqn58+fTr18/DAYDDQ0N+mff0NCgD/hdt24du3btIi8vj3nz5pGWlsbAgQMJDQ3F4XDw7rvvkp6ezmWXXYbD4WDTpk3s3r2b/Px8fZ8MCwvD7XazZMkSSktLOXr0aKv26tmzJytXruTVV19l5MiR9O3b97wEPYPBwM6dO8nMzOT48eN89dVXlJeXk5qaitPp1JfR2Nio7ycNDQ2tptfV1ZGYmEh8fDxvvvkml156KUePHiU1NZVRo0YBUF9f36q+BoOB3bt3s2/fPo4dO8bq1aupqKhgyJAh+Pr60q1bN71X9ZJLLiEhIUHG9AhxERifeeaZZ043w5l2RO+Bq2vXrgQHB5Ofn8/kyZPp378/drudnj17cuzYMZxOJ7fddhuJiYkcPnyYtLQ0hg0bRkREBCEhIUBzT4OmaXrvhPcA7H1KKzs7Wx/nkJaWpj/RVV9frx8kbTYbXbt2xW63ExkZSW1tLaqqkpCQgL+/PwcPHqSkpIR+/frpt8ESExMJCQkhMTERHx8frFYrcXFxREdHM2DAAJqamggPD6e4uJi0tDTi4+P1noW0tDRSU1P1x/Hbo2kaKSkphIWFkZ2djcvlol+/fkRGRtK7d29OnjxJSUkJU6ZMYfDgwbjdbhwOB0lJSQQGBmKxWIiJiSE6OhqPx0NSUpLeoxEVFUWXLl3o27cvTU1NZGdnYzKZ6Nu3L2FhYVitVhISEggNDcVkMhEdHU3Xrl3RNE1vk8LCQiIiIoiOjtav8r1/3itgHx8fkpOTOXnyJNHR0UyfPh2LxaLf+jpw4ADp6enccMMNeq/flClTCA4OpkePHvpTbt6nf07l7S1Yu3YtMTExJCUlnXbba1mfrl27cvPNN2OxWIiLiyMkJIT9+/cTGxvLLbfcogdSm81GYmIiYWFhetnJyckA5ObmMnToUAYNGkR0dDRdunQhNjaWgwcPUlxcTHx8vH67zLuclk8btmwz75+3Z6l79+5omkZdXR233HILXbt2JTQ0lG7dupGVlUVQUBB33HEHQUFBHDlyhNGjR5OSkkJiYiJGoxEfH5/TDnT1tn9JSQnDhw9vte+c2sZNTU3s3bsXHx8fevbsSV1dnV6XoKAgfZkOh4Pu3bvj4+PDnj178Hg89O3bl8bGRvz8/PSnB5OTk6mqqsLpdNK9e3dsNhuZmZnU1tbSr18/VFXFYrEwbNgwQkJCyMzMJDY2ljFjxpCcnExAQACqqurbZUlJib4tdrQ/GY1GCgsL2b17NyNHjsRut592TN2xY8c4efIkaWlp+q3zxMREgoODSUhIwM/PT99PwsPD9XV3OBxYrVZiY2OJioqif//+lJeXc+TIEXx8fOjXrx9BQUF6r2337t317dtgMHD8+HHy8/Pp3bs3NpsNVVVJTEzEYrGQlJSExWKhtLSUrl27ykBmIS6A9i5GFe00N5O9Ax/PpuBTn1zxnjxPvSJ2Op36veyW3bunW5b3NsTZlO997dT5VVXVr+47mv/UeZqamlizZo3ek7Vp0yb+8pe/EBUVhdvt1ufz1uV02msjp9OJxWLpcL28beJdjrcL3Gg06iHBO0/L8RZeLpdLL8flcunLOl05HTm13bzztywD0HsHvO3fch1P107e0PjEE08wYsQIrr766tN2+XdUn/ba2VvOqe14ahu0nP9strmzuSVxLuV7Py/vv73r4vF4TtvrYTabWbBgAfv27eOZZ57RP4P2tLdcQH8ku+U6epfb3j5zapvCue+TLdfr1Hqd6bPfsWMH77//Pn/7298ICgo6p22lZX1OXUfvZ+Adc+TddtvbV73ze+t+6ufU0XK931Xm3V/P9jgrhDg37R1/z9tAZu9B9tTbIy2/MdV79auqaquDw5lOHt6Tdsty2iu/5Ws/ZnrLMr2DhU0mE9u3b9ef3oqOjtbnPZf78N42OrUtTrde7f0b0NuvZVt7D5qnltVyfMHZlNORluW0LL+jMk633PZ435uQkEBwcPCPrk977Xzqe1rqqP5n2ubOVsvyW5bTUfktyz5deGlJ0zTCwsKIi4s7Y7udutyWy265rFO3v/bmbzlfy/Y7077XXh1b1uts1sHbG3O6HtYz1b+jfay9bffUfbVlOd66n+1yofX+KoOYhbh4zktPz3+yU6/WZMDhhdVyMLA4e95bWhfqCahfms62vkKIc3fBenr+k3V0tS8uDO+Vu7T1ufHeu+4s40I62/oKIc4PCT1nQU7AF4+cxH6czhYUO9v6CiHOD+kbFkIIIUSnIKFHCCGEEJ2ChB4hhBBCdApnHNMjT0cIIYQQ4temvaeATxt6VFWlsrLyglVICCGEEOJ80zSNgICANl8qesbQU1NTc0ErJoQQQghxvni//NfhcLQJPWf8csLz9evOQgghhBAXi9FoPLff3hJCCCGE+E8ho5SFEEII0SlI6BFCCCFEpyChRwghhBCdgoQeIYQQQnQKEnqEEEII0SlI6BFCCCFEpyChRwghhBCdgoQeIYQQQnQKEnqEEEII0SlI6BFCCCFEpyChRwghhBCdgoQeIYQQQnQKEnqEEEII0SlI6BFCCCFEpyChRwghhBCdgoQeIYQQQnQKEnr+Q7jd7gtSblNTE5qmnbf5fmwd/tM4nU5UVb0gZXf0WZw67Wzb1el04vF4TjuPpmn/kZ+TEOI/i/GZZ5555ueuxC+Ry+XixIkTeDwe7Hb7BV2W2+0mPz+f2tpa6urqqKmp0f8ArFZrh3U8cuQIhw8fZs6cOfj7+xMZGQmAqqooigI0n5C8f263G4PBoL92Ko/Hg8fjwWBozsNbt25l7ty5xMbGEhgYqM+nqiqapunzbdmyhY8//phu3bq1ms9bxrJly9i5cycWi4WIiIhzap8vvviCVatWkZaWprdFZWUlhYWFejs1NjZSXV2Npmkdtld1dTWqqmI2m9tdb28IadleHbXTT7V7927ef/99wsLCCAsLA6C4uJitW7eSn59PXl4eubm5HDt2jLq6OsLCws66Lt988w2ff/45SUlJ+Pn56dNXr15NZmYmKSkpACxcuJDvv/+e1NRULBZLh+Vt2rSJOXPmEBUVRUhISLvzaJrGxx9/zObNm0lNTW23jYUQ4udm+rkr8GOUl5djMBjanFzPltvtpqysjJCQEEym9pugsLCQv/3tbwwcOJA777zzp1T3jDweD1999RU5OTn6SUpRFHJycujVqxf33nsvdXV1rFy5EqfTiaIoNDY20r9/f1atWoXNZsPpdLJz50769esHQEZGBsuWLcPPzw+j0YimaTidTvz9/bntttsICAhoU49vv/2WDRs2ADB06FCGDx9OXFwchw8f5uDBg8TGxgLw3XffsW7dOhRFYciQIYwYMYL4+HjmzJlDVlYWcXFxepmrVq3iiy++YOzYsTQ2NvLWW2/x+9//noEDB7ZZ/smTJ9m9ezdmsxlFUTCZTHTt2pVevXrx5ZdfcuLECf2EfeTIET777DP8/Pyw2+0cPHiQkpISHn74YYYNG9aq3JKSEubPn09RUREej4f+/fszadIkjEajPk9OTg7z5s0D0ANAQ0MDQUFB/P73v283+O7atYs1a9bg5+fXKmAaDAauvfZaQkNDqa+vJyMjA6fTidFoxGg04ufnR2JiIuXl5ezatYtevXoB0NjYyK5duzAajZjNZkwmEwcPHqS+vp6XXnoJm83WavlZWVksX74cu92OxWKhtraWSZMmMWjQIObPn09OTg6RkZF89tlnNDU1cfToUY4dO0ZNTQ0Gg4GoqCi+/vprJk+ejK+vLwUFBaiqSrdu3VoFrLS0ND766CP27dtH9+7dycrKora2Vg+GjY2N9OnTh9TUVN58802uueYafHx82rSXEEL83H6VoWf+/PmEhYVxww03/Kj3l5aW8vrrr/Pwww93eOUaHR1N7969qa2t/SlVbcXj8VBTU4Ovr2+rE67L5aJXr1706NEDX19fAAwGA0uWLNF7e0wmE1u3bsVoNDJ8+HDsdjsRERH06tWLI0eOEB0d3SrARUREcPToUaZNm0ZcXJzeg2O329s9IW3bto2PP/6Y2267DaPRyJw5c/j222+JiIigoaFBP+F6e35uvfVWLBYLs2fP5rvvviMiIoKampo2ZW/evJm0tDSmTJkCwOHDh8nIyGg39NTX1/PDDz9gt9ux2+189dVXXH/99UyfPp3w8PBWt2cGDBhAjx49qKioYNmyZRQVFTFt2rQ2gcflcvH222+jKAp33HEHVVVVvP/++1gsFiZOnNiqvS6//HIURcFoNGIwGDhy5AhLlixh2rRp7Yae8PBwwsLC8PHxwWQyoSgKFRUVfP755wwaNIjQ0FA0TSMzM5OSkhLCwsLYvn07ZrOZt99+m5iYGL2nzLv+FRUVBAcHoyiK/nn5+/u32l5a1jktLY2AgADWrVvHtm3bmDhxIr6+voSHh6MoCoqiEBQUREFBAYqiEBgYSE1NDfHx8cTExODv78++ffuor6/n0KFDLFy4kGeffZaoqCh9OUFBQURFRel1WL9+PStXrmTQoEFomobH4yE+Pp64uDiCgoJarZMQQvyS/KTQk5eXR1lZGUlJSfrJ+kzzL1myhKqqKhITE7nuuuuwWCwsXbqUvXv34uvry+TJk+nWrRuffPIJ1dXVBAYGsn//fsaOHcuIESPIyMhg+/btBAYGYrPZGDVqFDabjQULFnD48GESEhK44YYbyM/PZ/HixcTExFBQUICmadx+++1YrVaWLVvGoUOH+Oyzzxg4cCDp6elt6mowGAgICCAzM5MPP/yQgoICrrjiCgYNGoSqqqxYsYLdu3fjcDiYPHkywcHBzJ49G5PJxFVXXcWWLVsoLCzkxhtvJDw8HGg+4b/88ss89NBDJCcn68tyuVxs3ryZ2tpaTCaTfgLdv38/V111FdB8iysmJobjx49TX1+Pj48PO3fuZNWqVaSkpLQZH+Lv74/D4WD79u3k5+fj8XhobGwkMjKSpKSkNuu7Z88ekpKSGDVqFNDci3H48GHS09PZv3+/Xv727dtJSkpizJgxQHNYOn78OIMHD+bw4cNtxhZNmDCBjz/+mDlz5uB0Oqmrq2PcuHHtbh+JiYn89a9/BSA7O5vt27czevRo3G43brdb733weDycPHmSdevWsXfvXsxmM4mJiRQWFrJhwwYGDhyoh7Ty8nJyc3N5+umn6datm172jh07WoWewsJCvvvuO8xms97TU1ZWRlBQUIe3fqKiopg+fXqraSUlJaxdu1ZfvsPh4M9//jPQ3Av04IMPMnz4cKB5TE3LHpWgoCAOHDhA3759CQ8Px+12k5iYiK+vL3V1dW16NkNCQrjqqqvYv38/GRkZTJ8+nczMTD744AOOHTumh+ArrriCTz75BI/HQ0JCAkVFRUyfPh1N06iqqmLp0qUMHDiQsWPHsnTp0naDvvd2JkBSUhK9evXi8ccfbzVPbm4uHo8Hl8uFy+XSt2MhhPil+NGhZ8eOHfz973+nsLCQMWPG8Oijj542+FRUVDBz5ky6d+/OkCFDmDNnDomJieTl5bFy5UqmTp1KZmYmL7zwAs899xwWi4VPP/2USZMmERcXx7vvvkt8fHxzpU0mjEajfiU7a9Ys8vPzGT16NCtXrqShoYFJkyZx5MgRMjIyuPHGG1mzZg0fffQRd9xxBwaDQT8gK4pCTU0N2dnZeDweNE3DbreTmpqKyWTiwIEDpKenYzab+de//kXXrl354YcfWL58OVOnTiU7O5vnn3+eZ555Bj8/P7788kuGDx/O1q1b6datW6s2CQ0NZeLEifoYDq/AwEBmzJgBNPdiVVZW8qc//Yk333xTP1FDczjy8fHBz88Ph8OBqqptbnl4ud1uNE2jb9++xMXFoaoqqqri7+/f7i29mJgYNm/ezOHDhzEYDGRnZ6OqKhs2bKC8vFy/yk9MTGTHjh1kZ2frt188Hg/r16+npKQEs9mMqqocOXIEg8FAeHg411xzDTt37sRoNHLddddhtVrJysrC4XDot8xaKisr46WXXuKaa64hMTGR0tLSNq/PmTOHwMBAfve735GUlERjYyMrVqxg9erVxMbG6u0WGBhIWFgYy5cv5+abb6aqqoqMjAz69u3bqsyQkBAOHjzIyJEjSU9PR1VV3G43QUFBHW7Xq1atYsOGDfqtQpPJRHFxsd67cqqZM2fi5+fHb37zG32aNxTU1NQQEBDAtGnTOH78OBUVFUBzwCsvL6ewsBCLxYLdbm8VJNauXcunn37K0KFD2bRpE2PHjuXmm2/mrbfe0gNoRUUF33zzDQ888AB9+vThoYceYvPmzQwZMgQfHx8eeOAB4uPjKSkpwWAwtDsmqmXvjcfjaXcb8vHxoaamhrfeeouUlBSmT5/e4fYphBA/hx8detatW8exY8fw8fFh3bp1TJs2jdTU1A7n37NnD06nkz//+c+YTCaio6OxWq3Mnj2b22+/nWHDhjF27Fjuv/9+9u3bR8+ePenTpw/33Xcfbrdb7zlJT09nw4YNREZGcs0111BfX8/69etJT0/XTzY7d+7kjjvuICEhgWHDhnHdddfhcDhYsWIFvr6+XHvttezdu5dp06YRFBREbm4ua9euRVVVPB4PISEhJCcn43Q6GTp0KJMnT9bXISMjgy1btjB9+nRGjx7NFVdcwf3338/OnTu57bbb8Hg8PPPMM1x++eX84Q9/aHWCCg4O1ntuvA4ePEhubi5+fn6YTCaKior0W0KhoaHU1dXx3XffMWDAACwWC3V1ddTV1XHs2DHsdjs9e/akqampTU+P1WrFbreTlZVFaWkpmqbhcrlwOp0EBgYSHR3dav6RI0dSVFTEe++9h6IoDBs2jPHjxwPNA2y9J9AxY8ZQUVHBJ598gqZpDB8+nKuuugpVVamrq8NgMKCqKosXLyYvL4/4+Hh8fHzw9/cHmgfwZmRkUFhYSM+ePfntb3/bqh6lpaU899xz9OrVS293L7PZzNGjR/nss8+A5t6szZs3s2HDBhRFwWKxEBkZybx58xg5ciSDBw/GarXyhz/8gdmzZzNz5kzcbjfdu3dn6tSprcoOCAggJiaGvXv3cvLkSTweD2azGbfbzeTJk+nevXubbTo1NRWPx4PD4dDHIGVkZFBfX99qALHH4+Gdd94hLy+Pp59+utUgX5PJhNPp5J133qGsrIyYmBh8fHz0XhXvOKC5c+fSvXt3vb08Hg+LFi3i22+/5Y477mDQoEGsXbuW9evXM3z4cAIDA/Vtwt/fn4EDB/Lll1+yceNGNE2jR48eqKpKSEgIvr6+GAwG/QmskpISTCYT1dXVlJSUkJ+fz6FDhxg8eLC+7JqaGoqLi2lqaqKyspLS0lKysrJwu92MGjWKpKSk0w6OFkKIn8OPDj1xcXHYbDbq6+tJSUkhODj4tPM7nU6sVqt+hdijRw8aGhpoaGjQT4gGgwG73a4/zuu9SnQ6ndjtdv29LR+h9f7XZrPR2NhI3759ufzyyzGZTKiqisPhAJpPHt4r2Pr6ej3gQHMvx8MPP9ymzi6X6/9n77zjo6ry/v+elikpkzKTHhLSIJBAINKboHQLoiiLuo+VXQu7ll3Lz3VBV2FX1lWXdcEOSlkrCgLSpfeWhJBGgPQ66dPvzO8PnrkPYxJ0cdencN6vF6+XzJw595xzL57P/ZbzlX8PFwNcfeZ735jhogvDbrfL61JVVYVOp+ti2m9ra+P48eNkZ2fLrorW1lbWrVuH2WyWY0CGDBnC4cOHCQgIwOFwYLfbSUtL4+abb2bfvn1oNBqGDRtGXFwcO3fupK2tTQ5W9hEaGsrTTz8tx3L41kqtVnexNMFFQXHnnXdisViorq7m+PHjfPTRR0RFRZGamipbTtRqNXfccQeHDh2ivb2dmJgYqqurkSSJ1NRU4uLiCAgI4JFHHqGoqIi9e/fidrtlS5Hb7cZgMPD44493CaY+ffo0S5YsoV+/fjz88MNd1s/j8WA2m+nVqxderxez2YzNZuOzzz5j0KBB9OvXj7CwMGw2m9/zmJyczO9//3sqKirQ6XRyhtt3+dWvfkV9fT3r16+noaGB+++/X76nl+LL6oqLi+siHuvr6+no6JCFTVNTE8uWLaO+vp7f/e53sqvTh9vtJiAggJkzZ3L69GnOnTsnPzterxdJktDr9cyaNUuO0/GtRUREBE8//TRJSUk0NzfT2tqKUqmUY7F8WXIqlYo777yTd999F71ez7PPPktkZCQ7d+4kMDBQFmgGg4GIiAjef/99jEYjWq2W8PBwYmJiCAkJkf+9REVF0dbWxuLFi9FoNBgMBiIjI9FoNAQHBzNs2LAeY+UEAoHgv5MrFj3Tpk0DLvrxr732WmJiYi7bPjU1FYvFwvr168nMzOTkyZNkZWXRv39/Vq1axdy5c8nPz6euro5+/fpx+vRpeQPp7OyksbGRpqYm4KLAKS4uloVBamoqkiSRk5PD2bNnkSRJfmONiIjA4/HQ1NREU1MTnZ2dBAYG0t7ezpEjR9BqtWRnZ3frjvB6vRw/fpzS0lKqq6upq6tj0KBBVFVV8Y9//IPQ0FCKi4uprKxk7ty5HDx4kHXr1vHSSy/J30+ZMkXeAGtqali5ciUxMTGy6BkyZAh9+/Zl7dq1REdHM2nSpG7H4dvs7rjjDtasWUNubi6DBg3CbDaj0WhobGyURcSaNWtkd0l3AbBHjhwhMjKSm2++uYubQqvVymPPyclhx44dGAyGLm6oyspKjh07htFoRKFQ4HA4OH/+vBygHBgYSFpaGmVlZXLmkkajoaamhs2bNzNt2rQuro+amhomT57MjBkzuo0FcbvdGI1G5syZw4YNG6ioqOCuu+7i8OHDTJgwQc5cg4ti8pVXXsHhcMiBwD5h6Ha78Xg8tLa2kpGRQWBgIM3NzQQFBREQEIDFYqG9vZ2zZ8/i9Xo5cuQIoaGhTJ8+HZVKRXt7Ox988AEtLS1+cTZKpZKCggIAXnrpJeO4baIAACAASURBVDIyMhg4cCAxMTE88sgj3WYb+oRqcnIyJpMJi8WCJEmyC9disbBt2zYmTpzoF1ysVqsZP348cDF9f/HixQQGBpKRkcG3335L7969/e5ZYGAgTqcTi8VCXV0dFRUVFBQUUFxcjNPplK1xTz31FG1tbej1egIDA2XX3pkzZ3C5XABkZWXxhz/8QX4pMBgMGAwG2dpjtVqF6BEIBP8juWLRExAQwIwZM35w+969e3P//ffzzTffsH//fkJDQxk1ahT33Xcfb7/9NkuXLkWpVPKLX/yC6OhovvnmG4xGI2VlZUiShMlkorq6Gq/Xy5QpU1i2bBmffPIJd999Nw8++CDvvvsuf/7zn1Gr1dxyyy1UV1ejVqux2+20trbS0tIi95eVlcW4ceNYu3Yt/fv3Jycnp9sxZ2RkUFdXx/Lly3G5XMyePZukpCTmzJnDBx98IGcFzZ07l6CgINatW0d8fDzZ2dns37+fHTt2kJWVJVsKkpOTWbRoUReB5Ut53rhxY7ei57sCICIigi+//JK7775bDjyura2VM4xCQ0OpqakhKChIthhcii8uqLssm5KSEmpqanjuuefQ6/WkpKTwwgsv0NDQ4Lfp3nLLLUybNo2AgACUSiVWq5Xf//73tLS0yG06Ojo4dOgQJpOJ6OhorFYrAKNGjfKzlPnoKcC5u3WIjY3l008/ZcqUKUyePLmLxcVgMDB06FA5a6o7EeV0OomNjeXChQtcuHCBmJgY1Go1mZmZKBQKWWTb7XbCwsLkPgIDAxkyZAgVFRVERkb6rWNOTo4cJxYTE0Nqamq3gePd0dnZyYULFzAYDISHh8sio3fv3j0erQAXU9fr6+tZunQpGo2GxMREli5dSmdnp1+8kclk4uDBg7Klz+eOvPTgwfDw8G6ttpcGkqtUKr9n4dLxX/qsHTx4kM2bN/Poo48KESQQCP5H8JOmrI8fP57hw4d3cT889dRTWCwWDAaD/PY/e/ZsZs+eLR+k98c//hG4uPH16dOHl19+GUBOkX7uuedobm4mODiYgIAAXC4X8+fPR6FQoNFouPvuu4H/Csi85557uPnmmzEajT2m2I4aNYrRo0fT2tqKWq2WXV3h4eE8+eSTWCwWOb3a7XbzzDPPyCLg8ccfR5Ikv6BQjUbTrWsJLgqsLVu28Prrr8vWGZvNRmRkJHPmzPGLj4iNjaWtrY2//vWvstCx2+1ERkZy6623MnXq1C6xQz+UxMREwsLCeOeddxg6dChbt24lISGhy0boc0Ve+nffHH2YzWasVquceeRwOOR4lfr6+m6FT3f4LHeXbvy+FP3ly5cTFRVFfn4+drsdjUbDnDlziIiIkAXh99G/f3/ZcvlDUKlUjBw58ge37wmHw+H37EVERFBfX49KpcJsNuNyudDr9SQlJdHa2trjoY4+V/Py5cvJyspiw4YNJCcn+7lm4aJLzGAwyP10dnb6ZWX1xA89bVmSJDlrCy6+GIWFhV1WsAkEAsFPyU9+IrNGo+n2zJNLY3YAOXXb55bw/f3Sfi7dYBUKBQaDQRYMlx7w5svW8vV36TUvl1Lr+06n03UblKnX6+Ux+LJefNfQaDRotdpu3UvdER4eTmJiIkFBQXJ8j9lsJiEhgfj4eL/NMSQkhF69eqHX6wkNDcVoNBIaGkqvXr2Ii4v7Ueek+IKjS0tLKSwsJC4ujrvuuut7BYov861fv35+Zw1FRETgcrlwu91yRpTNZiMuLq5HAdhd3x6Ph8zMTFkU6/V6kpOTCQoKIiwsjPDwcEwmE/Hx8SQmJv6vOBHYZrORmpoqx/moVCpMJpP8/Pj+eDwe4uPjMZlM3fYTHBxMeno6hYWFFBcXk5yczJw5c7qIHt/5P52dndhsNlQqFcOGDaNv377f+5zabDb69OnT4xgA+bTvrKwsNBoNMTExDBs2TGRwCQSC/zEovP+ugkmC//X8O8swCP49iHsmEAgEPSNEj0AgEAgEgqsCcV68QCAQCASCqwIhegQCgUAgEFwVCNEjEAgEAoHgqkCIHoFAIBAIBFcFQvQIBAKBQCC4KhCiRyAQCAQCwVWBED0CgUAgEAiuCoTo+R+AxWKhra3tX9KX1+uloaHhX9bfpbhcLurq6uSK8v9XaGxs/Lesl6/v1tZWv8+8Xi8dHR1yzSuXy0Vtbe0PKvVgsVhobm6+bBuPx0NdXR02m+3KBy4QCAT/B/nJiuLU1dVRVlZGnz59ui1o+M9y7tw5GhsbyczM7LasxQ/FYrFQXFxMUlIS0dHRP3pc/wznzp2jpqaG4uJi8vPzeeaZZzCZTEiSxLlz53C5XEiSJLd3Op0YjUZSUlJ67FOhULBlyxaOHj3K008/Lc/p+PHj5Ofn+5UmsNvtZGZmMnDgwB80XpfLxVtvvYXBYOCxxx6Ty4JUVlZy/vx5AgICUKlUBAQE4HA46NWrl1xi4VJaW1upra0lLCys2+/b29ux2+2o1Wq5LpRCoUCv1/dY0sDj8Vxx+Y0dO3awd+9ennrqKeLj4wE4efIkeXl5fqVKbDYbmZmZftXcfbjdbrxeL0ql0q+kw65du9i9eze/+c1viI+PR6FQIEkSy5YtIyMjg+nTp2O323nrrbcICwvjkUceuWxJiCNHjrBu3TrmzZtH3759u23j9XpZvXo1ra2tPPPMM6IMhEAgEPwnP5noKS8v59VXX+Whhx7iuuuu+9H9nT59mg8//JCFCxf+4CrW3VFXV8cbb7zBzJkzmTVr1o8eV08UFxezf/9+VCoVDoeDwMBA0tLSWL16NVOmTMHpdGKxWDCZTCgUCjZv3szu3bvJzs6WK6VbrVYGDRoki55t27aRl5dHcHAwLpeLoKAgZs6cyaRJk9i9ezf19fWy6PF6vbS0tMhFLtVqNdu2baO8vLxb0XPw4EFOnjyJXq9HpVKhUCgYNWoU48aN4+OPP/YrANrU1MSOHTsIDw/H6/Wyb98+7HY7f/jDH7qImp07d7JhwwaCgoJobW1l5MiR3HrrrX6CJTc3l3Xr1smV4BUKBbW1tfTv35+5c+d2u7579+5l8+bNGI1GFAoFCoUCp9OJUqnknnvuITo6mvPnz7Nt2za5lpvX6yU9PZ2xY8fyzTffUFdXJ4segJaWFux2O0qlEo1Gw/bt26moqOhW9Jw8eZLPP/8co9GIx+OhqamJxx9/nJtuuolt27bR0NCATqfjvffew2g0Ul5eTnl5OcXFxcTHxzNs2DB27NghC54TJ07gdrsZPHiwnwgaPXo0GzdupKKigr59+7Jz504aGhqA/yr4OX36dCZOnMjrr79OZ2enED0CgUDwn/xkoicnJ4f09HS5+KRCoejyRmu1WuWq6V6vF0mSUKvVSJIkb35w8a16+PDhbNy4EafTKf/eZrOh0+lkkeD7vdvtljfu75KRkUFWVhaSJCFJEh6Pp0uxSqvVKr/x+1wSSqUSj8cjf3bp+FpbW6muriYtLU0WBi6Xi/Xr1zN16lRMJhNBQUEMGDCAhIQEFAqFvFn7+k5PT6eiooJnn322xzWNiYmhubkZo9FIW1sb69evZ9SoUcTHxxMSEuInJOrr6ykpKSEzMxOlUonb7SYtLY0BAwZ027fPemYwGKivr+fzzz+nf//+hIeHdylkOXDgQAYOHMjx48f56quvcDqdPPHEE2RlZfm1O3fuHKtXr+auu+5i2LBhnD17liVLltCrVy+GDRsmt0tPT2f27NnyfdDpdHz55ZcUFxf3uBYDBgxAoVCg0+nk56qmpoaVK1fS1tZGdHQ0er1eFjBarZbly5dz4403Mnjw4C7rVVdXR0lJCf3795fXKyUlpcucfPTp04fZs2djNBpZsWIFLpcLq9XK+fPn0Wq1KBQKQkNDGTNmDGfPnpXHGB8fz4ABA2hra6OtrY1PP/2UPn360NTUxMqVK3n55ZeJi4vzuy9Go1H+fUFBAd9++y1Tp071q7sVHBxMUFDQ/4rCqwKBQPBTccWix+PxcPToUaqrq8nJySEhIeF7fxMQEMC3337LkSNHaGtr44477uCaa67h/PnzrFy5ktbWVkJCQrj//vvR6XS88cYb6HQ6rFYrRqORefPmsXnzZvbv348kSTQ3N2MwGHA4HKxYsYKSkhJ0Oh333HMPYWFhvPbaaxgMBtra2oiMjOTxxx/vdlxarZZDhw5x/vx56uvrmTFjBmPHjqW2tpYVK1bQ2NiITqfj5z//OTqdjiVLlhAdHc2sWbN4//330el0PPLII3J18ePHj7Nq1SoWLVokVxKPjIwkNjaWpKQkevXqhVqt5tSpUzQ0NKBSqWQx5UOpVNLU1MSJEydk4WSz2QgICGDgwIFyVfmsrCy8Xi9NTU2yEPP9uZT4+HjZWqLVavF4PCQkJOB2u3G5XF02R5+QAXj//fcZOXIkAwYM4OjRo359OxwOTp48yc6dO2lvb5crn+/YsYPq6mpuvvlmWUCVl5ej1WoZN24cAP379yc2NpbS0lI/0ZObm8unn35KfHw8Go1GtvT069evx2dLrVYzfPhwWfAqlUp0Oh3h4eEEBwcDEBUVxX333SdfIyYmhunTp8sV4C8lISGBhoYGvF4vWq0WSZLo1asXbrcbt9st3xMfwcHBDBw4kK+//poDBw4wb9488vLy2LdvH3V1dXLl9P79+7NhwwYGDRqEzWajoKCAW2+9lVOnTtHe3k5paSnR0dHk5OTw1Vdf4XK5uszV6/XKbr+kpCSys7PlefmwWCxIkkRdXR0ul0uusC4QCARXM1csenbu3MmiRYtobm7mmmuuYdGiRZeN1fF6vTidThwOB3PmzOH48eO8//77JCQksHTpUmJjY7n99tv5+uuvee2113jhhReIiIhgz549/Md//AcNDQ3s2rWLL7/8kkcffRSXy8WyZcsA+Oqrrzh79iz33nsvhw8fZsmSJSxatAiTycTevXt54IEHqKmpobCwkPz8fOCiKyAyMpLx48fj8Xjo6Ojg7rvv5vz586xYsYKUlBQ++OADVCoVDzzwALt37+a1117jpZdeIjs7mx07dlBRUUFDQwO33nqrLHjgomCIjIwkLCzMb/4Oh4Pt27cTERFBYmIitbW11NfXyxvopbVfBw0aJL/F+97qbTYbvXv3lt0r27dvZ+vWrQwfPhy3282QIUNISEhAo9GgVCpRKpXYbDaqqqowGAzceOONtLS0yIG1vg28oKCA2NhYWaBdyvr169m3bx8vvviiLKoAOTalqqqKb7/9lj59+jBu3DjCw8ORJIldu3Zx/PhxGhsbiYuLQ6lUkpWVxdq1a3n//fcZM2YMBQUFVFZWdnErxsTE0Nrayj333ENiYiIulwuXy4VWq+1WcABs2bKFPXv2EBoaikKhQK1WU1lZiVqtJjQ01K9tWVkZf/nLX7jzzjtJSEiQA4OVSiV2u53Kykr0ej3Tp0/HYrH4rZfT6eTMmTNER0f7rZfD4eDDDz+kqKiIhx9+mO3btzNhwgSeeuopFi9eLFskS0tLqa2tZf78+VgsFn77299SU1ODx+MhMTFRtuxVVFTIcUyX4vF4/ASa2+3usha+uVgsFt566y369+/Pz3/+88vGCgkEAsHVwBWLnlOnTtHc3ExgYCBnzpyhqqrqBwUoT5kyhQEDBhAXF8eJEyc4cuQI7e3t3HPPPRiNRn7+85/zzDPPUFdXR0xMDNdccw033HADXq+XJUuWkJ2dzeDBg3G73YSFhdHR0UF+fj5er5fc3Fza2tpoaWnB6/USGxvLNddcw+TJk/F6vZSWltLS0oJCocDtdstuGkmSuO666xg8eDBZWVns3r2bQ4cO0dTUxBNPPEFCQgLJyckcO3aM8+fPM2fOHNrb2/nd737H888/z/jx4/3mGB4e3mUt3G43Wq2WuXPnkpCQQFNTEx0dHXKcDYBGo6GlpYUzZ86g1+sZOXIkLpcLvV6P0+mU3Xx79uyhT58+JCcnk5qaymOPPYYkSVitViorKyktLaW5uRmtVitvfCqVioSEBJRKpSyuNBoNVquVlStXMmXKlC6xVhs2bODTTz/lscce83OxKBQKtFothYWFrFixgtDQUBoaGli+fLlsjQoMDESlUvH3v/+d2267jZycHMLDw/n1r3/NmjVr+Oijj9BoNDz44INkZGT4XTcqKorExETWr18vx6RotVqMRiMPPPAAISEhXZ6riRMnkpmZKbs31Wo1W7Zs4cKFC37Cobi4mFdeeYUJEyYwceJEvz7UajXNzc28++67eDweevXqhUqlktdLrVZjt9tZsWIFU6ZM4frrr5efn/fee4/Kykqeeuop2aq3bds2xo4di1qtll1n/fr1Iysri8WLF2Oz2RgxYgQxMTFUV1cTGxsru6gUCgXt7e2cOnWKiIgIGhsbaWpqkhMCpk2bBlwUQTU1NeTm5mK322lsbMRisVBSUkJAQAD3338/sbGxQvAIBAIBP0L05OTksGXLFiwWC8OHD/cLAL0cvv/52+12vF4vOp1OdrHAxTdmr9eLRqORv4f/siz43vJ9VoqAgACUSiUxMTH069eP9PR0JkyYgMFgQJIkv9+npaWRlpbWZUySJMmmf5+4CAwMRJIkWZD4Pg8ICJDnERwc3G36cHFxMQcOHGDmzJmya0Wn0+H1enn33XcxGo24XC769evnFwvkC3L+6quvkCSJqKgoJEkiNzeXXr16YTabcblctLW1ERISQnBwMBcuXOAvf/mLHCvlc1P51icuLo6nnnqKo0ePUlhYKMdMAXR2dpKQkMC9997rF+wqSRKrV69m165dPPnkk10CnX1Wu969ezNt2jTa29uJiorC4XDw7rvvMm3aNNLT0+V20dHRtLe3o1ariY+P54knnqCzsxO9Xo9Wq8Vqtcr3UqfTERERwfPPP4/VauXPf/6znOXkW/NLY1fcbjdWqxWdTkdKSoosUJRKJS6Xi5CQEKxWKyqVilOnTvHWW28xceJEZs+e3eW+OZ1OYmJiePLJJzl27BiFhYWyYFIoFHR2dhITE8M999zjt15er5exY8eSkpKCXq8nPz+f/fv343Q6WbVqFenp6fTq1Qu4GCM1Y8YMVqxYwQ033MCIESOAiy5Rn2ADiIiIoE+fPmzdupWwsDCMRiPR0dFcc801lJeXyxaetLQ09uzZw2effUZQUBChoaEkJCTIgjchIcHPCikQCARXM1csesaNG0dQUBCVlZUMHTrUz5XTEw6Hg02bNhEYGMju3buJiIhg2LBh7Nq1izfffJOJEyeyadMmEhMTMZvNsiugsbERk8lEdnY27777Lv3795czX+rq6sjOzmb37t1IkkR9fT0dHR2kpqZSVlZGTU0NFovlslYoSZLYtm0bCQkJnDhxAr1ez4gRIzh16hRvv/02M2bMYM+ePYSFhREbG8vSpUu5cOECCxYs4KWXXkKSJGbMmCELDovFQmFhoV88RlhYGPPmzaO2thaTyUR0dDQGg4GCggJ5o/aleb/wwgt4PB60Wi0Oh4P/9//+HzNmzGDIkCFyPIdaraazs5Nf/vKXOBwOTCYTJpOJ0NBQJEniD3/4g3x9s9lMWloalZWVsmjTaDSUlpZy/vx5brvtNr94D4/HQ1RUFM899xy9e/fucc2CgoK49tpr+fjjj9m1axePPPIImzZtYvjw4SQmJsptz5w5w+LFi9HpdHJG1nfjjzo6OhgxYgQVFRXY7XaCg4NRKBTU1dXh8XhwOp24XC4sFgvXXHMNU6ZMAS6mty9ZsoTm5mYiIiL8gsHLy8tRq9UsWLBADqR/8MEHGT58+GWfU7PZTHp6OpWVlfI91Wq1nD9/nuLi4i6CSa1Wk5mZCcDZs2f561//ypgxYxg6dChff/01kZGRREREyO1DQ0NpaWnh4MGDNDc3I0kSRUVFGI1GuY1er+e3v/0tTqcTjUbj59Lbtm2bLHoyMzNZtGiR/Lz4XirKy8vZs2cPDoeDoKAg7Ha7LOYFAoHgauVHZW/l5OSQk5Pzg9oqFAqmT59OaWkpW7ZswWw2c9999xEcHMyvfvUrPv74YzZt2kR8fDx33HEHDocDs9mMVqulrq4Ok8nEmDFjaG5uZseOHaSnp3PrrbfS0NDADTfcgMvl4ssvv0Sv1zNp0iTsdjsRERHodDrq6+svK3quu+46CgsL2b59O4GBgcybN4+QkBDmzp3LJ598wsaNGzGbzfzmN7+Rz5jxuSWGDx/OhQsXaG9vl68xbNgwhg4d6pcNpFAo6NOnD3369JE/86UYXxrLAxc3WB++Dc8Xp3MpgYGBjB49ust82traugQyNzU1cejQIQYMGEBQUJBsSYqJifGznPiuOWnSpG7X6lJLio+UlBS2bt1KY2MjN910k7zJejwe2QJz7733ykLpu/P19RsWFoZer6epqYmoqCgAObPOFxPjcDj8BFVYWBhz5syhqakJo9HYxX0HF2OhfIL1clw6LovFwtGjR8nIyCA4OJjOzk5MJhN9+/btsl6XUlZWhsfj4e677wYu3vf33nsPm80mW9lCQ0MJDg6mtbVVzgD0ibxLUalUXWJ6fEHXl7a99Hnx4TuY0Ndu5cqVVFVVMX/+/MuugUAgEPxf5idLWVcqlUyYMIEJEyYgSZJfjIHZbObRRx/1C1L1er08+OCD8n/DxTfqmTNnMmPGDHnT9W1As2bNYubMmX79/uIXv/D7fU+MGjWKUaNGdTngLjQ0lLlz5/qN1+PxsGDBAjlV/be//W2X/n0xGd+H781br9fLafzfxee2+mcO3usuwyguLg673U5HRwd6vR5JkjAYDFitVpqamroNYu6pb8Cv75iYGLRaLe+88w7h4eF8++232O12goKCeOCBBwgNDf3BByBOnjz5B8/TR2pq6o86q0mSJD/XIFzMirLZbLS3t/u5Sh0OB9XV1X4xTpcyYMAAtmzZwh//+EeSkpLYv38/Y8eO9RMvXq9XPsDRarUCF11rP8QN5fF4egzm/u6cAPm5zczMJCkp6Xv7FwgEgv/LKLzfpwgE/za8Xi/19fVoNBoKCwvJysqSY4B8uN1uDh48SP/+/X+QCxEuvuUfO3aMAQMGyEG/vtig2tpaPwGnUqkYPnx4l+v2RFVVFeXl5XJ6+KWfNzU1yZ/54rGSk5O/d4P+78Zms3H48GGys7NlF5PX6+XUqVPU1tbKgtPj8aBWq8nJybnsvWhqamLnzp20traSnp7OqFGjuojWCxcuUFpaKv9doVCQlJREcnLyZccqSRKHDh0iNTW129OsfTQ2NlJUVMTQoUPFWT0CgUDwnwjRIxAIBAKB4KpAFBwVCAQCgUBwVSBEj0AgEAgEgqsCIXoEAoFAIBBcFQjRIxAIBAKB4KpAiB6BQCAQCARXBUL0CAQCgUAguCoQokcgEAgEAsFVgRA9AoFAIBAIrgqE6OmGqqoqCgoK5ArrPeGrCP99nDt3juLiYrmEw38HHo+HM2fOUFFRcdl2drudvLw8Ghoa/D53u91UVlbKc2hvbyc3N5fW1tbL9ud0OsnPz6e6uvqy7Zqbm8nLy6O9vf0HzEYgEAgEgn8e1YIFCxb8VBc7c+YMHR0dlz3C32q1kpubS1BQULeFFM+ePUtDQwMmk6nb3586dYqdO3cSFRX1vRWlfYLluzWvzp8/z6uvvkpQUJBc06muro7Vq1cTFRUll3Y4dOgQH3/8MYMHD0aj0cjCoKWlhfb2dmw2Gw6Hg6KiIpYsWUJaWppcSPO763L06FE6OjqIiYnpMsbi4mIqKiqwWCzU19dTV1dHY2MjAQEB6HS6budmt9vZtm0b7e3tREdHA7BlyxbWrFnDsGHDMBgM1NXV0dbWhs1mw+l04nQ6USqVrFy5km+//ZZx48bh9Xrp7OykubmZV155BYD4+Hiam5t55513uHDhAkOHDu1xjd1uN5999hkbNmxg9OjRaDSabmuMtbS08MYbb1BfX/+Di9gKBAKBQPDP8JMVRfJ4PHz11VfExMTQu3fvHtvV1tby4Ycf8tBDDxESEsKePXvo3bs38fHxAGzbtg2bzeZXrfxSOjs7+fzzz+ndu/dlaxP52i5fvpy2tjb0ej0ul4uwsDDuu+8+MjIy/KwdoaGhFBUVUV1dzfjx42UxcuzYMaxWK3q9HofDwccff0xtbS0mk4mioiIiIyOZP38+GzdupLOz0+/6kiSxatUqjh07Rq9evdi8eTMHDx7k/vvvJyAgALgoyHyiKDQ0VP4sLy+P6dOnM2vWrG7nptPpOHv2LOvXr+cvf/kLWq2WKVOmsH//frli+NatWzlx4gTR0dGUlJRgNpt5+eWXueGGG1i6dCler5dz586xfPlyTCYTkiSxa9cuTp06RXZ2NqNGjaKgoABArnKfmJjoJ4K0Wi2TJk3ib3/7G263m+bmZtasWYPL5UKlUmG32zGZTNx7772MHDmSsrKyy94zgUAgEAiulJ+0EuScOXMIDg7G7XbT2NiI0WjEarXidDplC0d0dDSPPfYYCQkJdHR08OmnnzJ58mTMZjMajYabbrrJr3hjc3Mzzc3N9OrVC7VazZAhQ0hJSeniSiotLaWiooIxY8bIBTB1Oh05OTm0t7djNBpZvnw5dXV1KBQK1Gq1X6FMrVZLXFwcFRUVVFZW4vF46OzsJCgoSLZcBAYGMnfuXNRqNVVVVcyfP58RI0YQGBiISqXiiy++IDc3lxtuuIG4uDhOnTrF7t27ef7550lMTKS+vp4XXniBw4cPM3r0aOCipScrK4vExET5OgEBAZSXl2OxWHpca5vNRn5+PklJSbS2tvKPf/yD1tZW7Ha7PK+ZM2dy4403Ultby+LFi8nOzubw4cOcOXMGjUaDJEkkJydzzz33sGfPHpRKJV6vl+HDhzN48GAOHDhASUkJb775JqNHj6a+vp5jx451sfwoFArZamcwGMjLyyM6OpqxY8dit9sJDw+X211ajVwgEAgEgn8lVyx6bDYbmzZtory8nLFjxzJ48ODLtr9w4QJvwlk3mQAAHqxJREFUvfUWkydPZsCAAfzpT3/C4XAQHh5OVVWVvAHv3LmTgwcP8uCDD7Jv3z4qKyvZsmUL7e3tjBgxgo8++og+ffowa9Ystm7dyoYNG9BoNERFRfHggw9iMBjweDxdXCi5ubns27ePESNGyJu+Wq1mxIgRwEWXliRJ3HPPPSiVym7jb6xWK2FhYaSmpqJSqTh79iwnTpzA4/HIbYxGI2fOnOHNN99k2rRp3HLLLXi9XjweD1FRUaSkpBAUFARAa2srer2exMREACIjIwkODqapqUnuT6FQsHXrVvbu3UtOTg5KpRKPx4PZbGbQoEHdrrXH4+G9995Dq9XS3NzM5s2bGThwIFVVVVRWVspuPYPBQENDA2+++SZ2u53o6Ghyc3PJzc2V+1Kr1djtdk6cOMHs2bMpKytj586djB8/HoVCgUqlIjQ0lPDwcNLS0qirq+syHpVKhdfrRZIkdDodMTExDBkyhAkTJnRp19jYSG5uLmazuYurTyAQCASCH8MVi55NmzaxePFibDYbBw4c4LXXXiM2NrbH9pGRkahUKgoLCxk/fjx9+/Zl7969PPnkk5w+fZqNGzcyceJEMjIy+OSTT2htbWXMmDHs37+fESNGMGbMGMLDwzEYDJSWlgIXhddNN91Ev379WLBgAQcOHGDKlCndXn/KlClce+213cbAVFVV8fLLLzNp0iSysrJ6nMPMmTM5dOgQX375JZWVlYwdO5bbbrtNji9qa2tj8+bN7Nq1ixtuuMFvLGq1mgkTJviJwyFDhrB161b+9Kc/MWTIEPLz87Hb7QwfPtzvugkJCQQEBDBp0iRCQkLkWCGDwYDX6/UTeE6nk3feeUeOSyovL2fhwoXMmzeP0aNHc/z4cVk4HTt2jOXLl3PttdcSFhbGmjVr+PWvf83QoUP54IMPZDFXX1+P0+mkf//+eL1e9uzZg9PpxOPxkJaWxp133gnA8ePH/axjvvE0NTUhSZJsoetOUNrtdux2O2VlZXz++edcf/31QvQIBAKB4F/KFYue8vJyHA4HQUFB1NXV0dzcfFnRExgYSFxcHCqVCrjoWho8eDApKSl4PB62bduGw+EgLi4Oo9GISqUiPj6e4OBgEhISiIuLAyAuLo7y8nIAMjMz2bhxI0ePHqW1tfWy2VEGgwGDwdDl89LSUhYvXszQoUO7xMf4NumvvvqK+vp6TCYTJpOJs2fP4na7MRqNuFwu3nnnHUJDQ4mIiODEiRM89thjJCYmkp+fT9++famrqyMlJaXLJh4UFMSzzz7LunXryM/PJywsjOeeew6z2ezXrn///pw6dYpPP/2UkpISkpOTUavVZGRkkJKS4tfWYrGgUCh45JFHOH/+PEqlkltuuUUWLsnJyZjNZiorK/n000+ZMWMGEydOBP4rgyo9PR2NRiPPf+TIkZSWlvLqq68iSRJ33nknWq0Wl8vlF5+lVCopKyvjm2++oaWlBYvFQnt7O9XV1TgcDvneezweDh8+LFt2Wlpa6Ojo4PTp0+Tk5PDoo4+i0Wh6vJcCgUAgEFwJVyx6xo8fz5EjR6ipqeG66667bHCyD1+sDCBvgD40Go1f8K5v07s0LdzntvLFh/ztb3+jX79+TJ48merqarlPtVot9+Vj+/btHDt2jMcee0z+rqysjNdff52xY8fK1opL8V3XaDRy8uRJOjs7iY6OZtCgQeTk5OB0OnG73Wi1WrRaLSNGjKCxsZE9e/ag0+l4++23efjhh2lvb+f06dPccMMNADQ1NdHY2IhWq0WlUnH99dfj8XhQKpU4HA7KyspwOp2EhoYSHBwsxznV1taycOFCZs6cSUpKCl6vV3aR+eYUFRXFww8/jMPh4KOPPqKlpUXOltu7dy9utxuXy0VERARPPfUUJpMJq9XKqlWr5LTy4uJipkyZ4heHM3bsWD777DPuuusukpOTkSSJEydO0K9fP3m9srKyKC4uJj8/n4iICBITE0lISKC1tZUvvvgCl8sFwPXXX8+BAwcoKioiPDycPn36EBsbS2hoKJ2dnT1mpAkEAoFA8GO4YtEzcOBAXn31VSwWC8nJyd+7UVksFvLy8ggNDaW6upqCggJaWlpobW2loKCAkpISSkpKkCSJ0tJSTp8+TVpaGmazmc8//5wDBw4wbtw4ioqKqKqqor6+HpfLRVtbG/n5+Vy4cIHCwkLi4uIoLS0lPz+fwYMH+1mWwsPD/VxBRqORefPm9ZgJ5hM91157LZmZmbz++usMGTKEUaNG9TjPlJQU/vjHP1JbW0tzczNKpRKbzcaZM2fkc38qKytZtmwZOp1Ozsi69JqSJOF0OklNTaWwsBCFQkFwcDBOpxOHw8E//vEPDAYDTqeTjo4O5syZw7Bhw4D/Sr/3xf0EBASgUqlQq9VotVqqqqpwu92EhITIKf2rV6+mqKiIhx56CEmSePPNN+ns7PQLGI+MjOTChQusXr2a6OhovF4v58+f98uQS0pK4sknn+yyJmVlZSgUCnk9x48fz/jx47u0O336tN+5P1VVVSiVSuHmEggEAsG/hB+VvRUdHS2fAfN9uN1uxo8fT2BgIE6nk5EjR+J2u5EkiaioKH72s5+hVqtRKBTMmTNHdvHcfffdrF+/nqioKOLi4hg8eDB9+/ZFoVDwxBNPsGnTJtxuNw8//DBWqxWHw8GsWbMwmUx+BweOGjWqi1iJiIggIiKi2/F+99BBk8mETqdj9+7dpKam4vF48Hq9OJ1OgoKC5Lget9tNbGwsY8eOxWKxkJ+fz/Hjx8nKyuKjjz7i0UcfZeDAgTz//PMA6PX6Hg84VKlUFBcXAxASEiJbuRwOhxxvI0mS7Pr77m/37NlDa2sr06ZNw+l0kpiYyJAhQ7q4jurq6oiNjZVdZWFhYV0OMQwKCkKj0RAZGUl6ejper5fS0lK/IO6e8Fnrujuf51JcLpdfm7feeovQ0FCeeOKJ772GQCAQCATfx0+Wsh4ZGekXM5OUlCT/9/Dhw/2Cdy8NJo6Li+OXv/yl3999mM1mHn744S7XGjJkyL9kzN9Nnx4+fDhffPEFS5YskYVKZ2cnEyZM4KabbgIuWo/cbje7d+/GbrezYcMGbrzxRiZPnszLL7/M0aNHue666y4b//SvmEtAQADDhw9n+/btlJeXy+KkpKSE8PBwv4Dq2267jb///e+8+OKLSJJEe3s79957r19/SqWSiIgIysvLcTqdwMXAbaPR+L1j8Xq9fu7Ly7W7dM3nzJnT7QGVAoFAIBBcCQrvD6mjcBVy7tw5QkJC/CxBHo+H5uZmP4uE1+slODhYdhVJkkRtbS3t7e2yFadXr14olUo6Ozvxer1yyvq/G5vNRk1NTZfxxsbGEhwc7Ne2oaGB/Px8VCoVmZmZ8tk5l9LY2Oh3YKNKpSImJqZLX9+lo6OD2tpakpOT/Vxm36W6uhqv19ut5UogEAgEgh+LED0CgUAgEAiuCkTBUYFAIBAIBFcFQvQIBAKBQCC4KhCiRyAQCAQCwVWBED0CgUAgEAiuCoToEQgEAoFAcFUgRI9AIBAIBIKrAiF6BAKBQCAQXBUI0SMQCAQCgeCqQIiebujuvMaOjg7a2tr+G0ZzZRw4cIADBw7Ilc17wmazUV9fjyRJP6hfr9f7g/pubGxk06ZNVFZWdvu91WolLy+P06dPy2Utfigul4sdO3Zw4sSJHmt/NTQ0/FP368yZM2zbtq3H37S3t1NTU/OD18lms7Ft2zby8/Mv2666uppNmzZRU1Pzg8cqEAgEgitDtWDBggU/xYW8Xi87d+6kqanpsnWntmzZwtq1a0lNTZVLO/yzHD16lKKiInr37n1Fvy8vL+ejjz4iMTFRLhlRWlrK3/72NzIyMggJCQEubmynT5+msrKSiooKqqqqqKyspLa2lqCgoMvWjaqpqWHjxo0cOnQIm81Gr169emxbWVnJmjVr0Ol0flXNfbhcLvbt28eRI0dQqVSYTCZOnz7NsmXLGDx4cI9FVeGimFuwYAEul4uMjIwu33u9XjZt2sSFCxdITExEqVRSWFjIO++8Q3Z2NhEREZSUlJCXl0dVVRW1tbXU1NSgUqn48ssvKS0t7VLo9ezZs7zxxhsUFRVx6tQpDh06RJ8+fS5bnmP37t2cOnWKxMRE1Go1hw8fZtWqVYwZMwaDwdCl/aZNm/jggw8YOXIkOp3Oby3r6urkNfnss8+orq4mMjKS119/HaPRSFpaWpf+Ghsb+d3vfofRaPR7rjweD263G5VK1WXdtm7dyvr16xk/fjxKpRKn04nL5cLpdOJ0OnG73Xg8Ht5//31qa2sZNmxYj/MXCAQCwY/nJ7X0FBQUcO7cucu2CQsL48iRIzQ1NV3xdc6dO0dhYSEAra2tfPDBB3R2dv7g35vNZoqKili2bBkbNmxg/fr1HD16lPLycj9LgCRJfPTRR/z9739n7969fPvtt+zcuZM///nPHDt27LLjW7hwIdXV1QQEBLB69Wo++uijHq0WkiTx9ddfU15e3uU7p9PJkiVL+Oqrr6ipqeHVV1/l6NGjXHvttZjNZmw222XnevDgQfLy8rrtG0ChUNDe3s7777+P1WoFkPu22+0AVFVV8c0333Ds2DG++OILnn76aSRJYuzYsTgcDvmPj08//ZSQkBDmz5/PCy+8QHt7Oxs2bLjsOD0eD8uXL6eurg6VSsXYsWN7rPnV0NDAvn37OHv2LBaLxe+7qqoq/vjHP5Kfn09HRwf19fVs376d3r1707dvX9l6dam1z+VysXnzZoqKiiguLvaz9litVv72t7+xceNGv+sEBAQwbtw4dDodCoWCxsZG5s+fz/PPP8+f/vQnFixYwHvvvYfJZGLkyJHyWgoEAoHg38ePrrLudDq/t3q2r93UqVMxmUzYbDYKCgowm820tbXR0dHB4MGDCQgIoG/fvsTGxlJXV0dLSwvR0dF+b9aFhYVUVVXRr18/YmJiqKmpoba2lvDwcLmo5YgRI9BqtbjdbvLy8ti2bRv9+vWjT58+hIaGyn0dO3aMM2fOcPvtt/vNwWAwEBkZicvlwmaz4fF48Hg8GAwGv4KZQUFBxMXFMWjQIO666y758xdffPGyImvDhg0kJiby+OOPAzBy5EgWLVrUbfX11tZWli1bhiRJctHQS/FZWV555RXMZjOff/45a9eulS0iPRX4bG1t5cMPP6SkpIRnnnmGY8eO8cILLzBr1iz69OkjWy48Hg8HDx4kJSUFu93OmjVr6OjooLm5GY1GA1wUQddeey1Op5MXX3yR6dOn07t3b0pLSzl9+jQLFy5k5MiRTJ48GYCoqCgKCgooLS3F4XDQ0dGByWTqcb0A9u/fj1KplK1/Xq+Xjo4O3nnnHVJSUpgxYwYajYaDBw+yevVqMjIyGDFiBK+//jqjRo1i6tSpBAcH069fP5RKJe+++y5JSUkUFhaSkJAAXCygunHjRkpLS5k5cya9e/emsLCQVatWoVareeWVV9ixYwfPPfcct9xyC9dccw0GgwGdTsfevXuZNm2a35hdLhdKpRJJkjCZTFitVjIyMhg/fjySJMmizel0+lmjBAKBQPDv4YpFj8Vi4YMPPqCsrIxp06YxderUy1bQrqioYNGiRdx4442MGTOG999/n5qaGjIyMqioqGD06NHMnTsXhUJBW1sbK1euJCwsjKamJp599lnS0tJYu3Ytu3btwmQysW7dOubNm0dzczMLFy4kPj4eu91OdnY2NTU1xMfHM2vWLLZu3Up7ezuff/45Y8aM4YYbbpDFQ0NDAxcuXOg2hsdut8uCy+v10tbWhiRJXWI63G43brfb7zNJkrrt00dAQICfBaan2JiqqioWL15MUlISCxcu5IMPPiAvL497770Xs9kMgFarRaFQ0NLSgtlspqWlRRYjPY3B4XCwdOlSwsLCuP/++9m7dy+33367LBieffZZWVysWLECh8NBQEAAX3/9NSkpKdTX11NQUODXf3l5OUuWLMFsNvPoo4+iUqlkt90dd9whjxfgzjvv5JNPPmHVqlUoFAquv/56brrpph7X6x//+AcNDQ2MGjWKV199lcceewyVSoVKpSIuLo7ExEQCAgLYu3cv69atY/bs2dTU1KDRaJg7dy7Lly8nODiYqVOnyiL91ltvZcCAAaxbt46zZ88CFwVeamoqo0ePJioqiqamJlatWkVmZiZ33HEHAMOHD2fNmjXs2rWL7OxstFotsbGxftXnL73PvvugVqsJDQ0lNTW1ixtRp9Nx7tw5tmzZQnJyMqmpqT2uhUAgEAiunCsWPevXr2fNmjV4vV7Onz9Pv379LhtDk5SURFpaGrW1tURERDBkyBCOHj3KU089RV5eHitXrsRms6FUKvF6vcyYMYOJEyfy0ksvcfToUSIiIli3bh233norgwcPZunSpXz88cc899xzxMfHM2LECEaNGoXL5eLAgQOcPXuW8PBwbrvtNurr63nwwQeJj4/3s5ZMmTKFyZMnd2tBueWWWzh+/LgciOp0Opk0aRIpKSl+7cxmM3v27KGqqgqn04lKpaKsrIzrr7++x7W48cYbWbBgAfPnzycyMpJDhw5x3XXXERMTI7c5deoUS5cuZfDgwUycOBGAZ599lr/+9a+89tprPPvsswQHB5OSksKkSZP461//SkREBK2trcybNw+j0Qh0FT7nz5/n+PHjmEwmsrKyaG5uZufOnWg0GoYOHUpQUBC7d+9m4MCB7N27l4MHD/LSSy9htVpZtGgRWVlZXHfddRw5cgSv14vb7ebrr79m79695OTk8LOf/Uy+lkajISEhgX79+tHR0cHrr79OR0cHsbGxaDQaIiIiUCqVWK1W3nvvPaqrq0lJSWH27NmoVCokSWLt2rVs376d3/3udyQmJvLGG2+wevVqbrnlFoKDg7n55psxGo3s3buX4uJiRowYQXBwMHv27KGgoIBHH32UKVOm0NLSwuHDh+nTpw8BAQFs376dvLw8SkpK5HV3OBxkZ2czbNgw9u3bx9dff01wcDBOp5Nly5bh8XhQq9UEBwej1Wp54403uPvuu1EoFH4xPQ6Hg9bWVoqKinC5XPLz9V1xbLVaaW1tpbq6mpaWFs6cOdNtzJZAIBAI/jVcseix2Wx4vV40Go0cmHnZC/3nZnGpNSg1NRWj0UhkZCQ6nU52BwQGBtK3b185cNfj8dDS0oLNZqOoqIgLFy4QHBxMWlqa7BpIS0sjMTERgLy8PJRKJQqFAqPRiFqtJiIiAr1e7zcml8uFy+WSA2HdbjcbN26ksrKSiIgIQkNDUSgUKJVKtFotSqWSDz/8kMDAQG677TYCAgK48847mTBhArm5uXzxxRf86le/wmQyER8f3+NaxMTEEBcXh8FgID09nePHjzNw4EA/8WU0GvnFL37BoEGDOHLkCG+99RZvvPEGCxcupKysTHaNKBQKZs+ezZAhQ7BYLPTq1QuVSsWBAwfo6OjoEmBrs9k4duwYYWFhnDx5Eo/Hw4QJE3C5XBw6dAiv10t7ezthYWG0tLTwm9/8RrbSTJs2jcLCQkwmE3q9nqCgIBwOByUlJYwcOZKZM2dy4MABTCYT0dHRWCwWsrOzgYsuw2HDhnH69Gna29vRarXo9Xq8Xi+tra0YDAaGDx9OTEyM/Iw4nU5sNhtPPvmkfG/Hjx9PcXExzc3NhIeH4/V68Xg8lJSUUFpaSq9evairq8NoNDJs2DCOHj1KQEAALS0tWK1WrrnmGn79619TVVWFRqMhJyeHhIQEvF4vycnJ8lyTkpLIzMyko6MDo9EoB5pbrVZKS0tJSkoiICCA4OBgNBoNBQUFvP3223R0dOBwOOQ4Hq/XK89HqVSyadMmysvLaWlpwe12o1QqOXPmDEOGDOHhhx++7L8hgUAgEPw4rlj0TJ06lZKSEsrLy5kyZQrJycnf+xuv1ytv7AqFQn7z9X2uUqnkDeLSgFKlUklISAiBgYGMGzeOQYMGUV9fT0BAAGq1uksA8KXX8Xg82Gw2rFYrSqUSvV4vZ1Vt3LiR/fv3s2DBAvR6PSqVipCQECwWC4GBgQQFBXH06FFqamqYPn06kiShVqvR6XSUlpbidDrR6/WyG8Pj8aBQKHC5XOTm5uJ0Ounbt68sUIqKirDb7ahUKqqrqxk9ejTp6el4PB5OnTqFRqPB5XKh1+uRJInQ0FCKi4ux2Wx0dnayZ88eUlJSkCSJ3Nxc7HY7e/bsQa1Wo9frcblcfPvttygUCqxWKzabrYvoycjI4IUXXpAzq4xGIyqVShYfY8aMYcSIEcBFVw5ctFy89957lJeXExQUxIEDB5gwYQKxsbGo1Wpmz57Na6+9RkJCAocPH0ahUPDwww9z4sQJOVZFqVQyYsQIBgwYwOrVq+UNX6lU0t7ezunTp5kxYwZhYWHyWPV6PXfffbc8hnfeeYfz588TFhbG9u3bueWWWwgJCUGpVHLvvfdSWlrK2rVr0Wq18rPhcDhQqVQ88sgjsuhNSkqipqaG9evXExYWJj8jdrudQYMGARAXF8edd97J22+/zdmzZ2XXa2dnJ5s2bSItLY0pU6YAMHjwYNn9mZKSQlRUFNHR0Vy4cIFVq1bJz/Ltt9/OyZMnCQoKIj09naioKKKiovjqq6+6BFwLBAKB4F/PFYuexMREFi5cSGdnJ+Hh4d/bvq6ujpMnTxIeHk5ZWRn5+fm0tbXR1NTEyZMnKS0tJS8vD0mSOHv2LAUFBURGRsop4TfddBPXXXcdK1as4MCBA5SXl3PrrbdiNBo5d+4cu3btIjMzE7gYoFxeXk5lZSVms5nQ0FAWLlxIdHQ0Dz30kPw2n56ejsFgkGNgFAqFHJTrQ6PRkJuby6xZs/zms2PHDr744gvCw8MxGAy43W4SExPZuHEjCoUCp9OJQqEgNjZWFj1nzpxhy5YtmM1moqOjKSsro6Kigvj4eMrLyzl37hxGo5G+ffuydetW9Ho9wcHBSJJEWloaR48e5cSJE/ImOnXqVNLT07HZbERGRhIWFkZoaChhYWHY7XZefvnlbi1warWa7OxsgoKCCAkJQaFQoFAoWLt2LcePH5dFj489e/Zw/Pjx/9/e3bu0z0VxAP+mtol9QUqrtVqtnaTiS2nFVyhBJ8EXELeOooOjODi5ioP+BQpuDkIHJ13EQUEcVNRVqlYLUly01r6kTZ5Bcp807a8qv2d4wPOZKslNr6nQk3vPOWJtbQ319fXY2dnB5eUlpqenAQButxscxyEajSKTyaC7uxuvr6+4v78vy09JpVJsm0gNco1GI/L5fNUKpqOjI9zc3GB1dRVOpxPb29s4PT0t2UZsbW1FX18fOI4Dz/PgOA7JZBLRaBQTExPweDzsXJ7n8fDwgMnJSTgcDjYnfSK51+vF5uYmJEli800mkyVBSmNjI8v50dL33gkEAggEAhU/D23gfnZ2BpvNhs7Ozj/eD0IIIT/3V9VbgiBU7UWjP3d+fh6CIMBisSASiUCWZfA8j2AwCK/XC4/HA1mWsbKyApfLBZ7nMTc3x75sIpEI/H4/4vE4RFFEV1cXnp+fsby8DJPJxLa0ZmZmIEkSamtrYbVasbi4iPPzc/j9/pIqoY6Ojoq9abQkSaqYEDw6OopgMMhWFNSVKn3ehrYqbGpqCqIosvumVoWpX3rFYhEGgwE8z2N4eBg1NTUwmUzs2toEaUVRqlb8SJKEQqFQMV8J+Nxa1AckV1dXFZOqjUYjFEVhK065XK7kvqhjBgcH8fLygkQiga2tLYTDYdze3mJ/fx9jY2PgOA4WiwXHx8fw+XwYGBhALpdj23zVfh91xUqdQyaTKZurIAglASvwmax+cHBQthpos9nA8zzMZjN730KhgFQqVTIPSZLgdDoxMjLCgsPHx8cvmz6q11NX/6rRX2tvbw8+n4+CHkII+Y/9dcn6d9nt9pLma263m73W91tR8zcAoL+/v+RYKBRCKBRiPzc3N5c9nWuPA59bFdqn/J8QBKGk8khLuxWj0m8naRkMhpIx2nPVAEelJiJ/99p6sizD4XBUbfin19TUVJb3BABDQ0O4u7vDxsYGzGYzZFnG7Owsm48gCPD7/bi4uIDJZML7+ztcLhcWFhZwcnKC6+tryLLMtg9FUUQsFkMsFmPBiDqmt7e34txEUUQ8Hsf6+josFgubQ7WKQfU+9PT0lP2Nud1utLe3Y3d3F4IgQFEUpNNphMNhjI+Ps/Pa2tpgt9txeHjIgj9FUao2k1QZDAY0NDR8+WCgbzq5tLT0rTYQhBBCfoZTqtVWE6TTaciy/MdGeP9XhUIBb29vLGfnu2P0lUhaiUQCHx8fLAlbPzadTrPVNjVHSj1mNP4bX+fzeaRSKdZ7SM3Bqqur+zJAeHp6QjabRUtLy7d626graNqAUlUsFsuaN/I8XxZwpNNpZLNZNleTyQSr1frlfc3lcshkMiW9oSpJpVLgOO5HASohhJCfo6CHEEIIIb8C/cNRQgghhPwKFPQQQggh5FegoIcQQgghvwIFPYQQQgj5Ff4Be4c7J+tinNMAAAAASUVORK5CYII=;imageBorder=#A680B8;strokeWidth=0.5;" vertex="1" parent="1">
          <mxGeometry x="400" y="650" width="440" height="289.49" as="geometry" />
        </mxCell>
        <mxCell id="lCTsMt4DWsGQYDhc63Y_-18" value="&lt;font style=&quot;font-size: 10px&quot; color=&quot;#050505&quot;&gt;출처:&amp;nbsp;&lt;span lang=&quot;EN-US&quot; style=&quot;text-indent: 40pt&quot;&gt;: &lt;/span&gt;&lt;span lang=&quot;EN-US&quot; style=&quot;text-indent: 40pt&quot;&gt;&lt;a href=&quot;https://www.codingfactory.net/10630&quot;&gt;https://www.codingfactory.net/10630&lt;/a&gt;&lt;/span&gt;&lt;/font&gt;&lt;p class=&quot;MsoNormal&quot; style=&quot;margin-left: 280pt ; text-indent: 40pt ; font-size: 10px&quot;&gt;&lt;font style=&quot;font-size: 10px&quot; color=&quot;#050505&quot;&gt;&lt;span lang=&quot;EN-US&quot;&gt;&lt;/span&gt;&lt;/font&gt;&lt;/p&gt;&lt;span style=&quot;font-size: 10px&quot;&gt;&lt;font color=&quot;#050505&quot;&gt;&amp;nbsp;&lt;/font&gt;&lt;/span&gt;" style="text;html=1;strokeColor=none;fillColor=none;align=right;verticalAlign=middle;whiteSpace=wrap;rounded=0;" vertex="1" parent="1">
          <mxGeometry x="440" y="950" width="400" height="30" as="geometry" />
        </mxCell>
        <mxCell id="lCTsMt4DWsGQYDhc63Y_-20" value="Box-sizong의 기본값 content-box&lt;br&gt;: 테두리를 제외한 안쪽 흰 여백이 200px x 300px 이고&lt;br&gt;&lt;br&gt;box의 width = 200px + ( 양 옆 테두리 10px x 2 ) = 220px&lt;br&gt;box의 height = 300px + ( 위아래 테두리 10px x 2 ) = 320px&lt;br&gt;로 적용됨을 알 수 있습니다." style="rounded=0;whiteSpace=wrap;html=1;align=left;strokeColor=#A680B8;" vertex="1" parent="1">
          <mxGeometry x="10" y="530" width="350" height="120" as="geometry" />
        </mxCell>
        <mxCell id="lCTsMt4DWsGQYDhc63Y_-23" value="" style="shape=image;verticalLabelPosition=bottom;labelBackgroundColor=default;verticalAlign=top;aspect=fixed;imageAspect=0;image=data:image/png,iVBORw0KGgoAAAANSUhEUgAAAKYAAAD9CAYAAAA2wQxDAAAPWElEQVR4nO3beWyU953H8fczz8x4PLbHNhgcbhNOk0AayMEREG2TNhxJlmUVqWlTqbtStFltFEVapVH3j0abrLpVdpVtqmobrRQlbLQlgZCmRRRYKGcIBMIRXBsIGJvDYLCx8TXjuZ79Y2bwASEEk+Sb8Hn9Y8/4mef5zfjt33PM2PE8z0PEGN9XPQCRK1GYYpLCFJP8mS8eu7e8SVvLGVx/4KsdkXwzeR44DtMrxlGUn08qnb7q4v7cN2dPVtN09ij+QN4XPka5+Xieh+M43FYIhUUR0qnUVZe/FGYgGCKYF1aY8oXIhen488ANAlcPU8eYYpLCFJP8n70IgK7By+fhDHgN1xZmOgWkb8gG5ZvMAxzw+RloK1cPM3uKnxi9FC80BLzkgDYm33QO4BE4+R5O93lwrnGHfAWf8cjMX0C6aDzpgjGQ7r7uDclNwHHBSxFoWAteekCT5jXuyrtxUlFIx69/S/LN5/gyQd6AzwXprFxMUphiksIUkxSmmKQwxSSFKSYpTDFJYYpJClNMUphiksIUkxSmmKQwxSSFKSYpTDFJYYpJClNMUphiksIUkxSmmKQwxSSFKSYpTDFJYYpJClNMUphiksIUkxSmmKQwxSSFKSYpTDFJYYpJClNMUphiksIUkxSmmKQwxSSFKSYpTDFJYYpJClNMUphiksIUkxSmmKQwxSSFKSYpTDFJYYpJClNMUphiksIUkxSmmKQwxSSFKSYpTDFJYYpJClNMUphiksIUkxSmmKQwxSSFKSYpTDFJYYpJClNMUphiksIUkxSmmKQwxSSFKSYpTDFJYYpJClNMUphiksIUkxSmmKQwxSSFKSYpTDFJYYpJClNMUphiksIUkxSmmKQwxSSFKSYpTDFJYYpJClNMUphiksIUkxSmmKQwxSSFKSYpTDFJYYpJClNMUphiksIUkxSmmKQwxSSFKSYpTDFJYYpJClNMUphiksIUkxSmmKQwxSSFKSYpTDFJYYpJClNMUphiksIUkxSmmKQwxSSFKSYpTDFJYYpJClNMUphiksIUkxSmmKQwxSSFKSYpTDFJYYpJClNMUphiksIUkxSmmKQwxSSFKSYpTDFJYYpJClNMUphiksIUkxSmmKQwxSSFKSYpTDFJYYpJClNMUphiksIUkxSmmKQwxSSFKSYpTDFJYYpJClNMUphiksIUkxSmmKQwxSSFKSYpTDFJYYpJClNMUphiksIUkxSmmKQwxSSFKSYpTDFJYYpJClNMUphiksIUkxSmmKQwxSSFKSYpTDFJYYpJClNMUphiksIUkxSmmKQwxSSFKSYpTDFJYYpJClNMUphiksIUkxSmmKQwxSSFKSYpTDFJYYpJClNMUphiksIUkxSmmKQwxSSFKSYpTDFJYYpJClNMUphiksIUkxSmmKQwxSSFKSb5r2kpNwT+MKSvbXG5STk+8NKZr3gDWtXVS3OczEJnNkCgKLNRkc+SaANnYJPYZzw6E6bb9AGOopRr5Ln54LgDWsc17srzBzgxi3w+OvkRkxSmmKQwxaRLx5iJeJR4rIN0KvlVjke+oTzPw3EcvGQMkkFIpa66vON5ngdQW7OdaGcrPvd6zqYc/H6XVCpFdnUifXmAAxVDygkFgqQ/o5NLYQ5UZzRJQb4uwMuNcUOOMWtqjvDmst+wa9euG7E6kYGHWVV1mIMHN7J06USamg6wfbvilIEb0K78449rqKnZwqJF4yksLCCVirNmzWFKSqYxd+7MGzlOuclc94xZVXWY6urNLF48jsLCfCCB67osXDiJCxf2sWXLjhs4TLnZ9JkxW1paOHXqDLn3yD/NhQutnDtXxYIFFRQWhoHep/4+UqkU69d/guPcyvDhw3KfBZHPzWPUqOGUlJR81QP50vUJc/PmLZw8uYdRo4YAV/7QRjrt4bpw992jCIfz6Rtljg/PS7Fz5wm6uhK47o26jp8bqnMd931RPs+YPs94fJw40cjYsbOYO/e+gQzwa6nP9R3Pg3vuGc2kSRVAInuvS+ZFTZN5YV0yMSa5cpQAaRzHx6xZ44D87LoGeuHeB4Sy248DMSCQvY/s7UT2KeX+YGIM9HOBV+dkt+Vmtx3Lfh/KjjeWHaubXc4Dotc4pgDV1UGamr6AYX8N9AnTcRzi8RQ9IbmceL+RwvIgg8YXEe/spm5TC+O+Nxg32H8WdOj7gme+P713O6VjRhEePAzo7vXz/sHnHuPj8tnaRzQaZfPm7TQ0NHP//XcxZsxozp49w6ZNe3FdH4sWzaagoJB4vIvVqzdQUTGM6dNvy27zSjNX71nteuL1EYsl2LRpB6dOnWPOnGlMmTKB1tZmNm78iK6ubh56aDYlJaVAkjVr1lNUFGbu3Blc/kd6pTFBPJ7CuUmPgy7fx3qQeWF8JGNpqlc20rCnDfARb08RbUngpcFL9941OZnptg8H8HPk/9Zyoa6OdDJJZiZxgBDxzrbs9wFSidxMFwQ80pe9XRXk0KF6li/fwJ49NTz++As0Nl5g69YD/PnPH7F8+QaefPLfSaWCvPDCG6xYsZlnn/0vNm78gMxMBdFoglwAyWQq+9R9pFJp0ukrhZnbO/iyX/sH4qOlpY2tW/dRW9vAT37yr1RXH+Pjj4+zdu0u1q7dxY9//CLxOLz88lu89toaXnxxGW+/vf7SmGKxBOl0GvCRSCQvjSmdTt/076Bd9laN4zqQ9tj2b7V0NXXT8FEbExYMAS/JvtdOk056+EM+ztd0cHRtE7OeGc+Jbec5s7+de5+qoP+JkBvwc3DVOxxZv45x87/DmFkP8Jc//C9nDuwjr7CQu//u7zlzYA9dLS2Mm/cd9v7uTab/8HFCkUivdcW4/faxvPHGvwCFzJ//Q6qq/sLSpd/j0UeX0NBwlEceeY7a2sPU1NTxq189w4MPPsM772xmzpy7WbXqAIGAj2DQz8KFE9m58yRlZWFKSvLZu7eB739/Aj5f7xnL5dix85w718mMGSPYsuU499wzkuLifHpm8yTDhg3iF7/4R1pb29m//xNqa0+yYMF85s2bTTzewr33PsGxY0fZuHEvv/zlP/D00y+zfPkGliz5Lu++ezB7UuiwcOEkDh8+h+fB2LGlbNtWz+LFldkx3ZwumzED+T7O7Gqh8WA79z03kcKyIImuFDh+Jj40lMYDHSSjKYpH5lO/tYWu5iiHfn+OvIif3CzZMzNCPBplzKxZ3PbIEqr/+B4t9dUc376VWU/+E/5QPtV/XMWI6fM5f+gw657/Z8rGTyAUKaP/8WsgkDl2XLlyFZFImJkz78R1M4cCL730OxYvnkUg4Mfnc/jtb9+lsnIMqVSaixe7uHAhxoMPVpJOexw82MjUqcP58MPTrF59mClThuL3++m7O09zyy3FnD7dxiuvfEAw6FJYGOLyQ4wgR48eZ8mSZ2lpaWf27Gm4bhrw88orK7nvvmmUlw/CdX28/voaRo0aSjicx8WLHTQ2dvLAAxMoLs5j797TTJ48jEOHmnj77SomTizDdYOfMpPfHC4L03Gh40w3JRUhCoZGGDQhTCqeOQ6MjAoRGuTHF/ARLApxyx1F7P3vU0RbE0x6eAgA0ZZmWuqP4qVTgIc/L0R5ZSXlU27HDfhpP3OS/NJBFJRVMmTSZDrOnSNYMIrIiBE01lQzZmbuwnz/49Uwu3bt5vXX1/Cb3zxHQUEECPDqq/9DV1c3P//5M0Qi+WzffpBgMMCPfrSAeDyB4zgMGRKmqChCeXkhra1RSkqK8fkc2tpijB07iCsdYzqOg+Nkdvuu67vCsZ4HpBg/fgLr17/KPfdUsmLFRqCUFStW8dFHh/n1r39KcXEh1dV1tLd38tRTj5JMJnEcH4MHhykpKWbYsCIuXowRDhdQUBCgubmLCRMGD/T3+rV3WZiphMfQ2wtpOtTFJ386wbGNzbhBH4nOOLXrm2k+0kXthgskuuJM+ZtbeP+l40RGhMgvDQFhDr6zkpVP/C3xjg4gj2hrC9WrV3Nw1Ur8oRBDJn+L2MVWareuoHbbNoZNncapj/5A87GjzH7yKba98p/EOzvoe5QR4siRT1i69KdMnz6Jmpp6Ojou8tZbq/nZz17lvvumsXHjDiKRCHfdNQm/38+KFZuYN28aoZCfhoZ2Dh6s4+jRZioqStm58zCRSB533jmc996rJpnsfynHx6lTLZSVhXn66Tm0tcVob4/2e7mCHDtWz7Jlv2fHjo+pqaljyJBB7N69gyef/A/mzLmDdet2k0x6zJ59G0VFhSxb9idmzJhEUVE+5893sG9fHVVV56ioKKWqqo7u7hTz5lWwcmVVNuCbd1fuPv/888/nbtTV1RMKtDF6Sjl5EYdTH7Qyem4pt353EImuJCfeb2HQuHyiFxIMnphP6a0F5EX8TP6roYQHB8jNIpHhIxg+bRo+v49QYZhENErsYivf+sFjFJSNomREOcff30555SQmL1jMuUNVjJs3nzGzHiARbSM/EiYvUkrPrtNPU1MzgYCfoqJ86utPMXXqWDo7Y4wcOZSurihNTU3ce28l3/72DLZt28+UKWN44om/pqmpjfr6Vhwnc/xWWTmEs2c7mDlzFBMnltHaGqW0NEReXm78AB6DB4epqBhEIOAyYUIZoZBL35nVJRqNsW7dh1RVHeL+++/msccWcPr0acrKSvC8NA0NZ7jjjvEsWjSH3burKS4O88wzP6Crq5ujR5txXR+33FLInXcOp6GhjRkzhjNpUjmdnd2UlYVobe0iFitmzJjRX0IKtvS7wL6VwYMbmDp1NH0vXeSO93Kf1cxd5vHIzGzpXrdDZM6uO7L3hem5NJQgc/kmd53PIXNdLy+7bDy7fCy7zd6XkQJkzmZzsUaz9wV73deZvS+QvZ2gru48Bw6c5ZFHpmbXk8yOJ/cYl+u7xpp77qHsWF2gq9d9ufV3ZX+Wl70dp7Gxle3b61m6dGr2dUjQ9/JZ5nh9//5a2tsrmDt3znWM7+vtsrPyYNAl84tNXmWxzOWkHi490abJhJV7TLLfunIh9cyGPeEH6PklXekDy7F+20z3u68nyJyKikGMHBnpNe7cMr4rPO56xOn54809595j8vdaLqO8PMLDD1f2GkPv7buXHpf5Xdyc+r3zk2LPnhM0NcXwviH/R+44Dj6fQypl5/k4Driuj2Ty08fkOD7q6s4ycuSIL3FkdvTZlZ8/f57a2jocJ7ebla+Oh+d5jBtXQVlZ2Vc9mC/dDfvXCpEbSf++KyYpTDFJYYpJClNM+n8KraqjRM9TbwAAAABJRU5ErkJggg==;imageBorder=#A680B8;strokeWidth=0.5;" vertex="1" parent="1">
          <mxGeometry x="170" y="650" width="189.94" height="289.49" as="geometry" />
        </mxCell>
      </root>
    </mxGraphModel>
  </diagram>
  <diagram id="pP2Amr118pRWXP-afI6A" name="Q4">
    <mxGraphModel dx="1422" dy="794" grid="1" gridSize="10" guides="1" tooltips="1" connect="1" arrows="1" fold="1" page="1" pageScale="1" pageWidth="827" pageHeight="1169" math="0" shadow="0">
      <root>
        <mxCell id="0" />
        <mxCell id="1" parent="0" />
        <mxCell id="6EolCEhgeUeRJVcmwmHb-1" style="edgeStyle=orthogonalEdgeStyle;rounded=0;orthogonalLoop=1;jettySize=auto;html=1;fontSize=12;fontColor=#050505;endArrow=none;endFill=0;" edge="1" parent="1" source="j3Q1CA08dJk5p1rs0dHj-1" target="uWAPfvvIbVocckOVCkJE-1">
          <mxGeometry relative="1" as="geometry" />
        </mxCell>
        <mxCell id="j3Q1CA08dJk5p1rs0dHj-1" value="Q4" style="swimlane;fillColor=#e1d5e7;strokeColor=#9673a6;" vertex="1" parent="1">
          <mxGeometry x="80" y="40" width="680" height="160" as="geometry" />
        </mxCell>
        <mxCell id="j3Q1CA08dJk5p1rs0dHj-2" value="&lt;p class=&quot;MsoNormal&quot;&gt;&lt;u&gt;&lt;span style=&quot;font-family: &amp;#34;맑은 고딕&amp;#34;&quot;&gt;마진병합&lt;/span&gt;&lt;/u&gt;&lt;u&gt;&lt;span lang=&quot;EN-US&quot;&gt;(margin collapse)&lt;/span&gt;&lt;/u&gt;&lt;u&gt;&lt;span style=&quot;font-family: &amp;#34;맑은 고딕&amp;#34;&quot;&gt;은&lt;/span&gt;&lt;/u&gt;&lt;u&gt; &lt;span lang=&quot;EN-US&quot;&gt;CSS &lt;/span&gt;&lt;/u&gt;&lt;u&gt;&lt;span style=&quot;font-family: &amp;#34;맑은 고딕&amp;#34;&quot;&gt;박스&lt;/span&gt;&lt;/u&gt;&lt;u&gt; &lt;/u&gt;&lt;u&gt;&lt;span style=&quot;font-family: &amp;#34;맑은 고딕&amp;#34;&quot;&gt;모델을&lt;/span&gt;&lt;/u&gt;&lt;u&gt; &lt;/u&gt;&lt;u&gt;&lt;span style=&quot;font-family: &amp;#34;맑은 고딕&amp;#34;&quot;&gt;제대로&lt;/span&gt;&lt;/u&gt;&lt;u&gt; &lt;/u&gt;&lt;u&gt;&lt;span style=&quot;font-family: &amp;#34;맑은 고딕&amp;#34;&quot;&gt;이해하고&lt;/span&gt;&lt;/u&gt;&lt;u&gt; &lt;/u&gt;&lt;u&gt;&lt;span style=&quot;font-family: &amp;#34;맑은 고딕&amp;#34;&quot;&gt;응용하기&lt;/span&gt;&lt;/u&gt;&lt;u&gt; &lt;/u&gt;&lt;u&gt;&lt;span style=&quot;font-family: &amp;#34;맑은 고딕&amp;#34;&quot;&gt;위해&lt;/span&gt;&lt;/u&gt;&lt;u&gt; &lt;/u&gt;&lt;u&gt;&lt;span style=&quot;font-family: &amp;#34;맑은 고딕&amp;#34;&quot;&gt;꼭&lt;/span&gt;&lt;/u&gt;&lt;u&gt; &lt;/u&gt;&lt;u&gt;&lt;span style=&quot;font-family: &amp;#34;맑은 고딕&amp;#34;&quot;&gt;필요한&lt;/span&gt;&lt;/u&gt;&lt;u&gt; &lt;/u&gt;&lt;u&gt;&lt;span style=&quot;font-family: &amp;#34;맑은 고딕&amp;#34;&quot;&gt;필수&lt;/span&gt;&lt;/u&gt;&lt;u&gt; &lt;/u&gt;&lt;u&gt;&lt;span style=&quot;font-family: &amp;#34;맑은 고딕&amp;#34;&quot;&gt;개념입니다&lt;/span&gt;&lt;/u&gt;&lt;u&gt;&lt;span lang=&quot;EN-US&quot;&gt;.&lt;/span&gt;&lt;/u&gt;&lt;/p&gt;&lt;p class=&quot;MsoNormal&quot;&gt;&lt;u&gt;&lt;span lang=&quot;EN-US&quot;&gt;&amp;nbsp;Question.html&lt;/span&gt;&lt;/u&gt;&lt;u&gt;&lt;span style=&quot;font-family: &amp;#34;맑은 고딕&amp;#34;&quot;&gt;에&lt;/span&gt;&lt;/u&gt;&lt;u&gt; &lt;/u&gt;&lt;u&gt;&lt;span style=&quot;font-family: &amp;#34;맑은 고딕&amp;#34;&quot;&gt;있는&lt;/span&gt;&lt;/u&gt;&lt;u&gt; &lt;/u&gt;&lt;u&gt;&lt;span style=&quot;font-family: &amp;#34;맑은 고딕&amp;#34;&quot;&gt;여러&lt;/span&gt;&lt;/u&gt;&lt;u&gt; &lt;/u&gt;&lt;u&gt;&lt;span style=&quot;font-family: &amp;#34;맑은 고딕&amp;#34;&quot;&gt;예시를&lt;/span&gt;&lt;/u&gt;&lt;u&gt; &lt;/u&gt;&lt;u&gt;&lt;span style=&quot;font-family: &amp;#34;맑은 고딕&amp;#34;&quot;&gt;보고&lt;/span&gt;&lt;/u&gt;&lt;u&gt;&lt;span lang=&quot;EN-US&quot;&gt;, &lt;/span&gt;&lt;/u&gt;&lt;u&gt;&lt;span style=&quot;font-family: &amp;#34;맑은 고딕&amp;#34;&quot;&gt;각&lt;/span&gt;&lt;/u&gt;&lt;u&gt; &lt;/u&gt;&lt;u&gt;&lt;span style=&quot;font-family: &amp;#34;맑은 고딕&amp;#34;&quot;&gt;예시&lt;/span&gt;&lt;/u&gt;&lt;u&gt; &lt;/u&gt;&lt;u&gt;&lt;span style=&quot;font-family: &amp;#34;맑은 고딕&amp;#34;&quot;&gt;별로&lt;/span&gt;&lt;/u&gt;&lt;u&gt; &lt;/u&gt;&lt;u&gt;&lt;span style=&quot;font-family: &amp;#34;맑은 고딕&amp;#34;&quot;&gt;마진&lt;/span&gt;&lt;/u&gt;&lt;u&gt; &lt;/u&gt;&lt;u&gt;&lt;span style=&quot;font-family: &amp;#34;맑은 고딕&amp;#34;&quot;&gt;병합이&lt;/span&gt;&lt;/u&gt;&lt;u&gt; &lt;/u&gt;&lt;u&gt;&lt;span style=&quot;font-family: &amp;#34;맑은 고딕&amp;#34;&quot;&gt;일어나는지&lt;/span&gt;&lt;/u&gt;&lt;u&gt; &lt;/u&gt;&lt;u&gt;&lt;span style=&quot;font-family: &amp;#34;맑은 고딕&amp;#34;&quot;&gt;여부와&lt;/span&gt;&lt;/u&gt;&lt;/p&gt;&lt;p class=&quot;MsoNormal&quot;&gt;&lt;u&gt;&lt;span lang=&quot;EN-US&quot;&gt;, &lt;/span&gt;&lt;/u&gt;&lt;u&gt;&lt;span style=&quot;font-family: &amp;#34;맑은 고딕&amp;#34;&quot;&gt;마진&lt;/span&gt;&lt;/u&gt;&lt;u&gt; &lt;/u&gt;&lt;u&gt;&lt;span style=&quot;font-family: &amp;#34;맑은 고딕&amp;#34;&quot;&gt;병합이&lt;/span&gt;&lt;/u&gt;&lt;u&gt; &lt;/u&gt;&lt;u&gt;&lt;span style=&quot;font-family: &amp;#34;맑은 고딕&amp;#34;&quot;&gt;일어난다면&lt;/span&gt;&lt;/u&gt;&lt;u&gt; &lt;/u&gt;&lt;u&gt;&lt;span style=&quot;font-family: &amp;#34;맑은 고딕&amp;#34;&quot;&gt;아래&lt;/span&gt;&lt;/u&gt;&lt;u&gt; &lt;/u&gt;&lt;u&gt;&lt;span style=&quot;font-family: &amp;#34;맑은 고딕&amp;#34;&quot;&gt;페이지를&lt;/span&gt;&lt;/u&gt;&lt;u&gt; &lt;/u&gt;&lt;u&gt;&lt;span style=&quot;font-family: &amp;#34;맑은 고딕&amp;#34;&quot;&gt;참고하여&lt;/span&gt;&lt;/u&gt;&lt;u&gt; &lt;/u&gt;&lt;u&gt;&lt;span style=&quot;font-family: &amp;#34;맑은 고딕&amp;#34;&quot;&gt;그&lt;/span&gt;&lt;/u&gt;&lt;u&gt; &lt;/u&gt;&lt;u&gt;&lt;span style=&quot;font-family: &amp;#34;맑은 고딕&amp;#34;&quot;&gt;이유를&lt;/span&gt;&lt;/u&gt;&lt;u&gt; &lt;/u&gt;&lt;u&gt;&lt;span style=&quot;font-family: &amp;#34;맑은 고딕&amp;#34;&quot;&gt;적어주세요&lt;/span&gt;&lt;/u&gt;&lt;u&gt;&lt;span lang=&quot;EN-US&quot;&gt;.&lt;/span&gt;&lt;/u&gt;&lt;/p&gt;" style="text;html=1;align=center;verticalAlign=middle;resizable=0;points=[];autosize=1;strokeColor=none;fillColor=none;" vertex="1" parent="j3Q1CA08dJk5p1rs0dHj-1">
          <mxGeometry x="50" y="40" width="580" height="100" as="geometry" />
        </mxCell>
        <mxCell id="uWAPfvvIbVocckOVCkJE-1" value="&lt;font style=&quot;font-size: 12px&quot;&gt;&lt;b&gt;마진병합은 아래와 같은 상황에서 발생합니다.&lt;br&gt;&lt;/b&gt;&lt;br&gt;1. 인접 형제 요소간 마진 병합이 발생합니다.&lt;br&gt;2. 부모와 자손을 분리하는 콘텐츠가 없는 경우 발생합니다.&lt;br&gt;( 부모의 테두리, 인라인, 패딩 등 )&lt;br&gt;3. 위 아래 마진만 병합.&lt;/font&gt;" style="rounded=0;whiteSpace=wrap;html=1;fontSize=10;fontColor=#050505;strokeColor=#A680B8;strokeWidth=0.5;align=center;" vertex="1" parent="1">
          <mxGeometry x="80" y="240" width="680" height="100" as="geometry" />
        </mxCell>
        <mxCell id="6EolCEhgeUeRJVcmwmHb-2" value="" style="shape=image;verticalLabelPosition=bottom;labelBackgroundColor=default;verticalAlign=top;aspect=fixed;imageAspect=0;image=data:image/png,iVBORw0KGgoAAAANSUhEUgAAAWoAAACpCAYAAAAC03dNAAAJWUlEQVR4nO3dW0hUexvH8d+ag6Nokg0FRZAltKt3Z0FZQeTO6qIa6qI2UVARdGN30UW7MCgKIuiABhViXRRRF0Gxs4SgooNFUEHUhXS2fDdSYWd11Mb1Xvhme9LGUbN5HL8fEGRmudajOF+W/zXOOK7rugIAmOVJ9AAAgNgINQAYR6gBwDhCDQDGEWoAMI5QA4BxhBoAjCPUAGAcoQYA4wg1ABjXo1BHIhF9/PjxpwxQW1urV69e/ZR9AUAy6lGoa2trtWDBAuXl5Wnnzp169+5djw7e3NyszZs3a8KECZo/f75Onz7do/0AQDJz4n1Rpkgkor179+rt27fKz89XZmam1q9fr7t37+rUqVP6888/ezRAXV2dysrKtHnzZk2aNEn37t3r0X4AIFnFfUbt8Xg0btw4XbhwQaFQSE1NTdqxY4ckyefzxfzaqqoqFRUVqaKiQpFIJOq+YDCoTZs2afDgwUpNTY178CdPnqipqSnu7QGgv4oZ6oaGhvbPHcfR4sWLVVJSIkl68+ZNe3S9Xm/MgwwePFjV1dUKhUKaM2eOampqou7/9OlTl/upr6/X06dPderUKYVCIU2bNk0vX76MeVwASAY/DPXly5eVm5ursrKyqNu/xtTv9+vrqonHE/vEfPjw4SotLVVGRoauXbum5ubmzoeJsZ/i4mItWrRIK1asUEVFhcLhsBzHiXlcAEgGHcpYVVWl/Px8zZ07V1JbIEOhkCorK3X79m1dv35dUluwv4YynmAeOHBAnz9/1p49e5STkxN1n+M4chwn5hl1YWGhKioqdPv2bQWDwQ5LKACQrKIWlz98+KClS5fq4cOHOnnypJYsWaL3799r+vTpmj17tmbNmqX6+npJ0We/XZ1RP3r0SNu2bZMkjR079ofbxQp+MBhUMBhUdna2srKyevxMEwDob6IKe+fOHVVVVWnLli1avny5UlJSNGzYMK1bt04+n0/l5eXav3+/JMl13bjPqNeuXSvXdVVYWKhVq1bp3LlznQ/TRfCltqf0tba2suwBYMCIKuOXL18ktV38+7e6ujplZWUpIyNDmZmZkr4tV0ixA7tx40ZVVlbq2LFjOnTokJYuXapFixZp69atHYeJI9QAMNBElTEvL0/Z2dnasWOHKisrFQ6HdenSJe3bt08ej0fFxcXat2+fpPjWqHft2qXdu3fr6NGjWrZsmSTp4MGDysvL0/bt23XixImo7bt69ggADERRoR4yZIjOnDmjnJwcFRQUaPLkyVq4cKHmzp2rgoIC3bp1q9M4d3YmvGvXLu3Zs0cVFRVavXp1++2BQEBHjx5VWlqaiouLJX0LNMsZANBRh/9UmTx5sm7evKmrV6/q9evXGjlypPLz89vvf/DggQ4fPizXddsD/X1gL168qJs3b6qyslLjxo3rcNDx48fr/PnzevbsmSSptbVVEmfUANCZTv+l0O/3a968eZ1+wefPnzvc9v0Z9dSpU3X27NmYBy4oKFBBQYGkbxcmWaMGgI66XcZ/L338aI36+4uR3d13LCkpKe2fDxo0qEfHAYD+JPaLdHTiayjT09PV2NgoqffP1vga6FivGVJTU6MbN27o+fPn7UsmJSUlmjhxokaPHq0ZM2b0agYAsKrboR41apQ2bNig3NxcXblypW0nXbwoUzwikYjS09N/eH9tba3OnTunSCSiNWvWyOPxqLq6Wi9evNDMmTMJNYCk1e3CBoNB7d27N+q2oUOH9m4In09+v19jxoz54TbTpk3T8ePHe3UcAOiPenUqnJeXpyNHjig7O7tXQwQCAZWWlmrKlCm92g8AJKO43zgAAJAYPB8OAIwj1ABgHKEGAOMINQAYR6gBwDhCDQDGEWoAMI5QA4BxhBoAjCPUAGAcoQYA4wg1ABhHqAHAOEINAMb5JCkcDuu///yjL64rxfG+hf1eS0uiJ0A3eL0S73vcNyIRqbU10VMMPK7ryuPxKCsrS8OGDetye58k3b9/X7P/+ENpkryOo6R+gWrHkdLS2h75vBS3eY4jhcPSly+JniQ5+f1SIMBD4VdzHEcfPnzQypUrdeTIkS6390lSYySilHBY5ZKCfT1hogUC0okT0qhRiZ4EcfrrL+nvvxM9RXJatUrasCHRUww8juOoqKhItbW1cW3v+/9XKU1SrqSMvpvNhtRU6fffpREjEj0J4hTHX4booREjpN9+S/QUA9Pw4cP1+PHjuLZtX/lzJTX21USWuK7UOCC+06TBskff4XJN4rS0tMiJ85ogl2gAwDhCDQDGEWoAMI5QA4BxhBoAjCPUAGAcoQYA4wg1ABhHqAHAOEINAMYRagAwjlADgHGEGgCMI9QAYByhBgDjCDUAGEeoAcA4Qg0AxhFqADCOUAOAcYQaAIwj1ABgHKEGAOMINQAYR6gBwDhCDQDGEWoAMI5QA4BxhBoAjCPUAGAcoQYA4wg1ABhHqAHAOEINAMYRagAwjlADgHGEGgCMI9QAYByhBgDjCDUAGEeoAcA4Qg0AxhFqADCOUAOAcYQaAIwj1ABgHKEGAOMINQAYR6gBwDhCDQDGEWoAMI5QA4BxhBoAjCPUAGAcoQYA4wg1ABhHqAHAOEINAMYRagAwjlADgHGEGgCMI9QAYByhBgDjCDUAGEeoAcA4Qg0AxhFqADCOUAOAcYQaAIwj1ABgHKEGAOMINQAYR6gBwDhCDQDGEWoAMI5QA4BxhBoAjCPUAGAcoQYA4wg1ABhHqAHAOEINAMYRagAwjlADgHGEGgCMI9QAYByhBgDjCDUAGEeoAcA4Qg0AxhFqADCOUAOAcYQaAIwj1ABgHKEGAOMINQAYR6gBwDhCDQDGEWoAMI5QA4BxhBoAjCPUAGAcoQYA4wg1ABhHqAHAOEINAMYRagAwjlADgHGEGgCMI9QAYByhBgDjokLtS9QUv5pvwHynScHD6USf4WebOJ5u/PDbi9UqqV5SuiT3589kh+tKDQ1SS4vU2proaRCD47R9tLQkepLk1dLCQyERvF6vWrrxi+2TJG8kojeSZktKUZKH+tMnKRSS0tL47ewHPB7p+fNET5G8Dh6UysulSCTRkwwsXq9XT58+1cKFC+Pa3idJ/5kwQWfLy9WgJI+01HZG3dhIpPsJ15VSUyW/P9GTJKfmZqmpqe0vF/w6rusqEAhozJgxcW3vuK6b9G0GgP6MSwkAYByhBgDjCDUAGPc/GSoI7kHlm2YAAAAASUVORK5CYII=;imageBorder=default;strokeWidth=0.5;" vertex="1" parent="1">
          <mxGeometry x="80" y="401" width="362" height="169" as="geometry" />
        </mxCell>
        <mxCell id="WC2iSc7Z6dM6G4pWd70d-4" value="" style="rounded=0;whiteSpace=wrap;html=1;fontSize=12;fontColor=#050505;strokeColor=#A680B8;strokeWidth=0.5;fillColor=#333333;" vertex="1" parent="1">
          <mxGeometry x="440" y="400" width="320" height="410" as="geometry" />
        </mxCell>
        <mxCell id="WC2iSc7Z6dM6G4pWd70d-1" value="" style="shape=image;verticalLabelPosition=bottom;labelBackgroundColor=default;verticalAlign=top;aspect=fixed;imageAspect=0;image=data:image/png,iVBORw0KGgoAAAANSUhEUgAAAOgAAABzCAYAAACSCE74AAAgAElEQVR4nOydd5xVxfn/33PK7Xcby+6yS+8sSLMAEsXYYi+JLVEUxC6W2GKJRqNJbMReYm+oEUVjiSWxF0CQKkWBpe4Cy7a7e8vp8/vj3F1YWGJB8yNf74fXfXH3nHPnzJwzzzzPPPM8nxEjdx8pySGHHHZJKP+/K5BDDjnsGDkBzSGHXRg5Ac0hh10Yu6yASpmbGueQw3cSUAm4/HiCI4Qgk8lgmiaGYeC6LkKItvOe57W71rZt0un0Tt/TdV1SqRQeP277csjhu+JbC6gENAQR1P94TUo4mHiIHV7lQwiBZVkkEgmaEk1YloVpmvxs7M8YOnQoE047jZ49e2KaZrsbtGrWTCbDXnvuxcQJE7Fte7syPc9rJ9w7gm07FBUVceRRRxBAISyVHYqoBySFg/0t2pdDDj8EvpWAOo5D0jGplHlcZPbFFF67TiwAG4+0cDjKKWeUV4iBr+0sy8J13e3KNAyD7t27M+X2Kdx5x5307NGDhoYGjjzqSH6+38855JBDKS8vx7ZtHMchFotxww03UFJSgm3bGIZBZWUlRx99NI7jIKWkqamJbt26ccXll1NUVNQmuNvCNK027ZzJpNl779H88uQTGJmJMsHugSG8dtcLwMTDxuMEpyuVMg8z2z7TtNpp9hxy+CHxjQKaTCaJxWKUV5Sj21DmhcjgtmkSAAdJDJ3rjUHcmhrGCKeAjHCRUtK3bx90XW9nikopEUJw04030bt3b7p3685f/nIzruvS0tKC4zikUikcx0EIgZQSXdcZO3Ys0Wi0TTtalkUymURKiW3bHPKLQ3ju2ec466yzycvL205AW8vv3r0rhYUFuK5fxzGjR/HpzJmoaZsSgmRwSAoHB5kdfCSdCXKrMYQbU7vR141iCF/Ae/fuies47TV9Djn8QNihgFqWTVNTgtGjR/Hcs89w8EEH0JJKksKhj4xyuF1GMUFMPAzhMt7uRpkMMS201jf/JKTTaU7+zUk8/tgjDBo0iKamJhzHwTJNBg0aRGlpKeecczaTzphE5+LO/PONf3LQgQfR0tKyXX2klP48sQNtZds25eXlXHvttbz55pusWbMGVVXbmbipdBrXdTnrzDN4+qknKCvrQjqdprCoiN69ezNzxiy0QICMcBns5XGYXUYcDQMPW3icbfXCEh5v6zUEUMCTWJbFNVf/jilTbqe4uFObaZ1DDj8UOhTQlpYk0WiEP910A3ffeQfvvvs+016cjogFGermc0tmMBPsHtyXGUZ3GUaVgulaDWeH57FeZNARCAHBYJD77v8by5cv54nHH+WyS3+LoigkmpspKyujJdlCMpUilUpRV1/H2rVrWb16Nbqub1cnz/X843J7D6+u6zQ2NXLahNO44847EEKgCL9pnufR1JRgSGUljz/2KKeccgo333IrS5cuRQiFyoEDEUKwdNkynKDCWLszNxqVnGH34q7MMDrJAKoUPKav5rfhhTQKy2+f4pd/y61TiMdjTH/pBU444fg2J9e3mf/mkMM3oZ2AtpqK+/98Px5++G8MHjyI8yZfwJ/+/GdSqRSaqhFF46/BlRwTncFKJcWxVjmm8KgVJg6SEFucLLquU1dXxxW/u5orfncl++9/AA/cfx8jRgzHddy2eaCqqkgpmTZtGnPmzCEcDrfVSQhBOpOmV69edOnShYqKCgzDaCcAQghsy2bVqlWEw2EUZYtwaprGBRecx7333s3KlSs57rgTePnlV1EUBcexGT16L1aurKK+voGAqhGUCr8PLeGX0RkYOBzslmIJj43CREgIbNW+QCDAsmVfMemMM7n33gc5+6yzmDLldrp17YplWT/qi8vhp4F2Ato6t7v88t/SpayM0yedzfvvf0BeXh6arhGWKvPUJmapDShSMEdpokgGAN/Dq27j25RSEgwGicWiTH/5FS688CJGjx7FWWecTjKVRFVUPM/DcRwURXDDDTdw1FFHtTNxLcsiFAwxefJkampqmDx5MkVFRRiG0e5eQgiCwWA7wTVNk65dK7j4okv45JNP+O0ll7KpdhMFBfmAL2AjRgxn5qxZKEIQROUzvY5lSguW9PhCS1AkdSSgI1A6aF8kEkFRVO6+5x5uufUWDj/sCI488nDSmczOv50cfvJoJ6Ctmuz3117PypUrmfrM0xx7zNEkW1qwTNtfM0SiZoVRIPCyjpSO4HtJDYxMhkmnT+RvDz3I++9/wD33PkBdXT0F+QUUFRVR3KmY4uLOfPDhBzQ1NaGq/lKOlBLTNLnh+hvo3Lkzxx9/POlMmim3T0FVVVxve+/w1giFQqxZs4Y//OFaxowZw1NPPUGf3r1pavKXdbp160ZRURFzv5hHMBQEfIdXAAUt+2j+04xSCEEymURVFK699vf84brreP75qfz9hReJRiLf7g3kkMN/wHZz0EAgwLx58zn7nPN45513uOWWm7n99lsp7tQJ27YR0CaQ3zTLsiyLnj2687e/PcBVV17O008/w+QLLmDtunWsXr2KZV8t47FHH+OJJ55g+fLlXHbZZcybN6/NxE0mk0ycMJFjjjmGiy6+iPXV67n00ksZMmQIJ514Eslk8j/e39emgmeefY7TJ52JqqhMnfo0Z5xxOqZpMWzYUJqaGlm9Zg2apm/Xpm9qn2majNprT1588QWOOvIIrr/hj1x73fU0NDR2OI/OIYfviu0EVEpJNBpFSskdd97F+FMn0KtXL4495iiMdAZtq26rdGDWtmpXKX0BnTBhPKqqcdzxJ/HEk08RCASJRqOoqsrvr/09b7/zNu++9y5XXXUV+fn5hMPhNidQIBCgalUV5553LosXL6Zz585s2rSJCRMnMGPmDCI70FKaprWZukIICvLzWbduPeeedz5TpvyV004dz8CB/Rk+bCgLFizCNE0URWzXHrWD9mlZU1d6HoqicN65Z7NgwUJO+vXJvPvue8TjcQIBPReqmMMPAm2HJzSNgoICli1bxqQzziRUmEfveIQmd4sWNYRLs+Igsp1YAEnhouALbyQS4dHHnmDTxk1Ytk1Bvj/3k1ISCARIJBLceeedgO/x1XUdTdPaTNxQKMS//vUvQqEQsVisbc5XVVVFS0sLAT2wXb1bl2O2DRMMh0N4nse0l6bz6WczUBTB0KFDuPPOe9D1ABIwhUuzcNrakhLuNhaDoElxSAsXRSgEAgH+cMONrF27Dk3TyMvLywlmDj8odiigrYhEIliWTWbDZr7Sg9ylrSQoVYLAB9pmPqaOqPSLiUqNl7UaBBBDQwioqdmAqqqEQqF25bYGH2xtCgohaGhoIJFIEI/HUVWVQCDQzqvb6njKZDLout6m7cEfVFKpFBddfBGbN28mEGgvwIqikBePU1NTw5gxowiFQixevIRgMIAiVWYo9cxWGglLFQm8qtW0tQsgJjUeDazGRRJFw/M8qqtrCIVCbQEVOeTwQ0LtUt7l+m+6SFEUVFXFxiOFm3UQ+eFvBl6bGSgAAxdzq2PbBgz8JwQCARYtWsTSpUuRUrJ06VKam5vbNOrWEEIgFEHNhhq++uorFEVBCIHnedTX1/vnd3BfRVGIx2IsWbKMr5cvR9d1BGDhkcnW3W+Lh4XX5r0VQBoXe6tj36V9OeTwXSF2NcqT1rjdTCZDKBRC1zuezwkhMAwD27aJx+PfSXsJIbBsG9uyiEQj5BJYcthV8Y0m7n8brdoyFosBO84LbTV1g8HgdzYtpZTomoauaTnhzGGXxi6bsJ1DDjnkBDSHHHZp5AQ0hxx2YeQENIccdmHkBDSHHHZh5AQ0hxx2Yew6yyySb45O39lbbLUc40f+wP9qjMH/ct13hG3fTw47oUEFfmpWKy+RsROElVKCY/Ojr0m2EpC1chU5jofnff+bep4kk3H5ISP8pPzmx+B6Esf98alVvk27MoaL68ofZLBofT+O4+x8Yf9H8K1C/aSUbURfrcjgcoDbmUqZz1KlmWFefpZIbMf5oR3BdSBeLBh3Kqxf4gvqDz14tvIEXXLJRQyuHMR+48bx8SczOOPUfqTSLptqDVT1u93U8ySxqM7QwYXUN5h43g9Tb9f1n9+ONIhpuowYVsQvfl7OnHkNaNqPo2mk9NuoKB2X32rwDB9ShO14pNLuDq/9JriuSzgS4aILzqeychC777E7M2fO8qlrlJ/2LOwbW9/KV9saeC7xNachPPp5MSrdOEIIxjvdyUPH2ibFuSO9KiW4ti+cnguBMPQaKVF0/wae659vl48t/etdG+RWt+jw2g7geR4jhg1j0KCBDBs2FE96DB6QT34sgGG6OI63zfUS2/baHfekxPUkrutrzuJOQU4/uS8BXcGy/Gsdx8POamYhti5Htiu7tRzb9vBauX4Nl0mn9GW3ykJSKaftWTmO51+X/V1JpxAD+uXjuLJDbSsl2Nl6bK0FHUe2ldP2fly5pY6uf9wwXHp2jzHx5L4Yhoubvd7d6jrp+YP2KSf0pkfXGIbpa9K2Nm1jmWx7bym33NuyPZCSIUMq6dO7N/3790URfmx1KrVzxOT/69ihgEopSSSaycvL4/bbbuX4435JSzKJIVwK0Imh+dSU0sPA5dbA1zRhE0VtY1nwsuwEW1OF+AIliBdDtCArcC7YWQYT2wBNF+SXgaoLnCy1j2351+eXZkd3F2wT9BAUlEm0ADiWwPNc0ukMmYz/SafTbZSYGcMgkzHIGBmQvkCYtktxpxB5cV9QBa2mL5R2DpGXF8AwfDM2oKuoiiAUUinvEmZTbYY/TVmEYXp0KgrQqShIUWGQgrwAwYCKafkCUloSJi+utZUTDKgoQhCJaJR0DuG5EtuWRCIqe4woom/vOJGIhpRgmC75eQH/Og8cV+J4EtN0O9TYrQJSXBSiU2EQx/GQUmIYLvG4RmlJ2Bdg28vSxPiCUNo5RCSkYpguqiroWh5hxG6FFBUG0XUF03RRFUFpSZhoWMPK/n7KfYv5akWCeExH0/xn03oPx/EHKcNwiUW1LW1wPFRVEAgoKIqgrCSMwKW5uYXNdXU0NDRS0bWCxx59iDFj9iKRSPhkAT/Beel2TqLWIHTLsjn6qCO4+OKLaGho5KGHHsYNqEywu/Mrq4IGxUKTgplqPQEUTrN78Ja2iRPtrtwRWE49FiWEuMjqw52BFTRio3r+Az70Ao9+o/2RdO7rgsXvK0gP7AwM+hn8fJJHICxJNQpeuUVhU5Vk7Akw6jgPz4WmjYKX/iTo1BWO+K1E0z1cR+Gf97o0VRUxZvQApPTJtRVFpbGxgaVLl/HBhx/RnGgmFo8BAtuWTDqlL8WdQgR0hQcf/5rX315HQX6AKy4ewm4DC/Ck5Mnnq5g6rYqjDunGkYd0pXOxnzp314NLOfjn5Tzy9HIuPb+SivII6bRLeVmIBx77mjf/XcNNVw+nX988PE/yyFMrePHV1Rx/dE8OPbCcaFSntCTEJzNqufmuxUw6uT99e+dRWhJh8IAC/jRlEedM6M/B+3dBVQRfLGjgj7cuxHW3aCHL8vCpDkFRfRqaC88eyLixpQgEH3y6kdvuWcwRv+jKmaf1QxGC5Sub+eNtC1EUwTWX7kYsolHRJYJpulz3lwV4UnLOxP7EYxr33b4XU+5dQlPC4upLdiMvruM4ktvvXcysL+q5bHJfXnh5NeGIylmn9SegK3QpC7Pgy0b+csciGpss9htbxoXnDCSgK8xf1MhNUxZSUhzk7AkDCIVUhgwq4Job5/Le+5/R0lxPJBJh3bp1fPnlYu6/716mTXuJ++67n4bGJuLx2E9KULcTUNu2KSsrY/L553HAAeN48MFHeOrpZ0h5NqOCZfwm3ZVrw0uxhMddqWHMURtREVQ6cZ7V11HmhhjmFvCKVsNBTj6dvSD1wkKXCmYG9jwK+uwu+ft1KrECSTgfhLLFyRCKC+a/KVn4b5XDLnQZc7zHu48qjDrO5Y07FOqrBYP28edG4051+XqGwowXNIbsLzEyJv369eGSSy7GcaxszmmQr75axh+uv5Gnn56KqvpEZaqqEYvr5MV1rrlpHnuNLOb0U/rwzvs1HHtEd3r3iPHba+YwaEA+50zozyczahECxo0t5c77lzJ7Xj2aLujbO47jeDz42NdIoH/ffC45fxCLlyWYeHIfSkvDXHzVbEYM7cQ5E/vx2exadF1hjxHF/OHmBWyszXDTNcPZZ3QJT/+9imFDCpk5p463361G1QSqKrjj/qVUb0hzy/UjGTuqM5mMg5SgaYLuXaOoik9zWr0hzT6jSxg3tpTrb15IMKhQWhyiV/cY507sz5PPV/HF/Hquv3I4p5zQmyeeW8mQQQUsXtrEhVfO5tfH9eSCswdy8VWzmTptFb/Yvwv3PvI1q9e2MHxIEbO+qOPl19dy7BHdOeOUfsxd0ECXsjCBoIKuKew1shN/uWMxXy5p4qbfD2Pc2FLefm8Dk88cwPTX1vLJzFr+cu0IDj+oKzPn1DF2dGfefq+Gq2+cx8pVLcye/yKa6ht1gUCAG/54E++8829+97vLeeaZp7jtttuZ9fnsn1SKXzsBbU31uuvOKZSWlnHU0cexfPkKios7oYUURlj5zNQb+Uirw5OS6cH1BKUKEmwhSeIwW21kL6eQ5/V17O4W8LnaiIHr01V60GOox9w3VVbPlwQjvlOofAAg/Lno7FcloZhCJA/WfqnSc4SLqmXPR6ChGt59GEIx36zVghLbFHz4FETyo2wOfM7hRxwFws/plFKiqirhcLhtHq0oCq4/7eGJ51Yye24dGzdl2HdsKWUlYUYMLeLZF1exaEkTS79OsP8+Zew+vBOeJ5kzr55HnlmB63qMGNopO4+CFatbcByPC88ayPTX1vLl0iauvmQIz06r4stlTVStbuGAcWUM6p+PogjeeW8Dr7yxFiklM+fU0a0iwj/eXEuixWLt+iTLV7aQn69zx/1LKSsNoWmCpV83U9wpxOZ6A8tyKSkOcfN1I4hGNIJBlbsfWkb/3nH+9f4GPp6xiXhMJ5W2OerQbmzYlGHaP9aQzjg891IVRx7SjWBApaHB4sEnvmbhkkZib2pcdcluSKBqTQstyWIWLGogFFH4eMYmPvt8MyWdgyxb3sxeIzsRCqnYttdmts/6op6/T19FMu3w9ns19OoRp2e3ZjIZl9feXE9dg8mrb61n+G5FzF3YwLr1af72+HLWVafIz9MJ6Fu6oxCC/Px8Zs6axZFHHcNtt9zMQw89wvEnHMfiJUsJb0MA8H8V7QRUURRs2+al6S8zccIEzjv3XO5/4H7WrVuPlxci7mnUC4ug9Ee5NC76VtPYAAoztQYmm72pkGF6elH+GdhIQCogQVUFiipIbJIEwr5AKipt6wpWBnbbH/Y/w8XKqOQVS6qXSRqqYeaLCodf7PHz0+HzlxRmvQwfPKlw5CWSweNcln4seOdhix5d+3LMsUcgPX/upWk61dXVvDT9ZaSUW3kFJbbjkUjYxGI6QhEYGZdQSCEUVEkmbSIRFc/1SKZsigqD1NUbbKo10HUlO3fb8uxM0+Pk43pRUhLi6hvn+aagCy0pm3hUx7I9ajZmKCkOIwQ0NJpomoKqCjKGgxAQ0P05ma4raLrA8+C35w1i/33KSKUdupSF+WRmrf+sAwp19SY33r4ITfU1aNXqJCOHFbGpKkkkohIOq3ieJB7T2bDJQBEQj+k0JWxM00XTBKbt4bqSWFRDUQSW5XtjW+sSCqnYlsvw3Yq4+NxBhIIqwaBKU8Js5wgSAlpabHRdIRxS8TxQBGiaQknnEHfdvCeeB8XFQRYsaiQUVKmtM0imHPLz9A49wOl0mmAwyMkn/4ZRo0fxxhuvsWHDRnTtp0PI1k5AhRAEAgGefvpZPv98DtdcfSUvvfgCd9xxF1Pf+AcWLhE03KwTaGu+HoAgCkuUZhwkh9ll2NLjazXpC2jWoymlJBhR8Bxf87Q6gaTrO3z2OcVj3huC+e9A5b6C/mMEWkDyyVRY8qFK37089p/o0VynMu9NSc0yhW6DJQed4zHmeJe6z2P07tULx7F9EzcQxJMdu3gFtC2vCOF/XM/3VvrbEsrs8onANP0ypNw+nsK0XCrKI4w/qTdT7l1CosUiGtXRVIGqKDiuhyIgElZJpf0OqWaFCkDJBk20onV9dfQenTlwXBf+ePtCVq1Ocu6kAUTCKsmUnU0691j8VVPbAGcYDpqmEAgIbMf3kBqWi2l6RCOq7zl1PH8A0BR/GUXQJhzbWo1SSlzP90CfelIflnyV4NGnVzCofz7jT+yFuo1QKcqWNglB2y4Am+sN7v7bMoTiO45qNqYpL4t0eM9WWJZFZeUgrrj8cnp0785dd9/N9Jf/QSgU3GES//9FdOjFzcuLs7KqitMnncndd9/HpZdewiknnsCX6VpGOgWEUPEEjHQLEVIghd9pFSloFDaL1WbON3uzVG2hGbvNiysltNRD/739RUNFCLr0EwhfwaLqElWH1QsUNi6HeLFEDfjats+egubN8MlUhc2roVM3SY9hAlWDuf8ULHxH0G1gmIWLFjHpjLM559zJnHveBUyadBa33HK739ht1tS27RyKAqbhUr0hzdhRJViWR5eyMAP75fHVigSaJuhoWc7z4OwJ/fj8izreercGXVdIpRwamkxG7VGMYbh0rYhSOTCfVWtbdrjmKiXoqkI45HtJ8+I66YzDrDmb2Vxv0K0iQuvWL60DSiioEg75H01TWF+dZs8RxYSC/jxtaGUhdQ0GfXvnUdElgmG4jN6jmHTawbG97Z7B1n/H4wGU7IFoVGXp1wkWLm4kGlWJx/TsQLbj56mqCnUNJnkxnWTK4cNPN1G7OYOqiOwaa4ePAdM06dmzBw/97X5qa2s54aRfM+3Fl4hEw2ia9pMRTvgPoX6RcBjP83hm6lQWLJhPND+PRdEkJ7sOj6RH0qCYDHML+VJv9jVRVgg1BF+oTZxr9mWO1ogqt7w1PQhzXlU4+S8eZz4g0QIe6YTg3UdUNA2MFsHahXD8H1yqlyn0H+NRNRcCIcGRl3ikm/210Ei+YMmHgv1P9ygfAHVrBeUDJW/f5y+FBCJ539xyCYGAv2zS+r5DIQ1NE7zwyhr+etMePHrPGEo7h1i1JsncBQ1U9s9H15Q2Lapkf9u/bx5H/qIrc+Y3cNsfdycvrvPvDzfwxNQV3PbH3Xn0nr2pKIvw5ZImlixLMG7vUgIBvxwpfXNV0xQcV7JwSSPnTRrAgL75PP7sCizL49G798a0PHYfWsRrb61HVQQBXd0u0icUVHn1zXXsv08pT943Fpn17k7+3efMW9jAvbftxfqaNH16xvndDXNRVEEwqCKEXw9FEW3PpHpDmpLOYZ64fyz3PfwV/3p/A+dM7M+o3YsZPqSQZMrJ1l1FUXxnlq5vaZOuK4QjKqvWJPng003cffOeLPkqwaAB+Tzw6FcsXZ4gGOh4r1lV1bAsi6uvuY4PP/wYTVMpKMj/QSO2/lfwHyOJhBCEQiFqN29m44aNiKDOx1odQsBKJcWTwTWsUJMkcVmrpqkWBgqCRsVmjt7AIiWButUqqKJCqglWzlZQVMmmKsGMaQqpeklDjULjBlg1z1/7TDXBZ39XqV4mqF8Hq+YpSClp3iz58GmVhmrJ+iWCVJPAczxmvqSwfJYgEN5Ra9q3SwiobzBZvS6JZfkUnZtqM1RvzLC+OsW8hQ0EAgpzFzTw5HNV/iK947FydZK6egNVVXBdydr1KdbXpFm9NsXGTRmami3q6k3W16SYPa+eRYubCAQUPp9bx9MvVCElZAyP1WuTNDZZaJqgucVh9dok6YzD8pUtNCUs6hsN5i5sYO6CBoJBlflfNvLSq2tYV5Oirt5gfU2azXWZdmampgmami1mfVGH58GqtUmee2kVtZsN5syvJ5l2aGmxefzZlSxe1kgwqLK+Os2a9Sk8KXFcydp1KTbWpkkkbL5ansCyPZZXNfPRZ7U0NlnYtse0f6xh9rw6NtUa1G42WLs+RXPSZvXaFLV1RpsFsXJVC4lmi7kLG6irN7Edl9ffWt82j67ZkKFmY3o7j6yqqrS0tFBVVUUk4mvNnyq+E2lYa/xtOssXq0mfxDmAQgaXECoKfvRQRriEpcq2+5kg/HmnnfG/B0KgaH6AQiDsRwmZKf9SNesLCIT9QAXbAKQ/V9WDvja1Mn7QghbgWwnn1shk3Kz28jVhOuMQCqqoqsAwXAzTQ1EgEtbQNAXL8qNlwmF/5HddiWG6BAMq6ezSR3bqRSDgO0syhotp+o6XSERDU/1Ff09KwiG/nIzhnw8FVGzXI5VyUATEYr5zKZPxHTpCgK4pCEVg2x6R8PZaVAgwLQ/D8OfMvlPH187ptIPnSYJZs9jz/DaHQ36bXdcPaIhEfMrUdMavezSioesKyZT/e19TSiJhjXTGIRhU/XVsx68TgGH6TrpwSMX1JOm0/+x0TRAO+2aqYbpEwj9d4fs22OVY/XLIIYct+GlHIueQwy6OnIDmkMMujJyA5pDDLoycgOaQwy6MnIDmkMMujJyA5pDDLoycgOaQwy6MnIDm8JOB53lt/FT/K/ivCKjAJxlzsmkX35f/TwifIsXKRiH9GGjdYzSZTJJKpchkMijZ4O6WFptEs43rShxH/mCxoUL4FCTpjPOjUmm25m7+EBACrB3UWQif3MwwOqZl+baQUpJMJkmn06TT24cEfteyVFUlGAy2P46fNinxKXq+Pzflj4Nvxeq3M2glGdvH64QAEsImhtYmrN8Frg0lvQQ9h0PtKnaYDbEzcF2XwsICjjzicPr07k3Xigq++noF4XCA3xzXi8MOrmDVmmRbgLnXQfrZtmjtsJ5Hhyx8lu3Rv0+c3YcVs3JVS1us8A8Fz5NkDJ+nSEqJ6+48A6FleVQOyGfYkCJWrm5B2arOpumy+/BO9O4ZZ/W61HdmTPTr7BEKhTjqyCPo0aM7/fv1Y/nyFW0bNX9XpNNpLr7oAjqXdGbevPkEAgE8JGFU9nM7s0Ex0ABtZbcAACAASURBVLJhq853ZKb8MfGDdXE/f9IlmUzium7bQ5SAKTyOtcvp5Ubp4UW51O6Hh8T7tkIq/Y9jQZf+MOIwiWu1P7ej33zjsW1g2w75+fmMH38yxx57NAcddCD19UkOGNeF3xzXC9eV5MV1/nLdSLqUhbG2yhPdWjtt/bdhuozZq4SRw4rIGNvnppqmR7/eeRx2cAX2DjTztuV31NyO4Hl+zOuJx/bg4TtH06U0gmXvmAJxR23Y9pqM4VA5sIAjDu6Kbbe/yDA89hzRif1+VoZpdswbvN3z2ua863romsbxx/+SQw4+iMMOOwTTtEimUliW9Y0DjE8aZ/j90vPIy8tj3Lh9qKne0NY3XSCMyni7O56UHOOU8yu3gjQd8/Km02kMw/jPN/6B8YMJaEtLC6qqcuklFzNkyGAyRoa0cDGES1q4pHFREaxV0kzV1iGhjaKzNQjfxNsycgk/z9JM++x9VsanR/FaGQCF/79lbDnf+sKtTPZY9jhk/zb8oHsz7Qfle57XjizZtv0kb8/1aGlpoSWZJJNJY1keFWVhXntrPVf84Quq1iR5+Knl1DWYCCHIZHxzrpVWMp1xMC0Xw/Q/6bSffD2ksoBEwuowwN1xPZIph4zhYJruluB74Qu4kQ26T2d84XIcX/BaqT1NY3tB8LKJ59f/bhiTTumLomTzWbe9Tkoyhn9Pw3SR0mcGbK1LKzn31qarafr1NTpgF2w1f/32eBim225gyhhbnk3rccf2MC0/P9V1fSpO07JobGxk46ZaGuobiMdjXPW7y+lSVkZTU6LD+aRt2zQ1NbHvvvtwztlnYFk2hmEwuLISy7JYsGABWihASjgYwiUlXAxcwqi8p27mfWUzCgIr2xcFPim7JV0uveRiRo4cQVNT03+NXHunUgkEYNk26XSasWP35uqrriQcCvKPV1/HFJITnQqOsMpYpCUokDoGLnlo9PQihBWF/l6MF9RqAPrKGKPdQp7T1qMgkK5f/gFnQO89PFIN8O4jCo7PoInrwKCfCfY40iNSJFn8nk+Dggd7HAHDDvFwHfjyXYXZr0KPobDvqR7BsGTdlyqfPC/BCREpCLUlAAshaG5uxjAMlq9YSUNDI5s2NXLCsb05eP9yLMvj/ttH8dTzVVQOyGfl6hZ+NqaEXt1jDOibh5TwlzsWceKxvdhnTAmm6fL3l1ejqIJxY0tIZxx6dI1x3yNfZSlPtiSy27avma+7bBiDBuTzzns1TPvHGlxXsvvwTpx2Um/CYZW33t3A89NXMemUviSabV58dQ35eQEumzyQV99az1crmgkG/HHXkxCLqDQlbH57zRwmje9HYJscTNv26Foe4dADKwgEfDKzP/91EU0Jm4vPGUhxpyDvvLeBF1/16zJ8tyImje9LKmVj2bJNwLytkrel9DNqBnaJcOv1I+neNcq0f6zmnfc3AHDguC786qjuALzwyhr+/cEGLj5nEPMWNfDeRxvoWh5l4m8G8sRzVaxcuZrq6vXE4nGSyRR9+/bhhRee5bbb/sr0l19GCIVIJNLmNygoKOCyyy7h2GOO5YknHse2bWzbZtToPVm5soraxgY65xXwW7M3A9wY87SmNmXRV0ZxhGSIm0e9sPhMqQfgF24pacNAhgPcf9+9PDP1GR566FGSyWTbTvA/FnZKg1q2TSQS4Ybrr+Xuu+7ks89m8KvjT2Lp2ioO1bpyttmTV/QaAlJhjF1MUriUeSEOcUox8PilWUEcjRbhsL/TmYFunLTwX7iVhr1PlAzez2P2yyqpJkHnHhLXad2XRDB4P0njRpj3usreJ3j0Gi4o6wf7jPeY/6bCilkKXfpJYoWCQy/wqF2pMPsfGoXloIbT/OrYX/HkE0/yyMMP8MjDD/DkE08yccJprK+u5q9/vYvHH3+SV155mdo6SXVNmo2bMnw+139phx9UQTikUl4WYfJZA3FcyaezatlnTClHH9aV6a+tZdnyBMN2K2Ld+hQ1GzOsr07zxfx6HMfzKTKFaDO3TMv1ibjCKv/+cAMTT+7D2FGdfdbBS3Zj7foU77y3gTPG92GfMSUs/bqZiSf3JR7TOWi/LgypLKS6Jo2ubylXVXztPuW+xayoaukwQdpPn9OY8Ju+DBtSyKczazEMl6svGYLteLz+djUnH9+L0XsUE4moXHPpENauS7Hgyyb23bukzVRtvacQAokv+PvsXUJzi83sefX89txK+vaK07dnnEvOH8ScefXMnlvP5ZMH06dnnOoNac46rT9SCk44pielJRHq6g0eeeQx3vjnW0yb9hLBYIBzz7uAe+99gIsuuoh7772Xbt26kclkME2Tfffdl+efm8qY0Xtx/uTJ3Hf/g4TDIYKBAMOHD2PW57MxhcdkqzdD3TyeD6xnd6eQ3k6EFsVhd7eQoW4+MalxrFWOKTykgF9ZFeQHwtzwpz9zxRVXcvjhh/H0U0+yxx67k8n8uCbv99agtm1TVNSJxx97CMsyOfXUCXy5eAnRaJRAKMj+RjF/19fzRGAN+ehUunEiqDTg4iFZrDbTKGyGuHnUaAaVbpzX9I2+iZvN+ew3RvKvB1Xmvy2Z/7bAc2Hk4b4JpaiSV24V2BmBbUGXAQpdBrjUr1NIJwRzXhOkExCMQElvSTgP5r8lWDkXvnhNEM4L89a/3uDjzz6CNjZ8hXQ6RTAYJJVKZ2lFBHMXpJn/ZSNImDqtigF989pIqTVVMGduPVfeMJdk0ubqS3ajekOa6a+vxTBdOhUGSWccvlzSREPC5LGpKxgyqIApV+1OfjxAMKjw5PNVJJotVlS18OcpC6mtM8mL6+wzpoRwWKN6Y5o//XURmYxLXlzjiF9048Lffc6hB5ZzxYWDqSiPcO9Dy3BdyR037Uk85rP8Pffiaqa/sZZIRCOg73gsVgTUNRj88daFfLGgngP27UJeTOP8y2dRXZOmIF9n371LcT1JXb3JzXcuojnpEI1qdKuI0qt7lGsvG+ozNARUbrtnMVJKZs2p4+Y7v8SyXbpVRPjZmBIEMGN2HXc8sBSA8rIIhx1cwe33LGbc3qX8/rLdGNQ/n5tuX4gnIZVOZTe6kui6jqIoPPHkU7z51ttcc/VVTH/pBcafehq7jxzJZZddxp133sVTTz+D47rEolFs26Zr1650Li5m1pwv6BKMM8TN58bgMmao9axSU9yaHoIus2athA/0Og6zyyiUOvlSJ4TCLL2RIi3Gu++9x2czZnD2WWfy5BOPc+NNN/L889N+NE26EyauwHNd0ukUiqITjoSznk0PFY2QVFmtpin0AkghqVGMNnUtEKRxWaw2M9ItYIGaIE/qzFebCEk/+TcYETiGT7MZLfCTt1sTuQFsUzB4nGSvYwEUyvp6zJgGK2YJxp7ocfHzPtPfzJcU6tdLVnyuMPEulxVzBJ9PF6xZJAmHwpR3KcXNzmVURWXDxo3U19ejaVu0TSCgEMjSeUQjWjsvoqYJvlzaBECnTiH+9cEG9vtZGa8993P+9cEGXnp1DRnDQdf9MuIxHdv2+OizTYSCPo/QqjVJKrqEWVudwvUk+Xk6NRsylJaE6VLqM9gLAfG4zup1KfYYWUwspvHg41/z4pPjePfDjXw8s5bSziE+/GwTwSyFypr1yf8omK1QNZ8hsKHJIh4LUFgQoFOnENdfOQzPhcED81m2PEF5WYQ161M4niQe06jdnKFntxiJFpt/f7QBRQg0zWemGFJZwNp1ySxBmaBmQ5p4TCcUVFlfkyYU9J/vmnVJBvTLw/UkDz21nKkP/Yx7H1rGkq8SFBYEtqtr63QkHA4TjYZJpzPYtothmKgqRCIRAoEAdiqVZdQ32GP3kTQ0NLBm3Vp66HmkPYd6xaJYBmjBoUGx2ih7AiisFCkyuPT1YhTLIBsUk43CJCz9RPVgMEg0GsV1HUzD/FE5er+3gOq6RlOiifGnns5ZZ57BY48+zOuv/5O77r6HDc0NiK0c1duy/wEEpGCm2sCv7a6McYvYqBhsEAZRqSEF2c2atmaH8+dU4C+3FJRJfjHZY9G7gurFkj2OFgTCkpZ6ydQrVQbtKxl2sMfx13lM/Z3gtSmCr2cqDB4nOf56j8cuzbDv2J9z8qknYZr+/h/BYIR/vPoK9957P5FI5Fs/Cze770ooqLC8qpkLf/c5++1TxpEHd2VQ/3wuvHJ2dgMqn0UwnXH4+8tr2o7ZjqR3z254Wa7e1p2JdvTaW/drKc1uG5GfpxONaGQMl+enr24rd2s2hW+CJ9tvlGSYLiurWtB0X9Bnz61nxG5FiOw/AIRA1wV19SZPPV/VtvRkWx6HHVyBt/Vtt5qfim0Ot+7T0qU0jGV6dOoURNNavVlbrrZtGwGce845TJx4GrNnf87xJ5zE5s2bWbFiBatWr+aqK6/k8MMP57bbbuP9Dz7C8zxGjdqTBQsXYRgmIrClZ7aWvm1fTQuHxWoze7iF5EmNBWoCx3MxDYujjz6Siy66iNpNtfzmN+NZsnQp0Wj0G5/v98VOOYl0XcdxHG67/a+89/4HXHXlFUx74XlOOe8s6pekGKDEeFGvpgCdCi/cblulACpfqs0otuDXVjde1zdueR3C975qQSjpI1m9AKKFEAiKts2VCkolZkrwzv0K6SbJoHE+dUo47nt7P3gS5r2pMvkJly79FdYtgQVvw+fTFc58wGPovjGeefoFXn7tpXZOItd1v5Nw+r/z//c8SafCIA1NFnc9uJT3PtrII3eNpqwkjGV7KEAq7RCLasRjWpvXNZlycBwoLwujCEFj0qJntyiZjMu66hSj9ihGUQQtLTb9++RRW5vB8+D8MwfywGNf87PRJRxzeDeen76avHh7zthvG5jQ2kU1TVDfaJHJuDw3fTUbN6XJiwdQVUGX0jAHjCsjoCs0JizKSsIg/EEnmqVJAUg023gSyruEsW2f6qRH1xiLl/mWRv++eViW72vo2yeP1WuTdCoKctqv+3D9LQs48die7DO6hE8/ryUa8buo67oEA0Huu+8uulZ05Y9/vJF/vvkWuq4TDoeRUjJ79hzGn3oqZ54xiSlTpvDUU09y9z330bdvX1577Q0Cuk5COESkRpkXYpnWQh83Sicv0C5AISAVPtXqOc/sjSU8XtO+RlgOf7zheg4//DDuufc+nn56KrbtEI1+t77yXbHThDCaplFQkM/ChQuZMHESp0+cQFF+AW9pa/mzPZwUHl1liBFOEVagCgVBCBUVQYMw2SQMDrS7c11oSRshthD+ssiX7wsOPscjv1SlW6XHxpWCutUQjEJDtUIo6nLkJRIzI9jrGId/3i3oMRQOvdBj0bsKRRUemRZIJwTjb3PZ8LUgk4CKQZI5rwokLoZht2tPR1ve+czpCl6bQ8TnKWolm25l6EumHI46tDtHHtKVd96vYcjAAqo3ZqjdnKG6Js3pp/RFURXefq+ajbUG+lZeXMf1GDmsE9ddMYwNm9IcdlAF1/55PouXNXHmqf358+9HsK4mzVGHduPKG+Zy8nG9CQVVnn5hJRs3Z7jkvEo+nVVLXb2Frnese8NhdTuCaInP5tfKDRTQFZYsS1Bfb/LA7aP48NNNjBtbyhvvrOetd2uYNL4vN14znKrVScaf0JtPZtZuNwi0bpx04L5duObSoQhg8KB87nt0GQLBicf25A9XDEMCI4YW8eDjX3HBmQPZuCnD1BdXUVQY4LxJ/VmwuAHHlVnmRUlefpwv5s7l8suvpLqmhng83jY/BYjFYjiOw+1T7mDmrNkMGNCPoUN3Q1VVFi9ZQiQYolFYzFIbuc4cSD8vypF2Fzp7QRzhb/SlI9BRWKQ2U+GFqRMmy5Uk8WCE2s2bOfXUicydN594PNa2U8GPiR8skigQCPjbGMycRXN9guqQTY1iMM4pZr2S4a3AJlYoSVLCISNcloskCoJmxWW1luYztQFtK4oxVYPqpQLpCfrs6ZJpFsz7J5hpgW0IquZKGtYL+v/Mw7NhyQcqtasE65eAHhD0GOahqPDvh1U2VUlsQ9B1sKSowmPGCypfz4RA2BfGrT8dzSek9Od/mzYb2XmdSkBXWLi4CU3zuV/XrE8RDKhsrjOIR3V2qywgmXK475FlNDVb1NaZFHcK0rN7lLkLGmlKWG0RNlL6zO5r1vnzpoH98nlm2io+mrEJx5Z8ubSJ4bsVUlEe4annq/hoRi37jOnMP/9VTXVNho2bMuTHAzQlbDZuSmfNw/YQQDSss2x5M6mU3U5QA7qC60kWLfE1nOtJ5i6op2ePGAP757NseTPvfbyRhkaTxcsSjBxWREF+gH99sIGvVzZTtboFbatoISl9BvuvVjRTkBegS1mYvz3+NYu/StDcYrNydQt77VFMPKpz/6Nfs6Kqhb1GdOKFV9bQkrJZW52irDTMuuoUiYTt70igKGQyGT7++DMs2yISiXT4rhRFIRQKsWbtWj799DMmTBiPlJKXXnqFUCiIhsJctYkoKnu5hXyo1/GZ3sBKkUIIqFEMNgoTB4+06vK51kCVkkZH4bPPZlBXV0csFvuv7Vv6o5KGZYQff5vVi4SkL4AmHuHstNzCwxIeUbm9MpeeH1zQOi/Tgn54n2v7DH6W4X9vfU9awKf2bA1OkNI/pgWy7H9ZG1tRvhsDoL9A7/84GFTwPD+SJhzSsB0PpH8c/OUFw9xizAcCCsGAguNsWTOMhH0WvVbNI4Q/D92avV5VBOGwmg1U8PcHhS3H/QABQShbn1ZGwlaGwg7fh+ESzG75t3XbWtkJW7Voa6CBuVU7QkEluw2h5289CCB8L3Yo1J5dUAg/FNCyPMjOS1uvA387wtZ5saYJQkG1jbkwEPDpTDOGSyS8c5skpVIpbrjhOhbMX8hL018hFosi8GPB08I3apXsDDQi1bbAmWC2x6aFi5B+tNH/rwjdHKtfDv+nEQqF/uvheT8kculmOfyfRiqVatvB/H8ROdbgHP5PQ1U73l7ifwU5DZpDDrswcgKaQw67MHICmkMOuzByAppDDrswcgKaQw67MHICmkMOuzD+awJq4bUFJH/vVSmRpTwx+dFY/cCnQslkMhiGgWn+uOlE3watrH+W1fGW9ZblRxr9mNXsaClRCD/m1rS2pz1xs1xIOwvRWlYHXE7fqRwhME0T0zTJZDJt8bvftyzbtrcLgGiNjNvpfr4V/isC6iHpISMUSB0HD5vvx03quRArFJT1Abnz777je3ge4XCY4cOHUVk5iD59+mDb9jf/8EeE40gqukTo1SOG7cjtzvXqEaNreXS7cz8EfIIwty3UsN29XUnn4iB9e+XhbHVvz5PkxXQG9d/5bevdbFmDBxW01ef7wLZt+vfrx4AB/Rk+bCi6rn9vIc1kMgwZMpizzpyE4zht5bhIesoIBeg4yO/dz7fGDy6g6XQax3HasfoZwuNMuxeDvTwqZJgLnD54yO88wtgG9BwO+02Uvhb9EWDbNp07F3PdtVdzweTzGH/Kb0il0j/Ozb4lMobDIQdWcPzRPUinnW3OuZz4y14ccmD5dud2BgI/RjeZsjlk/3JuuGoY4ZDaLrfUMFxG7d6ZU47v3Y4UzLI8+vSKc/aEAbjuzvEHm6Zf1qXnV6Io4nsLVTKZ4pRTfs0ZZ5zOVVdeQWFhIYlE87cafD3P8yOSssHcpmlyxOGH0rtPr3Z8vWnhcpbZi8FOPl1lmPN30M+FEGQM41uFIP5gAmpZFi0tLYwbty89e/TAtixMPJqETVI4qBI0KUjislKkcJBkcNuSuVv/3q7cDKQTYLT4GrRtj3l84jA/nSzL9Id/3jb9Y5lmn6pTiOy1zf7xtmB6JJ6U2QRn2RYSJj2JaVlYloXj2G1mZKLZJtFstZlbUvr5nU0Ji1R6CwufJyXJlH88mXLays0YLk0Ji+YWn/xaEQLL8kilHZJJm6aE1RYw32rWJpptmltsn3T6PwzIjuPR3OLXz8qauwKf6yjRbJFottvM4FTayX4XuJ5f1237veNJgkGVyyYP5g9XDGPY4KJsgH/7C6WUOI5HKtverU1R1/Xvl8442I7/XeLfv5VkzDD9Z9KSfSY7MtNb2RKbEhbpjNP2jFxX0pJ9dq0k2qbltiPUbm2v47qYholhmlimycEHH0hJSQnNzc07FPx0OoPruhx26CEUFhZi2zaRaJTBlZW8//6HKIqyfT9H0CIcqjro5y6SJivNPmP3ZnDlIJoSCVx3x+bgTof6SSlpbmmhtKQzv7349xx26C8486xzaXZNdtdK+YVVykIt4V8LpBWHKlL0llGKCPCFaERB0IkA/b0YnysNtOa42wYM2Bv67OWR2Cj44nXRRhrmuVBULqjcTxIv9lj6kcqahT7hcMUAwZADXBwbln2sUL0U4p0E+5zsEc6TrJ6nUPWFwDJtPK/9w3EcB9d1STQlSDQ3k0qlMC2PQQNiHHJAOaoqmDmnjnkLG3BdyaEHVrBbZQELFzfx3kcbUBSfwPmXR3SnX584K1e18P7Hm2hoMhmzZ2fGjurM5nqT195cT2PCZNjgIgoLApSVhikvDfP2+zUsW55AAGUlEY46tCuNCYtORUEsp2MJtW2PWEznjPH9KC8L89rb61lfk0ZKSf8+eRy8fzm25fHa2+vZuCnDr47szpz5DayrTlGQF+Cwgyr4+LNakluloTm2R99eefTvk8ef71jEsUd075CAupXa81dHdme3ygLe+3gjM+fUtZGJ2Y5k/33KWFedZvW6JOGQyqEHlDN3YSObNmcYvlsRB+xbxuZ6k1ffXEcm42yXLielxHYkB+1XzpBB+cyZ18AnMzehqgrhkMrxR/egrDTMzDl1fPDJRvbduwRNVfhkZi1CwME/78LylSotLRkCukFLS5xEczMHH3QA1137e/5y8y289ebbBIIBQqEgIHAch5aWFgYPruS6a6+hpKSECRMmYZomgwYNJBaPMX/eAmRIZ6CMc4hVyjy1KUu9LMkIhyrF7+ed0JkjmlAQFBJgcEpn4KCBnHnGGdxzz31MffZZDNMk2gFRwE7lg7quSzqd5sgjDmPK7bcTCoW4/IormbP4S0YEOnOrMYQmYbOHW8BopxMv6TXkS52Jdg9WqikuNPryur6RZuFwrFPOgU4Jr+kb0FGw0jBkfzj8Yo/ERoU+e/h8tub/a+/Mw6Mq78X/ec8+S5IhCVsCCWEHQREIuNS6XcUFFUTRKlrqXpdqFfefgHqvFZfHtba9iq2orbYWXGq1ylULiAQIhLBvYQ1rQpKZTGbmrPePMwkJYGttey/31/N5Hnh4ZoZz3nPm/c67nffzbRF07eOxcq7ERXd7FA/0cB2JEya41FRKqDpc9oiH2SLIKfQ3cK9fKDHufofCUoGZlBh6Fqxd1MKY0yZw991TOO/csxk79jzGj59ANBpmUcVi1q/fyLJly6lasYZoGB6fNhxdkzEMmVNP6sonn+9mzBlF3HztAPbtT3PxBSU0J20WLa3jlusH8r0JZezbn+aMU7qxbmOcbl1CPPrAMA4cMBk9opChgzvx4Se1jB1TzLR7jkORJWIxjQvO6cn8hfuwbI+nHh1J184G+TGdMWcWsWJlA/MX7cN2/EmhjOniODBqRAETLihF12V6Fkc4+4zufPr5LroUhnjq0ZHgefQsjnLOvxXx0dxaLjq/J6NHFPLOe9u4dlJfzjilG++8t42WlNPmp9U0mUSzxXsf7STZYjPmjCI++XwXLSkHORvEluXSszjClRPLKOoWwTBkLhtfxtKqeiQhGDYknw8/reW+O4YQj5tUr24kJ6pw3x1DWLh4P/mddGZMG0EyZVM+vJB+vXP5YsEeMqZLJuP4W9Ysl+5dQ3xvQhl9y3KwHbh8fC927GphzfpGpt17HCeN7kIibjFpYhk125qxLJf7fzyUDz+tpTDf4JH7hzFvYR2Vyzaxdt1ali1bTmNjI/Pnf4kkSdx7z10MHDiQqqoqDhxoaPtRuO66a3l4+jQ2b97MPfc+wP66OizLYuz551KQn8/M3/yaYVohT6WH0iBsRjmdOMEu5PfaTvLQ+L5VSo3Uwq2ZPnyo7iUubMbZ3TlP6sG06j+yZ3stP/zhjZx77tmsWbOW7dt3Hpaa4lu3oI7jYBghHp4+ldGjy5k581e8/dvf+dbvqM7FmSIWyHXcbayixAvz62Q5BhLprMB6hRTHwWOAG+VLuZ7jnRhfyQf8YbXn7+ssH+cy73WJebMEeV0FruOrTYQAWfWY+7KgfocgXgeTn5XoM9Ilvk+QisNrd0qohq9GySn06NILXrlZYvcm6FoGpqmys3Yrn33+Ga7rj0MkSWXr1m24rsfGjRvbpNRnntaTsKFw+/0LSCZtepVE8DyPceeXMOPZVcx6u4arL+/NxHG9mL9oH2ec0o2pj1WxYNE+irqFSbbYPDF9OO9/tIOfPLOSPr1z+c9nTmDYkE7YtseKVQ3cfv8Ski0Wr75wMscPzSeZspFlwfW3V9CSsvnpk6ORZUGvkijXXNkH1/UdQm/+bguSJFi5uoEf3bcYSRLMfP4khh1bQN/efgt+6z0VGIbCqy+cyJgzi3j6xTXMfOEkrry0N6ee3JXHn1lFz+IIV1xS5ruJhOC9j3awbkOT7zYyvv6Bc0WRSDTbPPjoMmq2NTNj+nDGjunBp1/swsNrk13b7bqv6bQvv758QhkLFu3jjgeXMLBvLj99cjSlJVFOKu9MaUkEWZJYuHg/u/e2YNke02dUs7iyjim3DeaCc3qweWuCQf3zuP2+Jaxe18CPbhzEpIm9ufa2hSxbeYDJV/QlEpL5bN4eqlfHMYxGwM+9o+s6juPw4ks/47PPPue2227ll6++yownnmDNmrU8/dQTRCJR/t9DU5k7979QNQ1D10mnM5SXj2BJZSUp1+QSq5gFcj1TQisp9cK86YxC82QyWMieoFpqwgW/niv1jLBjVCgNyLLMe++9T0VFBbfcfBPPP/csb775a2a9/gaaprWNa7/1GNRxHHJyopx77tnU1Gzly/nAbAAAEfpJREFU7bd/S6K5mXA4jIIg5qkslRuJuSpNWKyR46jZtRGBoEGYbJKaGeHEiKHS1dVZIjf42hMPjIgfqNurBeE8z99U3HJwc7Zt+rKu074Plzwk6NrbQwiXHasFOYUuP3jOZchpHi1xQdM+aNgjuOInDqde7eE64JgqK1etYs7s2bz77ge8++4HzJk9m6rlK9A0FV3X0TSNcFhnc00c03L52VOjmXBhCfGE2WZpH9A3lx/dMJD+vXPplKfRtyyHeMJi05YEebkazUk/+FVNpnLFAXJzNOrq02zbnqSgwECWhW8aaPa7l7v3plBVQdfOBptqEm0JiFava8TDQ9MkCgt0CvJ1OhfqhAwZWRIsX3kAM9vyVFbV07s0SixXpbKqHkWRsCyXVWubKOoaZkdtkt+8s4VHHziOr5bUsaSqnrxclcJ8ncJOB4/rehymSDkUXZdZsaqB3XtT6LrE8uoDFHULoSpS21zBoaM7D5Cy3dNoVOXGyf0547vdCYVkehRFiEQUOmevLy9HRZElamuTbN+ZJDdXoWplA7btmye2bEuwc1eSWJ5G9eoGcqMqebkaL72ynjNP6cbggXnMfHMjRkhGVTVUVW1rpRRFIWQYLK+qYs6cOZSV9WH48cMoKMinvPwEFi9exMcf/wkQGNmALiwspKSkhIqKJURUg1xUlioN5HkqBzBZKzW1bfgWQIOw2Cg3M9LpRMxT6eoaLJYbMIRMJBJm27ZtvDbrDaLRKKeffuph49Fv3YJqmsaePXu5dOIV3D1lCnPn/omnn36Gd9//AFf3nUM2bnsHXIcvSvEEi5QDnGV1ZZgTIy4stkpJdM/fnS/JAs/1J3eE5FsQWuuKa0MoKrh0mkO6WbBrvX9DFE2wt8bjnUcURo1zGTvF7/a+NwNm/4fEiZd6nHipS/mFMHNKC1dcfANXXX0lGTOZrWwRZs/5Pc8992KbDEpVJfbsT/PQY1VcfnEvbr62P+dkWyHPg6HHdKJPykGRBQsW7cO03A5GQj+Q/ckV0/SF1UDb2mGr6U+RRdv4tXW+wrbdDgGiazKbauLc9VBl22um6TLholKaEv5xXNe3IRjZwE1n/C6pB22iLiEEDY0mkahKQ2MGTZVZvynOXVMPHldTJcIhuYMd4khI2TIIIZCyZZekw5WErdfkul7WIOjXh7LSCIoiUBSJNRvi7Nmb4rN5u1FV/wOm5XLKiV1wXC+rPhFYtottu22zyh4ekiT54z/PtzQ0JfzkPY4DyaTjH+8Q4vE4xcVF/OSx/+CEE0bz5JMzeOut35IxM1x/w/U8+MA9jBxZzuMznqRiUQVCkhg9qhzLslm/YSOGpoPtZa0hrY1PR2RgsdzAmVZnhjkxmiSL7VIKK5kmGg4zdeqDXDLhEt5//wN+8fLL6LreUev6F+/+X0HTVDZs2MhNN93MlZOu4O67p3DOuecwZfpDJPeadJYNmoWNLiRyDzmVjkSV1MRFFDHBKqJKbsLEwwCQwEx5qCHIKfSoXeeLrJ3sKoJjQ+deLrIimHWnRNM+j8seEaiGh6LC5kpY96WgW1/BNc+79Bgks2kJvPs4qLrMNc87jBgT4o9/mMvKNdVtE0WSJFNXtz87UdCurJrEmvVN3PVQJd26GPzyxZM5dkg+LSmb53+xlorKOt/aLuC4Y/KJ5ekYmsy+/WkURUIIv9J062oQX2iSk6PSrUvIn7E9UgOV7RYW5OtkTAfbdomGlWwAizanLPizmACGJtPS4k+w9CwOU1l1AK0kQs/iCM1JG1mC7t3C1GyNkxNVuHJiGTNnbeT8s3owf+E+9tWl/K5sOw3LN1nRcFyPWJ6G7fg5WDrF/F6D43htM+6qKiEkiCcsunUxiIR8N7Ak4OO5u3j6pTXkRBSEJOiUp5Gbo3Y4t+v59nvLdonHLToX6EQiCjtqk5x/djGqItPYlCEnquLh0dBocev1A1i3sYlwWGH82MONh+l0mnEXXcC9997L5s2buO76G1m1ahU5OTnous4Xf/4zK1as4NZbbuZnL73InDmzefjRxygfVc769euJx+MosQiuBV08nQQWupCJonZYWDGyDqQLzW6Mz9bzhkySU4ePYNrUh9A0lXvvu5/PP/8CwzDQdb3DjPLfPYvbmhfjlVdmMm/ePO6//z4GDBjAwl1bucEcwCopzgA3ynfMLryu7EBCoCOhILFLStEkTC4yi7g0UoHW5lv1Uz/sWic48zoXM6VQeqyLmRKkE6DqHi2NEuE8l8GneVgZQfl4my9eg9JhgvKLPCr/IMgv8rAzfgt8yTSXzUskEnWQUwipRoXa3bXsrtt6cM02ay9vFaCBvwwwZGCMyy7uxYef1KIoErousXV7M9t3JLnr1mN48eX1DBvSCcOQefWNjdTVZ/jRTYN46/dbOPO73Vm+8gBfLa7jqom92VnbwqgRheTmqKxe18iIYQWoitRWIVVVIhxSmLdwH9d/vz+Xje/Fvro0Y8/pySef72pbymmlNc3CJReWsnJNI6GQzMjjC/jVrzfT0GRyz23HsGxFPbk5GsOPzee132zimkn98Fx4+IkVPP3oSG6Y3J/pM1agHnLsVoTwf6SO9F7GdPjuyV2ZNLE3NVubuXRcKS/N3ACApsnYtsvW7c2MHdODbTuSTBxfSkmPMK7jsXR5PTdfN4At25sxdJny4QW8+sYm4gmrw4yxbXkM7JfLDVf34/P5e7j6sj4sXl5H9eoG8nI1bpzcjy++3MsNV/fjq6X7KSuNcv5Zxdxyz2KKu4d54MdDWLBoH/UNGb/rneWkk07iV6/NYubMV/E8j1gs1vZeXm4u6XSahx/5d/48bx7XXjOZPr3LGDxoAHPe/QAluxF8sdzAVWYJ1XKc/m6U79idmaVtb6vnsiexW6RokCwmmEVcHK1ASjqc8p2TWb5sOU889TSJRILc3Ny2Otief4jVTwiBYRjU1x/g44//RFN9AxvVFgoxmGyWkIfKKiXOMrmRlHAo8DSWSg04wkNFRhKC36m1yNmOgsAPqp1rBCVDYdR4hy5lsKFCkE4IwnmCFZ8KFFVwylUuXXpBw06JnWsEe2tg8Klw/Lkupcd6zH9DpqYSeh3nMfx8j8GnuWyskFjyLmi6jKapqOrBP4fuwM8acykfXsjYMT04sbwz7/1xJ3O/2MXGmgQnjOzMuPN6UlYapbKqnlVrG9m0Jc7Zp3fnvLOKKSjQmfflXuZ+sZvBA2NcPqEXJcURXnh5PdWrGxjUP4ZpOiyvPoAsw6B+edTVZ5i3cA+O7XHV5X0YMijGth1J1m+Ms2ptI5p2sJI5jktZaQ6e5zFqRCHfGd2FN367hQUV+9i5q4WciMKkib0ZdmwnZr1Vw5Jl9Vx1WRmz3q5hRzbfzL+d2p3q1Q2HBQb4a8KRsELvXjl8WbGfjHmw2+04/gyrriv07hVl7Dk9mLdwL2/+bgtdOhttSx81WxOcckIXLjqvhLr6DNtrW1hWfYDl1QcoLDD43oQyhh+bz7YdSSqW1mWHCNlzuB6dYhr5MX/cffEFJWzemuDnr26gudlix64kl1xYypgzi9i0JcFzP1/LuLE9qd2d4uO5tezdn2LQgBiyJFizvrGtq6uqKvMXfMlXXy3CMIwjKjRlWcYwDGpqtvCHP/yR7t27M+Hicbz88kwymQy6pLJOTlCIzjWZUnJQWC379TwtOXRCpzJbz3VkPCGYrewipOmsrF7FJ5/OBQTh8Ncb7P7h0jDX9ccjnvDzguZ5Kinh4OChZb237X3hDn5XSPJEh96eEP5EEEAoN5tqMAWq70rGdf33Q7m+2c9K+11cKwOem51YsiHTDLIGdsb/rCT7nlxZ9b5RAuDWBwZsxyMvV8uu+1rouoydXfjPyVFJp/3UgOGscU9VJCIRhZYW/zE5WRY4WQt8xnRpabExDLlDRrDW85G9vkzGISfb3UulbHRdxnUP/7okSZDJOG3jznjCwjD8z5qWS16OhpstdySs+EmVsukoLMtrMxLa9tc/KNDeP3vouU3T9e18hkxTk4mi+OkehBB42TK0yq3jCQtFkZAk/1FBy3L9++p6NCWsw6yDrfektSvfegwh/N5GKu0QMvzlr3jcAgHRiEpLi9029vd7ADLmIY8ruq77jfWZjY1NXHXVlZxx+qnceNOthEIGQghcPDLCJeaptPyFeu7i4WXruQQ42Tj5a895/1Otfl62YAfnbrPB1W5Q3bqwKx1xMJZN9Nqqy5QPKjhFNjOA67brlomDY6f2/6f1RK3aTSH97RmmPY+24GidzAH/NS/7TcjtKpY/GeJPbLVWuLZjtPtsa5qG1s+0Lvy3Hr+1YorszZOOUPDWcnnZv9qXr325W1tHx/U6lNVxvQ4Zso9E67LOke5La+B67c7d+nr76/Lfp8P1ft19/UvnEFLH++C4Xva6/R+S1qeUWit/++N/W2zbpri4GFmW2L59Z4fcPR3rOW0To39LPf86Au1mQMA3QAiBaZq4rodh6EfsTfwzCKx+AQHfgNYJxNZ//08RbNgOCDiKCQI0IOAoJgjQgICjmCBAAwKOYoIADQg4igkCNCDgKOZbB2jyEPcQ+Iux7VOJBwQE/H18qwC1bZszTj+N4uLiDtIlOZveHiCFn7z32z+7ERAQ8I0C1LZtLMvO+kBt8vM7cc/ddxKNRLBtfw9YGpdBXpTbzN4khc15TlfKvAjmEVpUf2+k+Y+9koCA/w/5qwGaTCYJhUN0794Nx3EwzQzDjjuOeDzOhg0bUTWNNA5JYWN4MsVuCAePMjdKnqeQEg5uuyDNeA6aodOzRw+aE81/0WgWEPCvztcGqGVZNDY2Mnz48bz5xuucM+ZsmpuTWJbNiSeOZuXK1SSam7FkOMbL5WS7AAlBGhfVk3lH3clmKUk/N4KC1DY+7WzJFEVjvPzKz7n99lvxPI9kMvk/eMkBAf93OGKANjc3o+s6U6c+yM9++iKLFlUwe/a7hEIGOTlRBg8exMKvFmFqgiutnjyeGsrtZl+mpPu1KQdvNnszyM3hZrMP5U4nmrERwEPuEIxdCabPmMH48Rfx5uuzGD78eBobG3Ec5389zUJAwNHEYQFqWRbfOflkXv7PnzN61Chu//GdTJs2naZ4E67r0q9fXzRNZ9nKavpoeUw0i5lqrGZSZAmrpQQxT8UFcjwFE5cakeREO5+UcOjtRYh5Glv0NP/10aeMv3giy6qW8/RTT3L3lDsJhYy2MW1AQMAhAdragj344L30KC5m0lWT+eSTT8nNzUXTNF85OHIEtbW17Ny7h/4ij+1yimVyI67r8b62mxbhazUdPBQEXyr19HejaAhGODE2S83UCYv8vDwaGxu56657mDNnDjfddAvHHz+MVCr1v3UvAgKOOjoEqCzLeJ7H9If/nW3bt/Par37J+eedSyKewDRNZFmmvHwkS5YuxXYdQsiksQGBhoTA67AOqnsyq6U4MoKBbg6DnFyWyo0ID5qamigoKOCF55/lsomX8Nxzz1BZuZzwEezaAQH/qhzWxdU0jYqKxdxw4w/56quFPPvsMzz22KNEoxEKCjpRXFzE4sVLCekGLcIhjIKHhyl8xabcLnmKBDQIk3VSMxfY3Yl6CpVSA4rtcuGFY3n7rd8wYMAAbrn1Dp5/4adkMpnDnEABAf/KHBagnucRjUaxbJufPP4EP7jmOoYOHcrYsefTt29fUqkUmzfXEFY1NktJejghTnYKUBCMNbuT66o4+A8tSICEYL6yn0mZEhLCZrMTp0e37tx15x288/t3+P7kyVStWEEsltfWggcEBPh8rVFBVRRisRjV1dVM/sE1SJLMTTdez7p1G0gkEuTl5bFLpJmlbee+9ADqRS9CyGxQmpGBZmFjCo8QMtVynAbJokpuRJZlks1Jrr3uRj/Qw2EikcONagEBAd/QSWSaFq7rMmf227z00i/46ONPiEYj2dyfDn3dCDmeyhYpiY5MIyYFaLTgkM5mSOyMThwLEw/PdbFt+4iqw4CAgIN8Iy+uJEmEQgbNiQSLKpZkdYW+uUxFok6Y7BFpHKAFBxVBHBsnazETCJqw/Jwc+KrBYKwZEPDX+ZusfslkEsMIobQzoQcEBPzz+JusfpFIBPhmOTsCAgL+foIN2wEBRzFBgAYEHMUEARoQcBQTBGhAwFFMEKABAUcx/w1mK6Kp29WkVAAAAABJRU5ErkJggg==;" vertex="1" parent="1">
          <mxGeometry x="490" y="410" width="232" height="115" as="geometry" />
        </mxCell>
        <mxCell id="WC2iSc7Z6dM6G4pWd70d-2" value="" style="shape=image;verticalLabelPosition=bottom;labelBackgroundColor=default;verticalAlign=top;aspect=fixed;imageAspect=0;image=data:image/png,iVBORw0KGgoAAAANSUhEUgAAAH0AAAByCAYAAAB+1t7wAAAgAElEQVR4nO2deXhV1dX/P3uf4Y6ZgyQQIjMoIgpSoY7YQeuAU9Vqh7fWKtXW1ur72sFap7bOtag41LFoW61a/SkOrR1UBFHAioJVEMJMICHJTe50pr1/f5x7r2FSKFij5Ps8eW5yc84+957v2XuvvdZ3rS3Gjhur6cVuBflxf4Be/PfRS/puiO0mXQXhz0cBrUGpj6bt7YEQAtd1SaU6yWSzH98H+S/B3J6DfBdi5WBakE2Bk4NoHBDbcbIA5YfEGtu4mpQg5Ef7UDmZ8Pp2LPy7O1zXpb6+nkMOPojWja28+OJMpGFs19f7JOJDe7qbh70OgTOnKo44S1PTIDj0a2DYoLejd+ogfGCSVVs/3s3BgNGaI8+FwBNbELIzEAK8fNjugSfB3oeD52x6jB8ERKNRrr/uV5xwwvHs2diI+jiHnf8CPrSnOxkY/QXF6zMMXv4D1A7UqCC8ob4b9k6tw55qR0MSi8QZVnj+mCM1FX0lT92oqegDwgAKx2gNkTiU99HkugSGFfZ8Ox6++u6mREXi4TlePvwdCW4WpAFWZNNe7DnQb6Rg0pmKoZ8Jv8NbfwPTfv8YrRTV1dUkk0m+ffa5rF69mvLy8p2/sz0Y2yRd65DQz54i6DdMY9kKFQjenS3IdYKT0Qz5DFTXC+qGKjwH/nmf5LOTNQ2jFJ4jWPCcwHMEY49RWJEA05LMfULQtlaXhnqlIPBC0j53NtQPV6xYIJn/FLguVPSBiadqymo169+TvPwQ9BsuGLifZtZD4UMx7tiQ4O6EChF+/n4jNE3zYfkbgpr+4fubw/M8crkcpmkSi8U+ivvco7DN4V2I8KdlBWQ7BG1rJOuWCMpqNBNP1ahAMGBvxbEX+eQzgmXzJAccr9lnkmbe/5O0rhD0HQydG6BttaCzRbBqkSTwoaIvVNRBZR1EE+DlYOB+imS15t8vSsYfrxh/fDgsn/BjRbQM3nhOMmS84ovf0axfBqM/p9j7cKhtFBz6dUXbGohXhm1W1kGiOpy/58+A538r8L1wNNr8O3qeT0VFOdFoFPVRGRU9DB84vEsDls7TtK2BpXPh7Rc1Iz4bDuGI8P9v/U3y/64ToDXHXABITa5T8NKDELgCjWbVIk1lvWTuE4q6IYLj/lcQrwh75at/ho71inVLBM/eLMi0a0Cy31GaFW+CFYUnr5NkOjSdLZKTf6b5+93wxLWSL52v0Vrzwu8ky16H4y4SDB4LWmlalgueuUUjDYgkws+6OfJ5lz33bOS2abexcOEC1q5tJhaLfiQ3uifhQ+d0KwLSDF/tzUY+DbSvEUTiGjsOs/8kkKbkuP8NDaFXHpHMf0pg2mAYECsDN6955maBlICAro2aoeMFnS3h3/HKcGRRgaaijyCbAt/TxCvByQgCT5OsUSydK1GBot8IzcK/myQqNK8+qpn/lAAtCILQcJQfYKqapkFHRwd/+ctzjN5nb8qSSVzPxTC28oR8irDNW5LPEA6JH7JuKQ6Z0gDf1cz4tWDaNyWzHxJ8/mxFvCK0D7SGfEYQ+JBu06Q2aFLrNflMeH68MrT0sx1Q1kcjBLQ3Q6IK7Kgg3Qaxco1hQ0ez4MATNb4rWPKqZNKZCjcH2U5IrQ/bzrR9+DLANE260mnuvude4ok41dVVn3rLHbbS07UOiT78G7BqESyeHfZwwwz/V7Ss0WBGwBDvr4MnnAR77qdYPFvSOFrTtkbgOZBuE4yfrDniW4Ilr0JHc2jZAwgXAh8Gj1Ucc4FgQxNMPFUx+0+SNe9Apl1w8s8U/35ZcOBJmn+/BBV9BJPOCnj0SknbWsF37gpY/W/BOy9vORoVv5Nph1NFd+tea40hJfF4HN/3cT1vtyDdqO9Xf3n3N0Jiw7V4aoNmzTsC0xasbxLkusIenesUrF+mEQja1ghSGwqOm05IVAjqhyuynYJ/3iNx85pUs0RI2GOwYu07kkxHtzlWgDQFzUslvgP9RireeE6y4K/hg7ZsnqSyXlM/TPPeq5KX/yAYMAqa3xMsfiVcuqXWC6JJ2NC09blbEHrdOpoFbWs2PUYpRVlZklO+fDL/fOElUqkU8oPmhE8BxLajbALQIMJ1sGGFxAZBYY2cCF8hXJ9rwqWXl3+/N9nRsIepAJxsOMdGEu+PGhCOKoEXOoEQ4RAvC54zKcMpxius/YURrs2VH74fiYfnO9nwdWvetuI1PCdcHkY2OyYIFIYhuerKy9lrr7146aWXuPHXv8E0TcSHzW2fUGyTdK0A8eFz+qcBQRBgGAZDhw7FcfKsXLnqU0s4fID1vvma9tMMwzBQSrFw4UKklNi2/eEnfYKxXQGX3QFSSqLRT/8aHXrj6bsleknfDdFL+m6IXtJ3Q+w06RrIEbAj2geF/tDjcwSoHWp12wiCAL3ZAl4phed5+L6/xfG+7+N5HkEQbPH+5sdvre2ejp0iXQMmgv11JRHkdlNkIbd5YU3oFtpPVxDH3IJ4hSYrti8EqpSiK92FbdulIIoQgnw+9CrV1dVRUVFBJpMpEZfNZikrK6O+rh4pJfl8vnROZWUllZWVpfc8zyMej2NZ1ieK+J0iXaGJaMmFuaGUa4ss/hZ9XqHxUASF3u2g+LY/kHFBFdnC0T4aH41C46MwkZznDqGvjpAlwC+0GaApw+IL/h54aJQIlS9dXV34vr+JQyUIAnzf51tnfotH/vQIe++9N9lsllwux5AhQ3hg+gPccP0NTP/ddM455xyy2SyZbIZvfP3rPPjAg1x//XX88Y9/ZOSIkbS2tnL00Udz27TbuG3abRx7zLG0tLQwcuRIbrzxRmzLRikVPmRdXXie16OdOzs9vAvALRDWqOPEMciJAEFIMAgadZwIkrwIsJE8Z6znPZnGQpITAX20TY22USIcBQA8NL7QNOgYZZhkRfiADFdJznEG0Qcb6Skqqiq54oqfM3LkyFIPVkphGAa33nIrp516GtXV1WFQJQiH5kt/dimrVq/irLPO4pe/+iVTzpnCvvvuy7Ahw/j++d/n1zf9mjPPPJNFixZx2WWXEY/H+eoZX+WOO+7glltu4bTTTsOyLC644AJeffVVmjc0o7WmsrKSKy7/OfvuO5pcLrezt/Yjw047Z3w0MQwudUYigKQ2+a3dxF/NDYxUZfzIGY4Gokhut5p4yWzlSG8P5skOVphZLnSGMS6ookO4JLXFy2YL99srMbXgR/nhKDRl2uIeezmvGW2c5vWnTkX4kTOCh3QT79kGo/cZxd///s9ShEwIgWma/PnxPzNv3jzuuP12bMsm8AP67dmPQYMG8Ytf/oL2VDvPP/88CxYsYPQ+oxEC3nn3XZ588kks2+Kuu+7inrvvoX///gCsXLUSz/PIZDKcfvrpRCNRpk2bRjQaRWtNJGIzevQoZs2aTRD03GjdTpOuhKZGWfzDauEuu4mTvf582xnE38wNnOcMYr7RzrWRJZzi9ec8dxCvmm0MUHHekl1MDKo5wu/DufE3yOBze3Z/9gwSeEJRoy1eNjZyU2QpX/L24NvuQGbGW7nPXklFYHNl5N+4aLwNaU497avYtk08HkdrXZpvn332WWKxGJGIjdahyiYajeK6Lo7jEIvGyJNn9erVVFRUoFRAR0cHtm0Ti8XIZrN0dYU2wcyXZ3LVlVfheR6LFi3ihONP4I4772D48OF0dHTQ2dlJS0srp572VSzbJplM9Nh5fqdJt7Rkncwzw1qHj+Y12cYxoi91ROmroqyQec5xBpLApE5F6aNt8ig8AvZS5cy0WmkSGSSCGfY6hvlJbC1plS5PWuvwdMB8o4OTgv4ktUkWHx9NFz4CgSEEkUgEKeUmN1kIQSKRKLy/6WfemiVvGAZKq03+V/w9mUxy++23s7xpOR0dHRxyyCG0trZy7NHH0rhnKJn+0Y9/RHNzM5FIBCFEjyUcdtE6XRGSbyCwkQToMIYNRBAkMDEQ3BpdRkr4mN3SCIrWuij8UbxVARoLiVlos2jFF1MQiudorcnnHYIg2C7jyff9kjXv+z5BENC3b19SqRRO3iGRSJSWbLFojEQyQWdnJ1JKHn7kYdasXcP48eOZNXsWlVWVTD5+Ms3NzRx++OFks1kc190Vt/QjxS4h3USUGhKAjaSLgA7hsVJkuTbyLvfYy5lrtJNHYSEwtWSxTHOQV0ODjpHA4BC/liLt3duEkGwB+FqT1AYGgpzn0KdPLX/843QOOGAc2W2kJBmGUZrn161bRyrVwbHHHks2m2XI4CGMHTuWZU3LePOtNxk1ahSjRo0inU7zxSO/iAoUGzZswDAMysvKueLyK3jsscdYuWIlAJ2dnaHRpiEWi3Hj9dew//77fboNOYCMCB0pgnCJlhEBQmt+G2nip84IPqOqSWiT92Sa6yKLSYsAUwhmGq0catZwbX40LTJPrYqywsiggawIKK7GdeEaEsEqmaPNcLk1N5Y/yGXM9x2WL19BNpvdak/XWuO6bmkIz+fz3HDDDVx11S8Yu/9Y+vfvz4svvsicOXNQSvHcc89y5x13smLlCkYMH8Hll19OOp1GCMHkyZOxLIuHHn6olCDx9IwZVFdXc/sdtzNs2FAOOfggbr5lWo8WV36AcmY7GwCqsWnHI0BjIqjEog2XLAE12IwMyuiQHstEBoWmmnBez+CTFj71OkqX8JniDiKqDH4ZfYdBOkEnHm63NjvwcFEkMBgRlNFs5FmrcuSzWaLR6FadJFprGhoaaG9vJ51OYxgGmUyGxsZGhgwZQrorzRsL3ihJpIIgYMy+YyivKGd503KaljcRj8cJgoCGhgZyuRwtLS1oramurmbUqFEsfW8pS5a+xxc+dwSTjjicq676VWlu74nYadIBXBQWsiiwwkNhFwZnH40nFFKHc7MsHC8QWAjOdYfQIVxAMNmr49Lo27wlUxgIzG5t+t2u4RUcPsU5v2ixbwuO42CaJqZplh4K13XxPA8pZckQhKKNkEcphWmaRCKR8EYVMluBksjCdV1c18WyrJKdUHTL9lTCYReR/p9AE04FY1QFE/1qDCTPW+tZKDqJ0XOHxg9CcVnY04WVH5tyRhAaZ/NkB7MiGwGIaOMTSziEo0FP7uFFfOxyqSiSqO7ZPePTht67vRuil/TdEL2k74boJX03xH/FkMsTvL+mLrxXXG8HaKJIVLf3BZAXCkOHa/kdWVMGQUA2myUej2+yLs9msyVxQ1HtAmEVimw2i9Yay7KIx+O75kv3YGyRwLirodCMVZUEQFr4BfdK+CAcqKo5MKhmgUxhFgadovjiDH8AAlgjcqX/QbgWLgZXNl8epdNpYrEYkyZNoquzi0w2g5SSbC7LhAkTOPaYYxk5YiSrVq0im80SBAHJZJKTTzqZgw46CMu0WL58eemB2BEUtXOfhCXbTg3vRYJcFJIwMpYRfilylkfhoBgXVFGDTVCQRXUKnzbpMkDF+IxfRYt0mKiqOT6oZ71wcITis141fVWEjdKlU/glyZSUkmQyuYlvu/ggHHboofzh93/g5qk3M2DAABzHoSvdxYknnMjNU2+mYcAATjjxBKZNm1byot027TZOOOEEGgY0MHXqVE484UQy6TTZbJZsNksqlSKVSpU8bV1dXSilSh66dDoNQCKRwLbtHh1SLWKnhncPzT66nAw+TSJLJRYHBlW8LjtwUOyly8ji86LZwkYR+uYrsTjF7U9a+JRj0SZcBukEx3v1VGqblPB4yWilXXhUa5uz3UFYWvIXaz3r810csM++3DptKj/4wUXM/9e/iMdiBEFAVWUV5533Xf76/F/xfR/LtlBKkYgnmDJlCr/5zW+45dZbqKur4+kZT3PEpCPwPJc+ffrwpaO/xPr16/ned7/HWWedxdPPPM24ceOQQjJ69Gjy+RyPP/EEhmFw9NFH89e//JWuTBeNDY2MHj2amS/P5L577+LpZ57httvupKKiYlfx85Fgp3p6VgRM9Kv5uttIq3Q4IKjizsw4GnWCLhFwrjOIfjrGme5AhqgEEQyuy+/D3qqcwTrB6c4AAjRxTBLaxNaC/iqGUVDWnuUMpFHFGK+q+EV+bxKWTXNrC3fc8VvWr1+PXRiGTdMknUlz9jlnM3XqVHzfRxoSpRSVlZUIBPPmz6NPnz6k02kWLlzI0GFDGTZsOLNmzSKdTtOnTx9mvzKbeDxOZWUl5517HjfddBP9G/rzpaO+xM1Tb8ZxHL5y2lc4Z8o5tLe1c+WVVzJ+/Hg6uzp54MHfM3/e60Q/AdWpdqqn21rwqtHGd/0hlGmLvYIyFhtdjAnKWSWyRDBYJDv5su5HloDDg1pcNBdF3yQvQllE3yDCm6KD560N9NcxbrCXkNQGSQwetldzTfRdanWEB7MHsLeo4vW2Fu67fzrJZHKTqFoxhJpMJkPftw4VMclkEsdxyOfzSCkxDINsLouUkpqaGtra24D35+LuAZjp06dz+RWXM2DAAJ595ln2329/zv/++fz2zjuZdus0pJRcc+012JbNw396lIhtl/RyPRk71dNtJO/JDL7QHBBU0kfb3BlpYmRQxuignI3CYb3IYyAIhGYPFWGJkcZEUK5NVogsvtDYSCJaYmtJmQ5VNj6apTJDuQ57cwqfiJYIIbBte6uSpM1j2MV5V0oZWvLokpWOhnw+T8R+PwRaDJhorclmsyxevJiqqipyuRyrVq2ioaGBufPm8syzz3LyySczdepUUqkUlmURse0eH2gpYqc+pUTQLlyWiQyneg1kRcDfzQ3EMDjO78ebRmdJCCE05EVAubZwUGQJSqFWXWjLR5HvltliFSx9WVLNKKLRKKNG7U0sFvvQ+jBSSjo7O0kmk9TU1NCZ6sRxHOr69iXVmWLVqpWMHDkSz/NIpVJUV1cTBAVxZCQMlabTaXzfp6ysjHQ6zZ6Ne3LwQQfz1ltvccopp2CaJq7rMnDgnvTrV7/VjJmehp1+NCWCeWY7J7oNLJUZ1oo8KeFxnFvH60YHFoKoNohjMNdoZ5xfyWS/H+NVFWc4A7ALwZZOPMb4FaHKBhNbb7quj2kDL+8wcOBA/vj76QwbNpRcQee+OWKxGIZhIKWkvb2defPmcfHFP2LixIl897zvsvfeo3jhhRd47bXX2G/MGM79zrlMnDiRS392KfPnz2fdunVE7Ahnnnkmhx16GFOmTKGmpoZ58+Zxww030NzczBlfPYPx48fzrTO/RTaX4/rrruawww4lk8ns7C39yLHT63SBICsDKrGYYa2jCx8lQmn0DLMZiWAPEeE9mWaR7KJVOhzv9WOUKmOxkeZNM8VSkaFVugxXSQ7z+7DQSIEQLJdZNggHE0EfIrxjZ1ibTTF3zlyWLl1aWjpt8nmEYPCgwbz++uts3LgR0zSZO3cu+4zah2OOPoahQ4fym6m/Ye7cubS1tbF6zWpO/vLJHHLIITQtXcY1116L53scffTReJ7HhAkTGDR4ML/61S/JZDNMmjSJq6+5mubmZtavX8+BnzmQNWvWcMopJ3HrrbeTyWR7tFQKdpFcKkCTF4pIoXe6KDyhiWkDCThCYWqBgSAjgpLI0SU8x0bio3GEwi6oar2CR67Y2x1RUM4Eilw+TzQaxZBbz59zXRfTNJFSluZ113WJRqOldKei5y2bzWKaZkk/Z9kWWmkemP4A9957L888+wyxwrIwmUySy+UwDAPLssjn82itGTBgAOMPGMdTM55Byp4fU99pN2xxPo5poyRtspCYmvf/1u/LnuLaKBFVlFRpQkFFTBeSDDc7B8Au/E2h7hvd/rc5LMvaxDizLAvTDL/q5jVligkSxd8hlFflcrmSAVg0HJVSmxiRkUgErTXNzc386dHHSCYSO3En/3v42ORSPRlaa2pra0l3dZF3nB7fc3cUH7typidCCMG6detKU8SnDb2kbwOf5rJin77HuBcfil7Sd0P0kr4bYpeTXsxw2RkEBUXNfxPFfDdgO8ogbR+KQaCtBWBc192ikNH24D89rzt2KenFwkO1hKlADgq/kNi4vVBAGSblmLvk5gshcBznA+vAaK3p168fiXgCz/NKZUx2BlprTNOkoaEBwzA2+S5KKerr6ykrK9uh+vJaa/rV9yOZTO5UXfpdRnqxiNAAFeMn+RHkCDgl6M9BqoZsIeyi2dShoru9Fn/PCJ8Tvf6c6jbQKfwPPG8TFKpPZDLvpytrrclls/zgBz/gqKOOKlWR6v6jlML3fX5+6c8ZNmwYY8aM4bJLL8P3fZRSmxy7xXfexvsQau9qa2u5+ldXh/VuPH8Tvd6Pf/xjJk2aVEqv/rBrFCN/l1xyCYcccsgm5wkhyOXy5HK57fIp7PSSTQA5FFpolAZXKMqUiYlkiUyTISi4X30iOnziXaFJaAMPhVtw3wZCF8jVxLWBrUUpRdlEYGiBIwLi2sQvTB92QWzhoNCuz8ihw2hsHMBLM18u3QzDNHnrrbdobWnFMAxy+RxahWVInILjxbIsIpEIdsRmTdMa5s+fj5Qy3O3BdUueN9/3SSQSJfFlNBZFBWoTt253SCmxLItcLkcQBHieV8qVj0QiJT1AOpMuhXjz+TzxeBwpJZlMBsuySi7iIAg2OS+TzRItfLbPTjwQKSWvvja35H38yEjPibCMyFn5gQigU4bpxD6KehVlg3Dwheab3kAmeNUEQvO60c6D1ipOCxqoUTZDggQSyXR7Bf8wNxS0dOHcfobXn4P8WuJa8rrZwW/tJs7yBvKmTDFPtqOAU4L+rEm3MWDCWL524sm8NPPlUj667/v079efdDpNbW0tF/7wQizLor6+ns7OTq6++mqWNS0r+OQDKisqaWxsJJfL8d3zvktDQwONjY1YlsXv//B7nnzySWzL5ocX/JCJEyfieR7Tp0/n+b89j5SyNN8GQUDgh7//5Cc/YdDAQXR1dXL9DTewYMECgiBABYq8k+ecs8/h2KOPQUjJrFmzuOPOO8hms0yePJnTv3I6AKtWreTyK67AcR0CPyCVSnHx/13MsGHD+PFPfsKpp34Z0zR54cWZlJUlP5CznRreAzRl2uTS3EgWGiluiSylVkWo0jaOUHxGVdGg4oxTlRzn1XFN9F1+azfRKTwQcJRbxwSvmtsjTcw2NnJpfiR9dKRkCJoIYkgesVbzy+g7TPL6cLBfS6A1J7v9yQlFDIMT3X5QFuPxx5/kzG+dA4SCCq01nufxmc98hoF7DsQ0TSZPnozjOFz1i6vwfZ9LLrkkJEApXNdlwIABTJo0Cdd1mTBhAgceeCC33HoLTz71JD/9yU+prqri+OOP56ijjuLyKy7nkUcf4ac//SlDhgxh5IiRHH7Y4Rx+2OGMGTMG13NpbGwkkUjwi1/+gs7OLq668qrwsylNJpPh0EMO5Qfnf5977ruXX9/0a0466SROOP4EBg8ezCU/uYQnnniCqVOnsnz5ilIP7+rq4jtTvsP//M//8MijjyCE4Iorf8mlP7+CZPLD/f87KYxU7KsqyEife+0V5AmYFlnK/+aGYyBwUARCkRYBlpZM8Gt4xdzIfdZKKrDICZ8H7FXMl+0siHQwyevDPkFFIZ/dwEXxiLmGsaqKRh2nVbgM1nGetNbxRX8ParTN6KCcLAFzrXZkHjqVs8nwVhwyfd/HsixWrlzJNddew4oVK6iuquZHP7q4VOddCIHv+6Vgi+u63HbbbTz33HNUV1cz+bjJNDQ0cPDBB/PGv97AkAZr16zBMAz2228/hg4ZykEHHYTWmoULF3LX3XfRvK6Za6+9lncXv8uGDRt46I8PMXjw4NAKVwGTJk1ixtNP8+hjj4KGcWPHcfDBB1NeXs6bb73JvffdS1lZGbNfeQXQeK7HlClTGDF8BCefcjILFy6kqqqqFMffnrDuTpEe1ocz6BIeUgviGCitS4WGIBQ/vG50cHXkXb7k13FMvo63ZYpfR98jIwLyIiCpTTwUGeETwygs+zRVWNycG0OLdGkyMlQQSqeWyQzrRJ4JQTWjVDlzzDbyQmN7Po7jfOBeqZ7nYVkWyWSypHrZGoQQ4dydC8uGRiIRXNdFSImUkhEjR3DWWd/Csm0WLHiDpqYmHn/8cabdNg0II3WNjY1kshly2RyVFZUEKiAobOhb1AJUlFfQvD6sSmUaocDTMCTJsiSZbAbLtkqFD7OZMIkjmUiwfOVyJk6cyMKFCwvXc0ubEH2YRm+nSJcIWoVDQxCnDINlMsuhQVg0qLAFDADl2uQ1s42nrHUM1HH+lDmQp1QzJoJ6FWWj6dJXR2lQMTaIPCNI4qEYpcpJapNTY6+SJuC3QZRYITT7N6uF070GPBTXRpagsg6fPegg9t9vP+6+575tfvFijL1I7Nas3e7vda8pW3wQOlIp2traOPucs0tSrGLVCs/zgPfLlNbW1tKvXz8Wv7iYUaNGYVkWLS0t4VCtNMualnHwQQejAkU6l2bkiJF0dKRY3rScIyYdQcSO0N7eTt++fVGBQkrJzbfcwntL3+Phhx5mwYIFzJ49m+OOO5a+fffg4YcfKVXP2BZ2Tg1LWCHqLaOTG/P7Mtdo53N+n1KVCQOBKxQjgiT/5wxngdlBhYqwRuRYKbOg4Wx3IA06xj5BOSuNLG8YKY70+mIgeEemkQiuzo3GkQFHefXcGV1KTBu8ZLRwYX4oi4xO3pNppBdQX1/PuLH7c/c996O1KsW9Y9FYafel4ga6WmsMwyipV2OxGIY0SuRpFb7XPTUqHo8TiUS4//77ufeee/j9g78nCAIaGxv56SU/ZfXq1aVATRCEvbq2tpZrrrmGWbNm8fnPf57nnnuO1atXU1ZWRiKZ4IknnuArp32Fe+6+h1wux4QJE/je977He0vf45v/800efOBBVq1axejRo7noootCLX8ywaxZs/jd9N9x4w03csyxx/D1r5/BsqXLyOedDyV9p+RSxbyzWVYbrtDEtORRay2zzI10CI8W6bBCZFklc6w28lRoiw3S4a5IE+3C44tBX56ym8lrxRIjzd32CoSGlPRDvQsWWEIAAA2ySURBVJ3M8bqZYg8dYaXM8qi9hiUyTQ5FRgR81q/hn1YLbxtdlNkx3n13MTOefrawOXDYM6WUtLW1sWTJYtra22la3sTy5ctLTpslS5awevVqNrRsYNnSpbS1t7Fk8RLWrVtH68ZWlixZUprjm5ubWb58OcuWLWPOq3Oorq4mlUrx2J8fo6mpqbQcg/dHizcXvMmcOXOoqq7iub88xwMPPkA0GmXjxo0sWbKElatWMnPmTCoqKkin09xy6y28/e+3UUrxj3/8A9MycR2XGU/P4M2Fb9G6sZV333mXIAhYsGABqY4U6UyaSYcfxu+mP0hLSyuW9cF9eZeIKIrluBUaW4dr5zgGeRSyUFAoT4ArwkE/ogWGkNye24+77eU8Z6ynDJOYNjALBqAGYhjkCcgV1uqym3xqqE5yaX4k348toAsPE7nVmi9CiNJ61zRNMplMqZJk0ftWVLoWe73jOCSTSdKZNLZll9KVMpkM0WgU0zTJ5/OlWnHRaHSrm/4orclmMqWypaZplq5d/Ey2beM4DtlcOPIV2yrKvLonVyYSCbLZbOm8IAhIp9Mkk0nq6+tZv379dvH1sShnik6YU/wGXjPaWCoyJenU9sAhYD9dyYigjD9aq0oyq90ZxSpX2+OR+1jlUltLYd4eCAqlylBEP8GFiT4ufKzKmSJhO/rUFYWURi/h/xF64+m7IXpJ3w3RS/puiF7Sd0N8YiTQxV2dzEJK1H+KogzL2EYrgrDYglkoYPyfLG2K6/KiWqfo/StmxxTj9MAm24f9t/CJIL1orddqm/ZCGZP/hHiFphwLA0jhbfXxcVAc4tfSIh3eE+nS7lFF5AiIIEsFk4ou2s23B6uqqqJv374lL106nWb16tUlkcSYMWPQWvP222/jOE5JqLEj+E+rTe8S0ovxb19orEISY76gpono92+Qj8YtJCYWc9O9Ql/yCyGaWGE7EKdwnEQQoNmDCN/y9+ROq4kW3LDQARq12TW2/GzhA+IJRY6Ao706KoTF/cYKYhg4KFRh6xBdSMQ8wevHHGMjc+12yrRJpJAhH6A5NWjgn0YLLTjEMHAdF2nITYoMZTIZLvzhhRx11FGlfV3+9a9/cdnll9G3b19unnpzKXsmnU7zwwt/SCqV2mTToWIMoKi4KXrpPM8r5dQ5joNl2RjGjs3SuyBVGSqxKMNk36CCjAxoEy5jVAWNKs56w0EDAVCDzf5BBTFhsF46SKAKC4FgpCqnTkVZI/NYSA4IqkgIk0CEW4Bl8Vkt87QIh3IsLCEYqhIMVgk2GA5eIcDTHRqowkYAY4IKKrXFMiPDKpkjS4AjFCN0GUNVkoz0SWLSJXwO9/uwRuawhGSgjtMsQsfwcJ3kfGdIWPFKe2RlwNW/vJI9+vThtdfmlogPgoCvff1rzJgxg4svvpinn3maOXPmkE6nufjii6mtqeGMM87g8ccf5/TTT6empoZZs2YxcM+BJBIJxo4di2marF27lvq6evr3709LSwtKKSoqKujXrx9B4PObm25gzZq1rFi5cofKoO1UTw8L/xncmN0XJTQbpEuVa7JC5uijbcq1zQovw09ii5gQVHG+O4T1wqFBxfm7uZ6bI0uZ4gzmYL+WPAHzjXaWGmmuze9DADgiYLgq5167ieeNDXzXGcz/RRdyZNCXU9wGlos0cSzyns+l0bdJ4eGL94dICVyWG8kgncAFnrDXgK+pI8p19mJ+4Azlc94erDAyDPISNMs850UXkBMBZ7mDeFd1UqMiLDcy/CLyLof6tdSoCEd6dViG4AlzHRvb2uhKpzfx90spicfiqCCgf//+GNJg9ZrVRKNRhg8dziOPPUounyNQAY/9+TGOPPJIampquOuuu3CcPC0trQwZMoTrrr+O1+e/zu233c6FF17IzJdncvddd/Pqa69x33330traiuM4O5xvt/PCSA21yubG2BL+aK3m+tw+TAyqOTHxKlXa4s7c/uylkiyVGS6OLmSJTDMxqOYSZyT365XUKIuU9jg38TqdwudCZxgemu/E/kUSk/sy46go1J2pVOFrtbLYiMMPY2+h0NyfHce4oJIW6fJFbw+CQgBourWSuiDKMiN88PIEnO8OIYJkoIpznFfPRbE3+ZeR4vvOEI7y90AT5tUvMlL8MPom1djcnxnHPmYZd1hN7BtUMNVeyruii7g2uOqqq0vBkO7zezKZ5Nxzz+Pzn/8CdXV1PPzwQ9x3//0ky5KsW7cO27bxfT+c42NxDMOkpqaGyy6/jAcffJAzv3kmF/7wQo74/BHcd999XHTRRYwfP55oNMq9996DUor//b8fE08kdri40U6TbiJYK/MslJ1EtcEKI4uWocFjI2iWeWLawBGKM9wB1BIhUjCObCS+gL9Z6+nCx9CCAUGMWcZGBJDG5zW7DVGYl4sFBDWa2WYreQIksNQICxKtJMdG4aHQOCJAaOiSPn+xNuAXhn+FxkXRoOKsEzkWyzRlyuRVo52xqhJTCzSal82NaMKyKGtFnnIdTkPFzQmKNkQiEd+i6JFpmjz44IOk02leePEFxo4dy4033Mhrc+eWwrSbw7YtVqxYwZw5c0gkErwy5xWmTJnCwD0Hcsutt3DIIYdwwQUX8KWjv0QulyORSJQqae2oAbhLDDnB+zslhz7x93+KS6ALnCFUaJvpkZXUKpuv60YkAiU0WhCGRguZLTayZOBZWoLYcq42kYWbTyl8+5ZM8Y7sKh1XvH74RUXpoaFQ1KhYftQrVLzsvl+cVTAOi20odMmO97ttBl6cx4vJB0US7rn3HuyITSKe4IUXXqC1tTUsYdbWRuOARp7PPY9WmrKyMrrSXaUCRSpQpTKohmHgui59+/aloqKCzs5ORo4YyZIlSwBKFv+OZrzsEueM3a1qhMGmRXytguW7h4qyyOhkttxIUpvUBRGC4h5t3XrQv8wOjvHrGKHK2E9VMMntg1vUuReKEpmITSJzVqHn2YQlycq0SVKHFBbLmdDt88WQLDbSVGFxotePWiKc5PWjUlnhCqTwQHWvgiEReGji2qRBx7BUuGS6687b+PZZZ5JKpYBQg1dTXcOVV1zJxAkTSSQSnHjCidTX1/Puu4v59zv/5owzzqCxoZGhQ4fy1TO+yuzZs8lkMgwYMIAjjzySWCzGiSeeSD6fZ+3atVxz9TW8/fYizj//fH5+6c8ZMmQIAHffdTuj9t5rh/eA2/m9VoGVZg6v4DhJCY/1hSUVwDqZJ0Bzf2QlFznDGBtUYgjBEiNUb24QDh3CQyKIa4MZVjN1KspP3RG0CocWw0UVRoBVRvjlNgoPX6hST18vHVKFNrpDAKuNHBnhl0ahDhEuMNvxuD6yhG+6e3JIUIsANkoXS4dTUkr4pV6+xsiREwEOAX83NjAlP4RRZhm3W008/v+eYu3atZuIKPL5PHX1dVx7zbV0dHRQU1PDTTfdxMqVK3jggQfYa6+9+N3vfocQgkWLFvHAAw9QXV1NZ2cnJ510EpMnTyaZTPKzn/2MAw44gMbGRq648gpWrlrJ3/7+N77x9W8wY8aT9OnTh6aCNHpHsEvi6RYSr6B2KQ6RxRw2q7DuzgifCm1RpS3WyTyGDivIhfMspdpxxaJC4bTgc0d2f2aaG3nEWk2ltvFQpQeq6F0zN2ujO8zC9XVhQDa7nesTbtedEwHHe/VM9ur5buwNktos6fyKbSgUAeFU0EeHGrQOEe6wbJlmyZgqetwcx6Ffv37E43FSqRQbNmwgkQhz5RAwoGEAWmtWrVqF53kMGTKEG2+4kQsuuAAEpFIp2tvbqaurKxUeLur1YrEYY8bsy957j+T2239b0v1tL3bJnJ7n/YpRRUdN9xLfxUJEOQIyIjTY/AJ5xT3aioZaOSaX5/ciJTyqVYS4NviH2UJEG6XrbH6N7m1sDqdw/aKer3iuIxTf8PZkn6CCFpFnYlDNNHtpKeu2e3vd27CQtAq3NHIUiwt1L1dqGAaxWKy0aZ+UkkThOMsKCxWvXBlu29ldo59IJHBdl7Xr1hKJREgmk3R0dLxf5bLQfiaT4ZU5rzJz5ss7TDj0wEJDCs0gnWBfv4K8CHjJbKULn8h/6Af/oOuUYzHWr6RW27xudvBv2fWxSK+UUsRiMfYZtQ8LFizA87edYdsd/6kbtseRDmHPLQ7xscJmuh8Fwvp3AQGaiDZKS8mPA0opcrkc8Xj8I69m1SMDLjayZKl/lDAQJHTPuAXdp4CP/Fr/lav0okehl/TdEL2k74bYgvRikl5XVxe5XK7H71LQix3HFqSHtVJqOPWULzN27P74Xs8vWt+LHcMWpAdBQHlZOZ///Oe46dfXc9xxx5S2oerFpwNbkB6NRlnW1MTXvvFNnnn2OQ4YPw6vt7d/qrDFIrXkRoxGyeddLHPHIji96PnYpvUuhACtqKgo3+kKhb3oWdgm6aZpMnPmLL74xS/w4x//X6lYXS8++dgm6Uop+tb1pbl5PW+9tbDHb0bTi+3HB5I+atTezJz5Mk888eRWKy304pOJDyTddd1SbLjXSfPpwVZJLxJcXlb2idkeuhfbjy1Iz+fzDB06hD/8fjqTJh3G7FfmYNs7vol8L3outhBRBIGivLyMvUaOYP2GFpYtW7bDwrte9GxsQboQIfHh1tMG0egHF6LrxScPW/HIFXKxtlK/vBefDvTG03dD9JK+G6KX9N0Q/x8EGN6VQKOHHQAAAABJRU5ErkJggg==;" vertex="1" parent="1">
          <mxGeometry x="490" y="540" width="125" height="114" as="geometry" />
        </mxCell>
        <mxCell id="WC2iSc7Z6dM6G4pWd70d-3" value="" style="shape=image;verticalLabelPosition=bottom;labelBackgroundColor=default;verticalAlign=top;aspect=fixed;imageAspect=0;image=data:image/png,iVBORw0KGgoAAAANSUhEUgAAAHoAAABvCAYAAAAjQtTMAAAgAElEQVR4nO2dd5hV1dn2f2uX06dXBgZmhtC7NYAolqhAVIQIxt6NgiUYjbG8xsSEJGosUWM0ERM1xfdL3ihoohgFpAii9OpQhzIwfebU3db3xz5nUwTUgHEIc1/XuRj22WWd9ez1rKfc61niuOOPk3Tgvx7KV92ADvxn0CHoYwQdgj5G0CHoYwRHh6Bl+nOgr75iU9IwDGKxGKZpIoT4ahtzCBwVgnYc93PA72yQB/nusCEhFQMzBQeSoWEYlHXqxFlnnUlFRTdM0/ySGnL4aPeCNhJwwnmCgWdJUrE9x6UE24IzrxV06Qtm8sg9UwiwDPfZ/U6HbgMkZmq/dhkG5eVdePrpx7n+2uvo07s3hmEcuUYcYWifeYYA23R/NBKEAr4QKCoYcfc7BPgCoPncEZZKgLTTx4Og6u71drofNL97vmmAle5A6bjn+YLudWbC7exkFPLLJEZC4lj7DivpCMp6SbaulESbBYHwXu1w3Gc61l7tUCEZ3/O3kXR/ky+47xRgGVBYDqddJRl0tsOsFwXVHwo0355zDMNgyJDBNDQ2cvnl1xIMBgiFQv++JL5kfKagbQMi+XDiVZJwnqRxh8Kyt6B5F/QaCn1OdUhGBYtfU2jaKVF98PVxUNbLIdYsWPpPhV0bJT2/Dn1OkzgWLPmHQs1KScUQQXGFJLtIklMiWfmuwobFgITy/jDobEnLbsgqFOxY707TtuW2S6bn7UQblPUWdO0vEQos/JtC627378HnCioGOcRbYOFfBbYNJ10IH70B0UbofiLklgiWvSVRVEC4o9k2oep4aNgKH/yvCsI5oOp2HIdEPOF2pPbZY+arxCFVd+YtH/NdSTAH1s1XyC2RhHOhYhCcfZNk2yoFRYHzvueAEAy/GAaf67B5qYoegOxC6DZIMOZ2h7pNglizYNw9DjklUFoFF9xlI4SgfrPKmNsciiuhoBwuuMuhuVbg2IIeQ20s0x2p2YWQVeC+fEJxNcuAMxwadyiEcgUX3m1j24LjvwmnXGyzZZkgmCMYd5/EiAu69JUMv1ii+wWjJkvMlET3Q3YRZBVCKMfVWIunwxuPC1JxUPbrJSEEhmESiYTx+fzt2gjL4NCvoQShCIJZkvqtkm2rBMveVpCOZMKPJFuWCZbPFIRyBJf9wqHXUKgcIvnnUwqfLJToAYFtSi56QLJqluBfvwNVFRR0lvQaJpFSsPwdwZtPgERS1ltQ2kMSyoJtqwVv/xoQUFiuAJKuAwTn3iyxTDCSghmPCgQOs/8gmPdnSSQPrn4SyvtJeg2XzHpR4cPXYMk/Bdc+JSnrLfnbTxUmPOhwxSMOa96Hxa8LzrgaBnzD1TZNOwVvPC5xbPCH3Rdpf8s+Ho9z9tlnccvkW/ntb5/H+apN/8+BQwpaKGCbkumPCk67Ai75mUNLreD1RxQcy6HbQMmFPwBFc1WhZUkcB+KtgmC2RNUh2QaaT9JapxLMkji2pGGbJJSjkGiDRFSgBUDVXOFJW6IHJK11Cr4QCCDeLPAFJDUrJf/vIXf0OA5EmyQIQbxVEspx1Xq0EbILBY7tEG1SCOdJLEPSskuSV6Kw/B3JrmrBWTdY/P3nGoGwZOV7sP4DgZSujeHYroAPBl3X2bBhI0uWfEy3bl1R2v+APojqFq4Rk4y56rJ+q+AP31P49TUqQpUMmyBJtClsWiL4w50qf75P4aU7VbYuh2AEcoolsWbXEhYKpBKCvM4OiTaBZQhKqgTRBncUqMoe10Wk58hUTEkbYK5hFymUKIp7v5ZdrtBa69wRqGruM+PNoAcE2UWC5lpXveaUSKINoPkF+Z2hbqukx0nQua/k/VdUzrrBncvjrdBc6963reGzR2dG0NNnzKBTp1KEaPfOy4FHtJWC0h4w4EzJ+y8JRk12cBxB3WbIKYKV78KuDYKJP3b45hSJdCC3RDLjl4LlM2HULQ5lvRQ69YQty2DR3wQX/VBy/h0SfwTyO0vWzlM44TzXAs8YVrofAhHJyvcUjj9PcuHdrtXd/wzJrGmAcC1zSLtXhqtNzrjOIZSr0m2ga3jVrIYV/xKcerlDVoFCl74OsSZo2iG47OcOH74uWPg3wc3THE65BN5/BfwHMJildF90KfdV31JKfD6dQCBAKpXCMAyCwQDK/pN5O4LaqazTD/c/aJtQ2FXQ+xTJ6jmChm2CSJ4kK1+yfKbC2rkQa4LtaxSKKyVSwrp5gpZdULMKYs2Cwq4OjTtg/QLBrg2wc717rpmE915Qaa4FENRvgbZ6V4CpmKC+RlC/GWpWCYoqJKm4YOk/FHZ8Iki07lGpQgACYo2CzUsEuZ0kTTth1jSBdKB2A7TUCkq6OzRsFbz7O4VAFiSjguXvuJpmx3qBL+ha15n77Q2hgBEX1G0RRBv3VeeGYdCzZw+GDv06778/D0VRsCyr3Rpm4mD5aOmAbQs0XWIZbnRIOqDprlWKcFVpxg/WfKAHcKNJCfdlEYrro2q667NmztWDoPv23NMXdI+nEm5nZr7LqH6RHsm6/9OGkZHAm1vBHZmq5h4z0r64UNIjVrjH/CHXkjZT7hTlC3PAEKsQaV8b1z/fx9e2LPJy8/jRj/6HkpJOvPzKy/zv//6VcDj878jhS8dBBQ3uD2unL+hXjoyLpaoKxcVFxGJx4vF4ux3Rh7a622eb2wWklOi6huM47NxZi6qq7XqObt/hnKMAiqK0awFn0P5b2IEjgg5BHyPoEPQxgg5BHyM4bGNMAEnhoEjwoRyM8bPv+TioCHTEAc93gBQ2AdT9Yxje+Z/XIUgk3DRiKBRCSokQgmQySTKVRCAIBAL4/X4AbNsmHo/jOA6qqhIKhbxASCwWQwhBOBxGVVUsyyKZTLZbv3l/HDAy9kWQwGasVUY2OltEAu0zRGAj6Sez0VFoERbKfufbSPLxMc4uo1qJYeIg9jtHIr1jjuNg2/Y+lq8QAsuyaGtr47jjjqOsrIydO3eiaRqxeIzKiirGnn8BgwYPoq6ujqamJoQQCCE455xzOXXEqWRlZ7Fp0yYAgsEgF154IT179mTzps0YpkE4Embo0KHs2LEDmY6k7N+O9oTDFnRM2FyXqiCh2MzR6t2bonhjMYlNTNiYQqIhsJCc5RRjS8lWJYFEEhMWppBYSEwcOssgV5hdeV3bSaMwkcLVFi3C5By7hL5ONu+rDYSlit/vJxAIYFmW1ybbtsnJyeH2227nxz/+MT7dx+uvvw5A7169ee7ZZxFCUFVZxRVXXMGs92ZRV1fH1J9O5bxvfpOWlhZuvulmbNtm9uzZPPjDB+nfvz8DBwykqKiI6TOmc8899zB40GDeeOMNdF1H0zRCoRC2bR9Od35pOCKqu01Y5EkfN6WqCKLxpr6TRgwsIRlg5zDCKqBWSfJPbRcWkmVKMy1Y2MKhzAlyjllKqzDZqsTZLVIksGnDYoRdQE87i9VqK+9ou+kuw1xodsbvCBLC5q3oZq6dcjUjR5zClVddh23bqKpKIpFgwkUT6Nq1K9OnT0dKByEEpmly3XXXsfijj7jhxhvQNI1X//Iq48aN481/vMnw4cOZMHECy5cvZ978edx3331MnzGdnj17MmnyJDp16sTNN93MsKHDOOWUU7juuutcLRGL8c1vjuGuO6dwxZXXsGPHTnw+32f23X8Sh61nMnPmBKMLBfjo7oT5cbIvNnCCncf9yd7EhM0pViF3pnrSplhcbJYzyM4hW+r8PDmAfOmjRPp5Mj6EU61CGhWTXnaEsWYZUWFzc6qKsWZnUjhpPSHIQiMcDDLn/bk8/9tp7o9Jq81wOMxrr7/GFVdewebNm71O1zSN8vJyFi5cSCgUQtd1Fi1aRGFhId27d2f79u1s376d0tJSVq9eTSwaIysri3gizsiRIzll+Ck0NzczedJkXnjhBZYvX45t2wQCAdatW8djjz1JW1u0XdKKjsiIDqDyN992fuxfS7708XLsRLoRYrRZwj+1XTzlq6abjPB8fAjd7TBJbOLYnGEXsUNJcH9gFRIodQL4pIIPQZMw+XFgLUuUFnaJBGfbJUzzbWau1kC2rfFrfRPlWojVK1axzFxKJBLx4sxuHNpA13X8fr83hwohcBwH0zJRVRUpJS0tLVRWVhIIBEgmk6iq6l6fMtLpxyBPP/00t916G42NjdTU1FBYWICUkueee46ZM2cyd+5ctm6tYf36T4hEIu1ynj4ir56Fww6RJEfq6FKhRTEJSgWfVDnFLqRKhtEQtAgTKWSajy/JkToblBhBqSGRbBMJBKBKQb2SIo5NgfQRFzYp4eBHwS8VfChkSc0b3QdKJBwsNKkoCqqq4qSJ4qFQCMMwME0Tn657Frfu09F1N/n9wQcfsGTJEgKBAM88/QwrVqxg/LjxvPXWW0z57hQ2b95MTU1Nu01owBGMde/pdvdjInGQzNZ3M823hYjUMIQkhY0vbWtHsejtZJEQFg5QJP3sEm5eUEF4Bt3elrkqBSYOUWERTEGvXj0oKizkw8Ufee7TwWBZFq2trVRWVNLa2ooQgl69etHY1MjOHTspLi7G5/Oxa/cuevToQW5uLg0NDYTDYVpaWvj+Xd9n7dq1bNu2jVQqxb333ssJJ5xAaWkp9fX1nHTSCSxftoJYPN7uRvURmaMDqOh7+dAhVHQEb+u7ON8sY5TVidFWKTcYlQgEPhQi6PxLq+Nrdph7Ur251ejOGUYJceGgIAimxSxxX6IAbtZ/p0gywi5gotUFNZbizLPPZMqU2wC8Ueq1TUr8fv8+fOs//+XPTLjoIqZMmcK999zLiBEjeOutt1i6bClNzc08/tjjXH7Z5fz8Zz9n/vz51NbWYhgGp488ndNPH8lTTz1FXV0dI0eO5M677qSiooINGzZy6ohTuP++e7AsG8dpf2TBw3avBAJHwCY1RhMGKgJTSLaIOMvUFuoVg+FWARE0lqjN1IgEUsBWJc4mJc48rYFKJ0y9ksISDnFsFmlNWEKyQcSQgCIEDYrBDpLUqAlCqPRyIqwLJlm8dhUz33qHZDJ5wFGk6Ro7duygurqaUCjE+vXr2bFjJ6cMP4WC/AKefuZpFixYgKqqzJs3j169etG3X1+WLl3K4088jhACKSUDBw1kwYIFrFixgtraWkLBECeffDJ/+cufmTt3HhddNJ66+npenz6DUCh4OF36peCQxIPPdQMgIWxUKbzIWFzY+KXrS8eFjYVEAJoUhFBJYHuj9ng7l3VqFE0qPJrsz9O+jbyn1nnfK7jTgIlDCBUbSUy4vmoYDWnZOI7jzaf7tE0IEokEjuMQDoc9oywWi3l+t67rhEIhhBCkUikSiYSn/sPhsGdBJ5NJbNsmHA7jOA7RaBQpJZqm4fP56NWzJ61tbV5gpr3hsAX970Km41tXm10ZaOeiScEcrZ4/6jXeHH60IBNWFULsY+W3J3xlggZ3/k0Im0ja6o4Ki5D8rCBqB/4dfKU6RgAhqeLa3BCW7U/l/begXfTs0aWoj060L2evA18aOgR9jKBD0McIvvQ5WgAGzj4hzczxFA42khDqp5gmMWETlMoXnr8Nw0BKSSAQ8NycjC+dQSAQQNNcTnYymcR2bDRVIxAI/Ju/sv3jSxe0haRcBkkIhyYMT3ApHPo72RRIH7PV+jRjRKKnlcw4q4yFSiMNwtjnBZFSIqX8VBTMcRza2tqoqqoiGAyydetWL/DRv39/ioqKIM1MWbtuHbt378a2bY4//niKi4rZvGUzq1ev/rfKUziO4zFU2isOKwQqcKk/JtJLamSiXioCE0kMi2/ZnfGhsEHEUNLRsmbFZLRVyjA7nz/5tjHKLqGbDLFEaSaExt3JnizQGtmsxEGAttfY3r9THcdBUzW+/e1v8/hjj5NfkM+bb77pcbye/fWzDBo4iP79+nH88SewZu0a1qxZw1133sXkSZMJR8LceMONtLa2smzZMjeVaZokk0kv3SmlJB6Po+s6iqKQSqUwTdONyKULBrRnHNaItpDkopMvfWwUMQQwQGazQyRpwaQYPzoBZqv1GMLlfilCMMosJSHcLFYzJl1kkAuNMmwkrX6T9SJKkzAplQEuMbKoVwwWqo0kY3Guu+ZqTh1xCt+5aTJCCBRFIRaPcfmll3P+eefz3nvvoWpuAsRxHPJy8zBNk2uvu9aNUacJfwMHDmTihInccOMNzJ4ziysuv5Jbb72Vt956i65du6KqKr179SaZTDLznZlkZ2cz9OtDmTd/HslUksqKSnJzc2lqbOTJJ3/JDx98iI8/XkIw2P7i3HCYxpiNJE/q3JnsiYoggsYLseM5yyqmVknxbaOck6x8zjc7caKVhyEcHkz2ZZRVylC7gMtTXTFwKJZ+CtOfQXYOQggiUuP2VHd6ySwmG1VcbVZg6gqffFLNrFmzURTFG9WRUISZM2cyfvx4FnywAL/PZXU6juOxPIcMGcKoUaPoWt6VtrY2+vbpyyfVn7B8xXKKioqZ8/4cbNumpKSE66+/nt8+/1uGDhvKNddcw9SfTiWVTHHnnXdy/nnnE4/FefSRRxk4YCD1DQ38459v09jY2C5j3BkcVst0BJtEHFM4lMsQxdJHrZKkhxMhS2p0dUJM13dS5ZSREg4n2XkUOz6uDH1EizCx6Uee9LFQaeRdfTcO8KivmhLHjw+F3/g28bKvhjPtIu5O9OKVcJi58+cza9ZssrOzvXYIRdDa1oppmR6tF9z5XFEVysrKuPmmm2loaKBPnz5MvmUyoXCIaDSKZVke1UgogmAwiN/vZ/r06Uy5YwpV3bvz+v+9RreKbtz9g7t58Ic/ZMiQIdRsq+H3v/89uk/n8cd/lS5c42uXcW44zBEtEESFRbWIMsDOZoCVwzTfFkJS5UQ7D4lkvRJFQ8FCUuL42aDGsHCISI1qJYqFgw/FpRBJhbBUURG0CYsNSpwC6aMViwQ2GgJVVQ9IvFNVFVXdt/CI3+9n+47tfOc73+GGG2/giiuv4PXXX2fSzZNIJBKfZqFI9+VIJVOsWLmCrKwsWpqb2bZ9G5UVFbz55pusWrWacePG8fOf/xxHOmiaht/vb3dEg/1x2K3TUPhIa2a4VUBngryr1VEnDC41y9msxGkSJqrcQ/TPljqmkG4qkz3uk4LLHElgI3HP19PfZaxuy7IpLS2hT5/en2vkqKpKtC3K2zPfpr6+HsuyWLt2Lbm5udTU1NClSxf8fj9NTU1EIhE0TaO+vh6fz4eu6USjUWzbJhKJ0NzSQv9+/enZsydr1qzhW+O/hWEYOI5D3759yM7OardUXzgCgvZLhaVqC8fZuWQ7GptFnDVqK+cZnVmjtuFISQCFiNT4WG2m0g5xmVHOCKuAy1Jd0aWCA7Ri8nU7n+FOAQEUAlJFSa/kUBCEpEo8FuPCsWN5+BdTcRzngIwSXdcJBoNIKYlGo4w6dxQv/eElxowZw7hx45h8y2Q++vgjlixZAsADDzzAiBEj+OlPfkp1dTXV1dVousaVV17J6NGjuf322wkEAqxZs4Ynn3iSefPncc011zBx4kTOOeccsrOyeOpXj1FaWtquS0QeNsNEQRDDxicUFmqNbFUSxLHxCcE/td2kcMgROtuUBGuUNjarcb5hldDDibBMa2GZ1kKNkqBWpOghIwx2cliitOAoknVKlAQ2ulBQhMI6f5wtW2t4f+48mpubD+hL5+flEY/HWbZsGbqu09rWSrdu3Tjj9DMYPGgw8+fP59lnnyVlpFiyZAmnnXoaw4cNp66ujp/89CfuyzFqFMlkkn79+lFcVMxDP3kIXdfp3r07Tzz5BLvrdhONRunSuQvhSJA+fXrz7LPPo+t6u/Wlj1g+Op5mmQRQsHFVc1CqaAiS6ciYD0ECG0e4qtlC4pMKQVQMHJLCnYf9UiUlbHxplooNpIRNEA3LNLEs64BRrAzN17Ztz80xTZNEIuFZxJZleZzuRCKBaZpomoZpmgQCAQzDYNoL03jttdd45Y+vEA6HUVSFYCBILBbzomrxeBzbthk4cADZ2dksXPghfn/7Iu3vjSPmD4SkawhlVG0knVuWgD89Q2SIhPvHO510wCWyVz46sM/9IChVwKXuHMyNyajuTIADXNJ+VlbWPtxucEe/3+/3GCGZF8cwDXbv3o1pmoTDYY9mBHgL6qSUBINBhBCsXbse27b2sfbbI75Shkl7hETi9/mxLOtTNsDRjPbtE3wFELiEwvZsQf87aL+hnK8Q+/vj/w3oGNHHCDoEfYygQ9DHCL4UQceFjZNeZGd/ZlWTfeHWOLHTJS0OH5nc8kGfJwTxeNxjphyJnW4yqz72LxmZKbkRjUa/8P3iibi3SODfwREVdCZGPdIqJCw1gqhko38hURtITnDyqJRhjC/4kuzvx0opCYVClJaUHtTHTaVSjBw5kj59+iCEoFOnTl/omQe7Z//+/TnttNNIJvds32OaJmVlZZx/3vk4jvO5/e5kMsmpI07luOOOI5Xad7ueDOPms3DEBG3iEBMWFpLrUpWEpcaJTh6j7BKSuCM8IWwSwvZGuYlbtySBTQrHW7kx3ujMcVaud24C20t2SFwO2t4w0temUm5ULPPWJxIJjhtyHJMmTfKqCGU2JIuneWTJZJJxF45j0KBBdO7cmbvuvMtbYmMYBvF43KtU5P1W0yQWi5FMJg/YyclkkmFDhzH2grE0NjV6a70Mw6Cqqorrr78ecIWUTCaJxWKfEuDex+PxOBecfwFnnH6GtwYsU23JNM3PtbnaEal4EMemlABfs8JsVeJEsfAhWKa0sIGYRy36upWPimCdGqUNkwJ8mDj0tCO0KCZrlDbAFZyVVv1hVI6zc7GRLFVb8KNQJIPsEklUBA6SUttHTJf87LGHmTHjDWbO/BehUAi/38+6detoam5CURS6dOmCbdtUVVURi8VYsmQJUkoSiQRSSrZv385LL72EZVmUl5fj2A4VlRVYlsXHH3+M4zikUilKS0vp27cvdXV1rFixgkAg8CkVnTJSRKNRBg8aTEVFBUuXLqWtrQ3btonFYu5zkwn69+tPWacyNm/ZTHV1NcFg0Iuzl5SUsGPHDpYuXUIikcAw3CoMOTk5DBo0iGXLlnHrrZPRVJVfPPzoIfluhy3oODbHO7nckerJBiVGkfRR6YRoEian2YWUygC/0TfxQLIPqlRwkKQsm5/413GL0Z3udphNSoxKJ8y/tN086q/GQWLhkIPOA6k+GFKSJXV2KHF+5d/AfaleTPWvY4OI0UtGuCP1Ne7V17KjdiexaMxLdiSTSfr268voUaOZNHkS9917Hz179mT9+vV07tyZ2bNnc9/997k56FSK7t27M3nyZC697FJu+s5NDB8+nOrqaoqLi1m5ciV3fO8OBg8ezCMPP8KmTZuoqKjg73//O888+wwC4Y3uVCpFLBbj9NNPp6KiAkVRCAVDXH3t1d7IjcfjXHP1NVx+2eWsXrOagQMG8tgTj/Hyyy8zZcoUJk6YyLp16+jcpTN33HEHiUTCWxr89FNP09LcwocffkhDQwOq+tmFZw9L0BKQAq42ujFD28lT/g0Mtwt4xB7g1TbRpKBKhulnZ3NxeBHbRIJuTghbSDrbAeYpDfwkuI7Bdg6/jA/gf/XtWEKiopDAZqp/HdtEkhw0fhc7njAa20WS060iPvQ3c3qqmFrVYJdM8NCPphIMBrw0JbjBD7/f3bIoJyeHGTNmcO/99zJ82HCeefoZnn7maUzL9M7NxLCzsrJYsGABt9x6C31692batBfp0qUL1117HTNnzuS7U77LWWedxVO/+hXvz32fiydeTF5eHqqq8uqrr2IabjLltttvY+fOnbz80stcesmlzJ03F9M0KS4u5rLLLuOBBx9gxowZXHXVVdxw/Q0sX7acCRMmcPcP7mb+/PlUVFSwa9cuVE0lEonwzNPP0NTcxPe//310XefFF/+AlJCVFTnkXH2YgpZEpIYiFBarTeQ5PqpFlBqRwIfiJSvWizYWqY38Kj6YDUqMv+rbWKm20qKazNcayHI0NooYO5UknWQAO72o1kYyyizla04EQziEUdGl4B96LVcb3chH5zgrlxd9W9Ckgh4KekVovDZK6dJxcTNbixYtQtd06urqaG5qcpMZcr9z09bxnDlzUBSF3fV11NTUkJ+fT2FRIfl5+bz80ksEAkEikSz8Pj8rVq4gLzcPoQh21+2mS3kXPvjgA7Zv3w7Aog8X0bNHT+YvmI9pmlRUVNDc3MyHH35Ifn4+H330EdZVJoOHDKattY2VK1yGS11dHdFYFMMwuOqqq1BVlYkTJ9LW1kZBQUG6AM9nG2SHrbptJCou0yQlHHy4qcnMY1UEKRy+H1hFPyeLoVYBD6b68r3gCs+oMkSGTqRipo/Fhc1ou5QRVgE/CqzFQtLF7k0EjcVqE1fRjUuNcgzhsERtJohKfnGh64YkDu6GZGg/mQzYoTpI11xqr6ZqCCHc+LeEZSuW8d577xEIBHju+efYunUriz5c5F1nmibDhg7z0p/uZis+729FUUgmk14hutbWVq9NiUTCpRALQTJtMNqWy3J5++23Wb58OVOnTuWiCReRSCTIyckhGAzS2Nh4SIPssKxuBUFMWNSQ4EqzK2UywPlmGf3sbEwcNAQCQScZ5EajEhtYoDWgSreaQcBR+bZRTrkM8m2jCxFUqpUYEamhIdClm4uuEwY9nAi97CwAWrBYqDZxV6IXH2iNtEgDVVF44XfP8o2zzvD8VCmlp7qR7gqNzIgXQnhq2ufzoWkaiqJ4eWy/34+ma96LEAqFMA2TRYsWMWTwEHburCWRSNC3b1+klGRnZ5OTk0NOTg4+n49kKsm5557Led88z7PA57w/B03TyM7O5pP1n+A4DpMnTaayspKbb7qZuvp6Zs2aBcCkSZPo0aMH11xzDSeecCKO47Bx40Z++dgvaWxs5KGHHqKlpYVJN3+HSTff+Jm++RFhmCzTWhji5HK+WUYAhWo1ygKtkSw0YsJmgxLjbAQX+eMAAA1+SURBVLuYc60SRthFvKHVMkur50ynGBXBKVYBlTLCr/zVbFbiVMow25Uk76sN9JdZjDc7U4CPGjXBQq2RNmGRFDbnmiX8yr/BK62xedMW1qxZ6xH/bNumuLiYcCjMvPnz6N+vHytWrGD79u2EQiG6V1Uxe84cunTuQk1NDQ0NDZSUlPDue+/Su3dvNmzYwJYtW/D7/fTs2ZMlS5cwe/ZsBgwcwKWXXMrwYcNobm7ho4/2rYhk2zalJSWEw2EGDRrE6NGjmTVrFtNenEZpaSkFBQW88847rF61mgsuuIDRo0aj6zo/+elP2LZtGxs2bGDshWP5xlnfoLKikjlz5qR5a82sWrWKZcuXMWbMGKqrq7n0kom88eY/Wbdu/SGrFR6RGiYmEkO4zM64sAFJQKr7RMX2VDaAmLDwofJ4agC/07ewVDSjCuGuw5IqJhJ3k0JI7XVfiSQoVWLYnGuXcI5VzJTACoLSpQ/G43F0nw/fXsSDzLybqcibYX5KKbFtG03TsB3b1T1p9axpmuePZ6zZTPlJy7JIpVJkZWV51YD3JidkkPGRdV3H5/PR1tbmaRDbtj2GixCCUCjkVQ8OBl0mi6qqBAIBz1/OkCk0TfO4aaFQiDFjRvHOO+/S0tJyyKzbYc/RmfJQarpygV/umQ0yDE8BRKSWDmu4lQ1sIWlOM0SlAF0q+NL321NfzGWW7H1fmb7hICeHuWoDdroQTuaHZzp5b2SEtXdHCCG8/yvpnej2Obafu5L5v6ZpnsCBQ5ZxzrBWMvSlzMuQmT4yCwFN0/Q8A8dxPK8hwznPVEbK/JsRumEYvPLKnzx606Hsja+UYRJGI4WNuZewPg8kkI1GnD0VjzpwaHylxIMWTNRPVeP+bAigCROFjrIYnxdfqaAPp/5QR+2iL4aOfPQxgg5BHyPoEPQxgqOGBZqp8f15ja+Mf2/jrv06mGvhpFeVgOv2fdGZP7Nhyt5+tG3bXsx878UGUkos2wLpumn/yeU7R82IVsCrb/J5YCIpkX56yQjWQcTs4Frto8xSxppl6IjP7bJlCr9m4tWwp8isoiiUderkbtMQd0tz2LZNMpmkqLCIkpISrxj8f0rYR0TQdnrkZAgD4K6rSuF4QRJwR4+B4yUuMtfuOe52sJO+NnPfBDaDnByuMruRSj/DTp9jHkSICWHzdSufy42uJIQbo7PSz3HSz2kVJhdaZVxlVpArdQwchjoFdJZBb5RnWB7710yxTItLL7mUV//yKiccfwKxWIxEIsGwocN49S+vMnXqVF6c9iLjx48nFo1h2zb3338/v3n2Nzz+2OM8+sijBINBjyGSibhlNhu3LGufnX9M00Q6jseQ+aI4coXZhaDKCZOPjxZhkit1ejkRpHCFaeHmmHs6EUplwOv8ICoI6OaE6CIDJNL7XPVyImShoQuFECqblDj/0najIwiioKXPKZA+EuLAqypk+iUCNxuWh05PJ4JIL/zLQ+frVj5v67X80VeDH4UrzK6caheSbWs4UnLXnXcwZvQor3Mz+2xNnTqViRMn4g/4ycrO8jhgVVVVvPHmG1x3/fU88+tnmPLdKYTDYUaNGsXZZ32DW2+9lRu/cyPdunXj2quvJZlMkpOTQyQSoW/fvmRnZxONRikpKSESiWBZFqZpkp+fj+7zMXLkadx37w/ctnyBtV6HPUe3CYvbUt0ZYReyW0kSlhpLlRa6O2GypY96keS+wGq6yAB3GD2xpSRP+viHVsvvfJv5ntmD46w8glLlPW03/0/fzkPJfkjAEW6NlB8F1pJr64y0CvlFYD3/k+pDqeMnjkOh9PF7fQtv6rsA6emKTAo0Uz/8IqMzl5jlNAoTFbg/sIYhTg59rGwKpVvzpEkY9LAiZDkafhV+r9dQWFTA9u0RjzMmhEDXdP7v7//H4sWLeeSRR7zwZSgU4k9//hPxeJxYLMa2bdswDVc9n3TiSbz22musXLUSRVH4wx/+wLjx4ygqKuK53zznsVULCgqYcscUOnfuzLXXXMvF376YwsJCnn/uee78/l34dJ3CwoIvLKfDFrSDpNwOUSuSfCe4hLFGGQ8l+3JpeDEblCgvxo/nZDuPZWoLT/iqWa62cIKVxz1GL14V2+hiB8GBG8Mf04zJ/cneNAiDuwMrGWBn8+vEEPxSISw1Su0AtoAedoR31d38MlDNBWYnLjHKmas3MNoqIdfREQje0+pJptV8ofRxudmVh/xreU+r4+HEAG5MVXBXcBVnakV8rLXwV307CnCSns98tYEZWi0hqXLXXffssyIzo8IXLFhAKpUi4A/sk0CxbZsTTjiBi751EaNGjWLatGls376dTp06sWLlCi8fHo/HCQVD+Hw+KisrmTp1Ki+/8jJ33XkXD/zPA4wbP45vjf8W3739uxQXF7N48WLWrF5N9SefMOONfxCJhFG+wPx+RMiBKWGzSG/CkpIaJcF8vZENwl3EvlGNkY1GizAZY5Yy3uqMT7pWsF+6ZIXpvp3sJoUfhc5OgD/7tqEiWKu0sVhrQk+TAC0h0aSgVknyrlaH5rjnxBSbUDozhhDpLLgLG0mB4yfL0RhpFzHcLqBMBlEFqICdflnttGnmpI+5paVVj/i3f8IgGAwecCGepmk0NTUxf/58otEop556Kq+++upBqyHous7GjRt59913kVLy9ttvc84555CVlcUd37uDObPnsGXLFsaOHUswGNyHNPFFcMTcK126TM+Mg6KjYKTn21ZhcVWqGyfb+Tzn30Q2Ol3MIIoU2Ontkdyq+wIHt3aJiYO+1/32hy9d/0RPO1wGDn/UajwRGzj0J8u72hSSzYo7z25U4mxV4gSlu5WDu7OPe6UCaSpT+jnpSkOfdwltKpVi06ZNVFdX89JLL/HOO+8wYsQIampq6Natm0fwC4fDxONxj3XileoQeLvuVVVVEYvG0HWdouIi6uvr8fv9nhH3RdZjHxFjTE8bR5lF8HsvfM9sm1Ai/WxW47yvNhCQCp1sP7aQ3rXgjqyVWisTzXK6yhBn2sUcb+V6u9P60qnKjJAzCwYyzwhLjaz0R0+fE0Rlp5IgplikcHhdq2WH4uZ4bdznq+l72UhUKejmBAnbCtKRPPvrp7j6qitoaWk54O/Xdd3bRyvDGBkzZgylpaWMHjOa8vJyPqn+hCVLlzD2ggsYNGgQFRUVXHnllSxcuJC2tja6du3KOeeeQ05ODhMumkBtbS26rvPwL37Bj378I2bOnMnDv3iYeDzOyNNO5dFHfub56p8Xhz2iNQTblAQNwkBHkMR2yzri5pW3KwlMJH/0beP+VG9eSByHJSSrtTYksEMkaErX+/RLhZf0rYSlxj2pPtSLJNvUBDoKrcJiqxZHQbBFibusEtwylJuVuOcyZaDi7oa3Q0kSw+Yp30auNyoYZ5YhhOCPWg1SkWxTEm5ePH31G1otNxpVlDh+HvdV8+pf/8aunbUHLqWhKOzatcvjfFmWhWmZ3DL5Ftra2sjJyeHll19mxYoVrFmzhpNOOoknn3gS0zTZuGkjv3vhd+Tk5NDa2soF51/ABedfgKqqTLljChMnTmTVqtW8Pv115s6by2+f/y0jRpzK8OHD2LVrN21tUXJysj/VpoPhiOSjMwVbMyMMhKf8MpGsBG65qTypU68YCARqhn25370cIYljk4vGr+NDeDCwlo0i6u3Co6Tn7D3XfKpahnc8gzi2SyCUPhqEgYFDYC+Flml7EocsNHwoRLGIxmLomrZPteC9oev6PqMrGo2Sl5dHTnYO8UScuro6r+xFhvyvqiq1tbVYlkVlZSUP/+JhbrvtNmzHpqWlhWQySXFxsadF3DIcPhxHctG3xrFy5So+XrL0C1UjPiJztJ2ei91gh+vkZARspb/zp+m/dcJAkZkXQ6RHovDm2S4yyJTU12jGpKsMs1htolqJoku3CI6C8O65t8F1oNCow56waRAVB8lukULBrasiYZ/nZ+qtZJYAqQgie9UtORAyc65XrjISIZlMegvsMgwUIdxNyevr3a2XNX1PCFTTNCzLYtfuXfgD7hzc3NzsUZkURcEwTNcte/mPKELZh7v+edDuapg4SMpkkB52hHolxVK1BV2K/0qCQYYGXF5ezubNm/dZN3ak0e4EDe6CPUM4qFLg36da938fMiTC/ddvHWm0y+yVjoIuj5p8y2Ehw/z8snFs9GYHOgR9rKBD0McIDjhHu3U9EhhGytuNtQNHNz41oiVuSYjx48by5BOPccYZpx+RAi4d+GrxKUELQFFUtmzZys7aXdx3792UlXVq17WoO/DZOKDq9vt9LFq8mCVLl3LC8UPIzs5h27bt/+m2deAI4oCCllIS8PsJh8Mu4W2/qjwdOPpwUKs7Y5AlkwlOP30kfn+gQ9hHMQ4qaEVRiMWibNy4iZtuuomqqopP1cLqwNGDgwratm1yc3Pp27cPd//gbtauXddud2nrwGfjkAETXddxHMnmTVv+U+3pwJeEgwZMksmUR377sjMrHfjycUBBG4bBySefyMknn0xJSTFtbW0dgj7KcUDVbds2XcvLqaqs5NFHH2fb9u1u7asOHLU4IPEgs1gslUqhadohC7J04OjAwQMmgcAXIp91oH2jI015jOD/A2MsXqiiceELAAAAAElFTkSuQmCC;" vertex="1" parent="1">
          <mxGeometry x="490" y="680" width="122" height="111" as="geometry" />
        </mxCell>
        <mxCell id="a8bpv2tdy9Tkg7UbMD1m-1" value="" style="endArrow=none;html=1;rounded=0;fontSize=12;fontColor=#050505;fillColor=#76608a;strokeColor=#432D57;" edge="1" parent="1">
          <mxGeometry width="50" height="50" relative="1" as="geometry">
            <mxPoint x="80" y="820" as="sourcePoint" />
            <mxPoint x="760" y="820" as="targetPoint" />
          </mxGeometry>
        </mxCell>
        <mxCell id="a8bpv2tdy9Tkg7UbMD1m-2" value="&lt;font style=&quot;font-size: 12px&quot;&gt;&lt;b&gt;마진 병합이 일어나지 않는다.&lt;br&gt;&lt;/b&gt;&lt;br&gt;마진 병합은 수직으로만 적용되기 때문에 예시1은 마진 병합이 일어나지 않습니다.&lt;br&gt;&lt;br&gt;first box, second box에 margin-left, margin-right의 마진 병합은 발생하지 않습니다.&lt;br&gt;inline-blcok 태그를 이용하여 줄바꿈 없이 레드,블루 박스를 한 줄에 나란히 배치합니다.&lt;br&gt;&lt;/font&gt;" style="rounded=0;whiteSpace=wrap;html=1;fontSize=10;strokeColor=#666666;strokeWidth=0.5;align=center;fillColor=#f5f5f5;fontColor=#333333;" vertex="1" parent="1">
          <mxGeometry x="80" y="870" width="680" height="140" as="geometry" />
        </mxCell>
        <mxCell id="a8bpv2tdy9Tkg7UbMD1m-3" value="" style="endArrow=none;html=1;rounded=0;fontSize=12;fontColor=#050505;startArrow=classic;startFill=1;" edge="1" parent="1">
          <mxGeometry width="50" height="50" relative="1" as="geometry">
            <mxPoint x="413" y="870" as="sourcePoint" />
            <mxPoint x="413" y="820" as="targetPoint" />
          </mxGeometry>
        </mxCell>
      </root>
    </mxGraphModel>
  </diagram>
</mxfile>
